{"glyphs":{"0":{"ha":813,"x_min":76,"x_max":738,"o":"m 407 -28 q 221 27 294 -28 q 112 169 147 82 q 76 356 76 257 q 112 542 76 456 q 221 683 147 629 q 407 736 294 736 q 589 682 515 736 q 700 541 663 628 q 738 356 738 454 q 716 215 738 283 q 653 91 694 146 q 549 4 611 36 q 407 -28 488 -28 m 408 24 q 553 109 501 24 q 604 356 604 194 q 553 601 604 517 q 408 685 501 685 q 261 601 313 685 q 210 356 210 517 q 261 109 210 194 q 408 24 313 24 z "},"1":{"ha":594,"x_min":71,"x_max":586,"o":"m 96 -4 q 76 6 82 -4 q 71 29 71 17 q 82 56 72 54 q 107 57 92 57 q 202 63 167 57 q 253 97 238 69 q 268 185 268 124 l 268 474 q 263 564 269 535 q 238 603 256 593 q 187 612 219 613 q 103 613 154 611 q 83 623 89 613 q 78 646 78 633 q 89 674 79 671 q 114 676 99 676 q 212 690 161 676 q 302 720 263 704 q 353 740 342 736 q 376 741 364 744 q 389 711 389 738 l 389 185 q 404 97 389 124 q 455 63 419 69 q 550 57 490 57 q 575 56 565 57 q 586 29 585 54 q 581 6 586 17 q 561 -4 576 -4 q 483 -2 528 -3 q 395 -1 438 -1 q 328 0 353 0 q 262 -1 304 0 q 174 -2 219 -1 q 96 -4 129 -3 z "},"2":{"ha":682,"x_min":64,"x_max":626,"o":"m 113 0 q 75 14 86 0 q 64 50 64 28 q 82 100 67 82 q 128 138 97 118 q 236 213 179 172 q 343 302 293 253 q 424 411 393 351 q 456 546 456 471 q 420 649 456 613 q 321 686 385 686 q 232 660 268 686 q 196 585 196 633 q 207 545 196 561 q 230 520 218 529 q 242 508 242 511 q 225 486 242 501 q 178 471 208 471 q 108 499 133 471 q 83 567 83 526 q 123 664 83 626 q 220 719 163 701 q 333 736 278 736 q 453 716 394 736 q 551 650 513 696 q 589 528 589 604 q 560 412 589 464 q 486 317 532 360 q 387 238 440 274 q 281 169 333 201 q 188 106 228 138 l 188 99 l 560 99 q 607 92 588 99 q 626 50 626 86 q 578 0 626 0 l 113 0 z "},"3":{"ha":676,"x_min":71,"x_max":600,"o":"m 313 -28 q 196 -11 251 -28 q 106 40 140 6 q 71 128 71 74 q 94 195 71 164 q 165 226 118 226 q 213 211 196 226 q 229 189 229 196 q 217 179 229 186 q 194 157 206 172 q 183 115 183 142 q 222 47 183 71 q 317 24 260 24 q 427 64 389 24 q 465 189 465 104 q 431 297 465 254 q 321 343 396 339 l 269 343 q 254 352 260 343 q 249 371 249 361 q 254 392 249 382 q 269 403 260 401 l 321 403 q 408 452 376 408 q 440 556 440 496 q 401 660 440 626 q 315 693 361 693 q 235 667 271 693 q 200 592 200 640 q 211 550 200 561 q 234 538 222 539 q 246 535 246 538 q 229 513 246 528 q 182 497 213 497 q 112 526 136 497 q 88 596 88 554 q 153 703 88 667 q 317 739 219 739 q 442 719 385 739 q 533 658 499 699 q 567 556 567 618 q 528 450 567 501 q 408 376 490 399 l 408 371 q 493 350 449 367 q 569 296 538 333 q 600 192 600 258 q 559 63 600 111 q 453 -6 518 15 q 313 -28 388 -28 z "},"4":{"ha":689,"x_min":21,"x_max":639,"o":"m 458 -17 q 418 -10 436 -17 q 397 10 400 -3 l 397 222 l 65 222 q 32 237 43 222 q 21 271 21 251 q 31 301 21 289 l 421 728 q 441 739 429 736 q 464 742 453 742 q 500 731 483 742 q 518 693 517 719 l 518 290 l 601 290 q 627 287 617 290 q 639 257 638 283 q 633 233 639 243 q 613 222 628 222 l 518 222 l 518 10 q 499 -10 518 -3 q 458 -17 481 -17 m 101 290 l 397 290 l 397 619 l 101 290 z "},"5":{"ha":674,"x_min":58,"x_max":586,"o":"m 297 -28 q 181 -12 236 -28 q 92 37 126 3 q 58 126 58 71 q 83 201 58 167 q 153 235 108 235 q 200 219 183 235 q 217 197 217 204 q 205 185 217 194 q 182 161 193 176 q 171 121 171 146 q 205 49 171 74 q 300 24 239 24 q 417 81 381 24 q 453 219 453 138 q 438 309 453 267 q 389 378 422 351 q 299 407 356 406 q 217 390 249 408 q 163 354 185 372 q 118 336 140 336 q 98 358 100 336 q 97 392 96 381 l 140 722 l 522 722 q 553 710 542 722 q 565 675 565 699 q 513 624 565 624 l 204 624 l 175 431 q 325 468 236 468 q 412 454 367 468 q 497 411 457 440 q 561 336 536 382 q 586 226 586 290 q 545 87 586 143 q 439 1 504 31 q 297 -28 374 -28 z "},"6":{"ha":707,"x_min":74,"x_max":647,"o":"m 363 -28 q 153 53 232 -28 q 74 278 74 135 q 128 488 74 392 q 278 651 182 585 q 500 739 374 717 q 535 738 522 742 q 549 715 549 735 q 544 699 549 708 q 524 686 539 690 q 317 571 390 644 q 221 401 244 497 q 314 445 269 433 q 406 457 358 457 q 528 427 474 457 q 615 346 582 397 q 647 226 647 294 q 606 92 647 150 q 501 3 565 35 q 363 -28 436 -28 m 363 17 q 471 71 428 17 q 514 214 514 125 q 471 345 514 296 q 358 394 428 394 q 285 377 324 394 q 215 331 247 360 q 210 307 214 322 q 207 276 207 292 q 215 196 207 240 q 240 110 222 151 q 287 43 257 69 q 363 17 317 17 z "},"7":{"ha":592,"x_min":56,"x_max":568,"o":"m 224 -28 q 192 -13 207 -28 q 178 32 178 1 q 199 120 178 64 q 253 245 219 176 q 326 385 288 314 q 399 520 364 457 q 458 626 435 583 l 215 626 q 161 621 182 626 q 129 595 140 615 q 111 529 118 575 q 103 514 110 519 q 79 508 97 508 q 56 532 56 508 l 61 694 q 74 719 61 714 q 101 725 86 725 l 525 725 q 564 709 560 726 q 557 669 568 692 q 535 626 546 646 q 456 471 493 556 q 388 301 419 386 q 329 141 356 215 q 281 17 303 67 q 254 -18 269 -8 q 224 -28 239 -28 z "},"8":{"ha":713,"x_min":75,"x_max":636,"o":"m 346 -28 q 149 30 222 -28 q 75 175 75 88 q 118 283 75 239 q 238 361 161 328 q 140 443 171 401 q 108 538 108 485 q 145 639 108 594 q 241 710 182 683 q 368 736 300 736 q 492 711 439 736 q 576 643 546 686 q 607 546 607 600 q 468 374 607 444 q 598 292 560 335 q 636 182 636 249 q 600 78 636 126 q 499 1 564 31 q 346 -28 433 -28 m 421 399 q 478 466 458 426 q 499 547 499 506 q 465 646 499 603 q 361 689 431 689 q 260 652 297 689 q 224 561 224 615 q 251 495 224 524 q 324 444 279 467 q 421 399 369 421 m 358 18 q 470 58 429 18 q 511 157 511 97 q 483 229 511 200 q 406 284 456 258 q 290 339 357 310 q 224 270 249 311 q 200 181 200 229 q 243 63 200 108 q 358 18 286 18 z "},"9":{"ha":706,"x_min":58,"x_max":632,"o":"m 206 -31 q 170 -30 183 -33 q 157 -7 157 -26 q 162 9 157 0 q 182 22 167 18 q 389 138 315 64 q 485 307 463 211 q 392 264 438 276 q 300 251 347 251 q 178 281 233 251 q 91 363 124 311 q 58 482 58 415 q 99 617 58 560 q 206 705 140 674 q 343 736 271 736 q 553 656 474 736 q 632 431 632 575 q 578 220 632 317 q 428 58 524 124 q 206 -31 332 -7 m 347 314 q 421 331 383 314 q 490 378 458 349 q 496 401 493 386 q 499 432 499 417 q 491 513 499 468 q 466 598 483 557 q 419 665 449 639 q 343 692 389 692 q 235 638 279 692 q 192 494 192 583 q 235 363 192 413 q 347 314 279 314 z "},"A":{"ha":907,"x_min":-17,"x_max":915,"o":"m 8 -4 q -11 6 -6 -4 q -17 26 -17 15 q -6 53 -15 50 q 18 56 4 56 q 75 71 56 56 q 106 111 94 86 q 129 163 118 136 l 372 738 q 378 788 386 771 q 350 813 369 806 q 307 825 331 821 q 279 833 286 829 q 272 857 272 836 q 289 883 272 881 q 328 885 306 885 q 425 874 385 885 q 494 831 465 863 q 549 738 524 800 l 782 163 q 803 114 792 139 q 833 73 814 89 q 881 56 851 57 q 905 53 896 56 q 915 26 914 50 q 909 6 915 15 q 890 -4 903 -4 q 813 -1 846 -1 q 738 0 779 0 q 565 -4 656 0 q 546 6 551 -4 q 540 26 540 15 q 551 53 542 50 q 575 56 561 56 q 649 81 643 56 q 636 163 656 106 l 589 278 l 246 278 q 216 201 225 225 q 205 171 207 178 q 201 163 203 164 q 185 92 186 115 q 208 63 185 69 q 285 56 231 56 q 309 53 300 56 q 319 26 318 50 q 313 6 319 15 q 294 -4 307 -4 q 217 -1 250 -1 q 143 0 185 0 q 97 -1 115 0 q 58 -2 78 -1 q 8 -4 39 -3 m 272 338 l 564 338 l 424 694 l 419 694 l 272 338 z "},"Á":{"ha":907,"x_min":-17,"x_max":915,"o":"m 8 -4 q -11 6 -6 -4 q -17 26 -17 15 q -6 53 -15 50 q 18 56 4 56 q 75 71 56 56 q 106 111 94 86 q 129 163 118 136 l 372 738 q 378 788 386 771 q 350 813 369 806 q 307 825 331 821 q 279 833 286 829 q 272 857 272 836 q 289 883 272 881 q 328 885 306 885 q 425 874 385 885 q 494 831 465 863 q 549 738 524 800 l 782 163 q 803 114 792 139 q 833 73 814 89 q 881 56 851 57 q 905 53 896 56 q 915 26 914 50 q 909 6 915 15 q 890 -4 903 -4 q 813 -1 846 -1 q 738 0 779 0 q 565 -4 656 0 q 546 6 551 -4 q 540 26 540 15 q 551 53 542 50 q 575 56 561 56 q 649 81 643 56 q 636 163 656 106 l 589 278 l 246 278 q 216 201 225 225 q 205 171 207 178 q 201 163 203 164 q 185 92 186 115 q 208 63 185 69 q 285 56 231 56 q 309 53 300 56 q 319 26 318 50 q 313 6 319 15 q 294 -4 307 -4 q 217 -1 250 -1 q 143 0 185 0 q 97 -1 115 0 q 58 -2 78 -1 q 8 -4 39 -3 m 272 338 l 564 338 l 424 694 l 419 694 l 272 338 m 411 961 q 384 962 397 954 q 366 984 371 969 q 371 1008 361 999 q 411 1049 386 1024 q 465 1100 436 1074 q 518 1146 493 1126 q 553 1170 538 1161 q 585 1179 569 1179 q 621 1160 606 1179 q 630 1109 644 1133 q 583 1064 615 1085 q 497 1010 540 1036 q 411 961 453 983 z "},"Â":{"ha":907,"x_min":-17,"x_max":915,"o":"m 8 -4 q -11 6 -6 -4 q -17 26 -17 15 q -6 53 -15 50 q 18 56 4 56 q 75 71 56 56 q 106 111 94 86 q 129 163 118 136 l 372 738 q 378 788 386 771 q 350 813 369 806 q 307 825 331 821 q 279 833 286 829 q 272 857 272 836 q 289 883 272 881 q 328 885 306 885 q 425 874 385 885 q 494 831 465 863 q 549 738 524 800 l 782 163 q 803 114 792 139 q 833 73 814 89 q 881 56 851 57 q 905 53 896 56 q 915 26 914 50 q 909 6 915 15 q 890 -4 903 -4 q 813 -1 846 -1 q 738 0 779 0 q 565 -4 656 0 q 546 6 551 -4 q 540 26 540 15 q 551 53 542 50 q 575 56 561 56 q 649 81 643 56 q 636 163 656 106 l 589 278 l 246 278 q 216 201 225 225 q 205 171 207 178 q 201 163 203 164 q 185 92 186 115 q 208 63 185 69 q 285 56 231 56 q 309 53 300 56 q 319 26 318 50 q 313 6 319 15 q 294 -4 307 -4 q 217 -1 250 -1 q 143 0 185 0 q 97 -1 115 0 q 58 -2 78 -1 q 8 -4 39 -3 m 272 338 l 564 338 l 424 694 l 419 694 l 272 338 m 232 958 q 205 953 218 951 q 183 964 192 956 q 189 1007 164 986 l 372 1151 q 413 1167 392 1167 q 453 1151 433 1167 l 636 1007 q 642 964 663 985 q 620 953 633 956 q 593 958 607 951 l 413 1047 l 232 958 z "},"Ä":{"ha":907,"x_min":-17,"x_max":915,"o":"m 8 -4 q -11 6 -6 -4 q -17 26 -17 15 q -6 53 -15 50 q 18 56 4 56 q 75 71 56 56 q 106 111 94 86 q 129 163 118 136 l 372 738 q 378 788 386 771 q 350 813 369 806 q 307 825 331 821 q 279 833 286 829 q 272 857 272 836 q 289 883 272 881 q 328 885 306 885 q 425 874 385 885 q 494 831 465 863 q 549 738 524 800 l 782 163 q 803 114 792 139 q 833 73 814 89 q 881 56 851 57 q 905 53 896 56 q 915 26 914 50 q 909 6 915 15 q 890 -4 903 -4 q 813 -1 846 -1 q 738 0 779 0 q 565 -4 656 0 q 546 6 551 -4 q 540 26 540 15 q 551 53 542 50 q 575 56 561 56 q 649 81 643 56 q 636 163 656 106 l 589 278 l 246 278 q 216 201 225 225 q 205 171 207 178 q 201 163 203 164 q 185 92 186 115 q 208 63 185 69 q 285 56 231 56 q 309 53 300 56 q 319 26 318 50 q 313 6 319 15 q 294 -4 307 -4 q 217 -1 250 -1 q 143 0 185 0 q 97 -1 115 0 q 58 -2 78 -1 q 8 -4 39 -3 m 272 338 l 564 338 l 424 694 l 419 694 l 272 338 m 546 988 q 485 1013 511 988 q 460 1071 460 1038 q 485 1131 460 1107 q 547 1154 511 1154 q 607 1131 583 1154 q 631 1071 631 1107 q 606 1013 631 1038 q 546 988 582 988 m 279 988 q 219 1013 244 988 q 193 1071 193 1038 q 219 1131 193 1107 q 281 1154 244 1154 q 340 1131 317 1154 q 364 1071 364 1107 q 340 1013 364 1038 q 279 988 315 988 z "},"À":{"ha":907,"x_min":-17,"x_max":915,"o":"m 8 -4 q -11 6 -6 -4 q -17 26 -17 15 q -6 53 -15 50 q 18 56 4 56 q 75 71 56 56 q 106 111 94 86 q 129 163 118 136 l 372 738 q 378 788 386 771 q 350 813 369 806 q 307 825 331 821 q 279 833 286 829 q 272 857 272 836 q 289 883 272 881 q 328 885 306 885 q 425 874 385 885 q 494 831 465 863 q 549 738 524 800 l 782 163 q 803 114 792 139 q 833 73 814 89 q 881 56 851 57 q 905 53 896 56 q 915 26 914 50 q 909 6 915 15 q 890 -4 903 -4 q 813 -1 846 -1 q 738 0 779 0 q 565 -4 656 0 q 546 6 551 -4 q 540 26 540 15 q 551 53 542 50 q 575 56 561 56 q 649 81 643 56 q 636 163 656 106 l 589 278 l 246 278 q 216 201 225 225 q 205 171 207 178 q 201 163 203 164 q 185 92 186 115 q 208 63 185 69 q 285 56 231 56 q 309 53 300 56 q 319 26 318 50 q 313 6 319 15 q 294 -4 307 -4 q 217 -1 250 -1 q 143 0 185 0 q 97 -1 115 0 q 58 -2 78 -1 q 8 -4 39 -3 m 272 338 l 564 338 l 424 694 l 419 694 l 272 338 m 417 939 q 332 988 375 961 q 244 1042 289 1014 q 198 1087 213 1063 q 207 1138 183 1111 q 255 1156 231 1164 q 310 1124 279 1147 q 364 1078 336 1104 q 417 1026 392 1051 q 457 986 442 1001 q 463 962 468 976 q 445 940 458 947 q 417 939 432 932 z "},"Å":{"ha":907,"x_min":-17,"x_max":915,"o":"m 8 -4 q -11 6 -6 -4 q -17 26 -17 15 q -6 53 -15 50 q 18 56 4 56 q 75 71 56 56 q 106 111 94 86 q 129 163 118 136 l 372 738 q 378 788 386 771 q 350 813 369 806 q 307 825 331 821 q 279 833 286 829 q 272 857 272 836 q 289 883 272 881 q 328 885 306 885 q 425 874 385 885 q 494 831 465 863 q 549 738 524 800 l 782 163 q 803 114 792 139 q 833 73 814 89 q 881 56 851 57 q 905 53 896 56 q 915 26 914 50 q 909 6 915 15 q 890 -4 903 -4 q 813 -1 846 -1 q 738 0 779 0 q 565 -4 656 0 q 546 6 551 -4 q 540 26 540 15 q 551 53 542 50 q 575 56 561 56 q 649 81 643 56 q 636 163 656 106 l 589 278 l 246 278 q 216 201 225 225 q 205 171 207 178 q 201 163 203 164 q 185 92 186 115 q 208 63 185 69 q 285 56 231 56 q 309 53 300 56 q 319 26 318 50 q 313 6 319 15 q 294 -4 307 -4 q 217 -1 250 -1 q 143 0 185 0 q 97 -1 115 0 q 58 -2 78 -1 q 8 -4 39 -3 m 272 338 l 564 338 l 424 694 l 419 694 l 272 338 m 414 901 q 303 938 344 901 q 261 1033 261 974 q 414 1169 261 1169 q 526 1133 488 1169 q 564 1033 564 1097 q 524 938 564 974 q 414 901 483 901 m 414 953 q 462 976 450 953 q 474 1033 474 999 q 461 1097 474 1074 q 414 1121 449 1121 q 367 1096 382 1121 q 351 1033 351 1071 q 414 953 351 953 z "},"Ã":{"ha":907,"x_min":-17,"x_max":915,"o":"m 504 964 q 435 985 463 965 q 384 1024 407 1004 q 336 1044 361 1044 q 292 1031 318 1044 q 240 986 267 1018 q 204 978 225 971 q 192 1011 183 985 q 251 1097 210 1057 q 353 1138 292 1138 q 422 1117 393 1138 q 472 1077 450 1097 q 519 1057 494 1057 q 564 1071 538 1057 q 617 1115 590 1085 q 641 1126 626 1128 q 663 1114 656 1125 q 661 1085 669 1103 q 601 1002 642 1040 q 504 964 561 964 m 8 -4 q -11 6 -6 -4 q -17 26 -17 15 q -6 53 -15 50 q 18 56 4 56 q 75 71 56 56 q 106 111 94 86 q 129 163 118 136 l 372 738 q 378 788 386 771 q 350 813 369 806 q 307 825 331 821 q 279 833 286 829 q 272 857 272 836 q 289 883 272 881 q 328 885 306 885 q 425 874 385 885 q 494 831 465 863 q 549 738 524 800 l 782 163 q 803 114 792 139 q 833 73 814 89 q 881 56 851 57 q 905 53 896 56 q 915 26 914 50 q 909 6 915 15 q 890 -4 903 -4 q 813 -1 846 -1 q 738 0 779 0 q 565 -4 656 0 q 546 6 551 -4 q 540 26 540 15 q 551 53 542 50 q 575 56 561 56 q 649 81 643 56 q 636 163 656 106 l 589 278 l 246 278 q 216 201 225 225 q 205 171 207 178 q 201 163 203 164 q 185 92 186 115 q 208 63 185 69 q 285 56 231 56 q 309 53 300 56 q 319 26 318 50 q 313 6 319 15 q 294 -4 307 -4 q 217 -1 250 -1 q 143 0 185 0 q 97 -1 115 0 q 58 -2 78 -1 q 8 -4 39 -3 m 272 338 l 564 338 l 424 694 l 419 694 l 272 338 z "},"Æ":{"ha":1253,"x_min":-14,"x_max":1206,"o":"m 11 -4 q -8 6 -3 -4 q -14 26 -14 15 q -3 53 -12 50 q 21 56 7 57 q 94 88 61 53 q 146 163 126 122 l 442 738 q 447 786 456 771 q 419 807 439 801 q 376 817 400 813 q 348 824 356 821 q 342 849 340 828 q 359 874 343 872 q 397 876 375 876 l 1113 876 q 1138 869 1128 876 q 1149 843 1149 863 l 1153 649 q 1140 628 1153 635 q 1115 621 1126 621 q 1088 627 1100 621 q 1072 646 1075 633 q 1049 747 1063 708 q 1010 802 1036 785 q 936 821 985 819 l 750 821 l 750 468 l 1001 468 q 1017 457 1013 467 q 1022 436 1022 447 q 1017 417 1022 426 q 1001 408 1013 408 l 750 408 l 750 146 q 756 106 751 128 q 780 69 760 85 q 847 56 800 54 l 975 56 q 1049 72 1024 57 q 1090 121 1075 86 q 1124 217 1106 156 q 1142 235 1129 231 q 1171 236 1156 239 q 1194 226 1182 235 q 1204 204 1206 218 l 1176 29 q 1163 5 1172 10 q 1136 0 1154 0 l 678 0 q 597 -1 636 0 q 511 -4 557 -1 q 493 6 499 -4 q 488 26 488 15 q 499 53 489 50 q 522 56 508 56 q 585 72 567 56 q 608 112 603 88 q 613 163 613 136 l 613 344 l 311 344 l 218 163 q 192 94 194 117 q 212 63 189 71 q 288 56 235 56 q 312 53 303 56 q 322 26 321 50 q 316 6 322 15 q 297 -4 310 -4 q 220 -1 253 -1 q 146 0 188 0 q 99 -1 118 0 q 61 -2 81 -1 q 11 -4 42 -3 m 340 404 l 613 404 l 613 821 l 581 821 q 551 813 560 822 q 532 785 543 804 l 340 404 z "},"B":{"ha":863,"x_min":58,"x_max":800,"o":"m 83 -4 q 64 6 69 -4 q 58 26 58 15 q 69 53 60 50 q 93 56 79 56 q 156 72 138 56 q 178 112 174 88 q 183 163 183 136 l 183 714 q 178 765 183 740 q 156 805 174 789 q 93 821 138 821 q 69 824 79 821 q 58 850 60 826 q 64 871 58 861 q 83 881 69 881 q 167 878 128 879 q 247 876 206 876 l 443 876 q 570 865 524 876 q 651 831 617 853 q 708 766 688 807 q 729 676 729 725 q 700 572 729 614 q 627 505 671 529 q 542 471 583 481 l 542 467 q 672 440 615 468 q 763 367 729 413 q 797 267 796 321 q 764 136 800 188 q 670 54 728 85 q 545 11 613 24 q 415 -1 478 -1 l 249 0 q 167 -1 207 0 q 83 -4 128 -1 m 321 494 l 379 494 q 442 497 407 494 q 508 515 476 500 q 560 563 540 529 q 581 660 581 597 q 545 779 581 733 q 418 825 510 825 l 321 825 l 321 494 m 421 54 q 535 75 483 56 q 617 140 586 94 q 647 267 647 186 q 617 350 643 311 q 534 414 592 389 q 378 439 476 439 l 321 439 l 321 163 q 342 74 321 93 q 421 54 363 54 z "},"C":{"ha":888,"x_min":68,"x_max":843,"o":"m 497 -28 q 283 28 381 -28 q 127 186 186 83 q 68 432 68 289 q 124 680 68 574 q 281 845 179 786 q 522 904 383 904 q 626 894 572 904 q 725 862 679 885 q 799 801 771 839 q 828 708 828 764 q 792 603 829 649 q 686 558 754 558 q 627 578 644 558 q 611 608 610 599 q 628 623 611 613 q 663 655 646 633 q 681 713 681 676 q 639 812 681 775 q 521 849 597 849 q 372 801 438 849 q 268 663 306 754 q 231 440 231 572 q 270 238 231 329 q 381 94 310 147 q 547 40 453 40 q 676 72 622 40 q 772 172 729 103 q 817 176 785 196 q 836 156 829 168 q 833 132 843 144 q 733 31 781 65 q 631 -15 686 -3 q 497 -28 575 -28 z "},"Ç":{"ha":888,"x_min":68,"x_max":843,"o":"m 497 -28 q 283 28 381 -28 q 127 186 186 83 q 68 432 68 289 q 124 680 68 574 q 281 845 179 786 q 522 904 383 904 q 626 894 572 904 q 725 862 679 885 q 799 801 771 839 q 828 708 828 764 q 792 603 829 649 q 686 558 754 558 q 627 578 644 558 q 611 608 610 599 q 628 623 611 613 q 663 655 646 633 q 681 713 681 676 q 639 812 681 775 q 521 849 597 849 q 372 801 438 849 q 268 663 306 754 q 231 440 231 572 q 270 238 231 329 q 381 94 310 147 q 547 40 453 40 q 676 72 622 40 q 772 172 729 103 q 817 176 785 196 q 836 156 829 168 q 833 132 843 144 q 733 31 781 65 q 631 -15 686 -3 q 497 -28 575 -28 m 392 -289 q 371 -278 378 -289 q 364 -256 364 -268 q 372 -231 364 -236 q 392 -225 381 -225 q 465 -223 431 -225 q 523 -210 500 -221 q 546 -175 546 -200 q 524 -144 546 -153 q 467 -133 503 -136 q 452 -128 460 -132 q 444 -101 444 -124 l 444 0 l 513 0 l 513 -57 q 576 -66 544 -57 q 627 -96 607 -75 q 647 -154 647 -117 q 576 -258 647 -226 q 392 -289 506 -289 z "},"D":{"ha":1011,"x_min":60,"x_max":943,"o":"m 83 -4 q 65 6 71 -4 q 60 26 60 15 q 71 53 61 50 q 94 56 81 56 q 157 72 139 56 q 180 112 175 88 q 185 163 185 136 l 185 714 q 180 765 185 740 q 157 805 175 789 q 94 821 139 821 q 71 824 81 821 q 60 850 61 826 q 65 871 60 861 q 83 881 71 881 q 168 878 129 879 q 249 876 207 876 l 465 876 q 707 824 599 876 q 879 672 815 771 q 943 433 943 574 q 900 240 943 322 q 785 105 857 158 q 623 26 713 51 q 440 0 533 0 l 249 0 q 168 -1 207 0 q 83 -4 129 -1 m 461 51 q 643 99 574 51 q 744 233 713 147 q 775 433 775 319 q 735 636 775 547 q 617 776 694 725 q 431 826 540 826 q 372 826 408 826 q 322 825 336 825 l 322 146 q 356 71 322 90 q 461 51 390 51 z "},"Ð":{"ha":1011,"x_min":60,"x_max":943,"o":"m 83 -4 q 65 6 71 -4 q 60 26 60 15 q 71 53 61 50 q 94 56 81 56 q 157 72 139 56 q 180 112 175 88 q 185 163 185 136 l 185 432 l 108 432 q 88 442 93 432 q 82 461 82 451 q 88 482 82 472 q 108 492 93 492 l 185 492 l 185 714 q 180 765 185 740 q 157 805 175 789 q 94 821 139 821 q 71 824 81 821 q 60 850 61 826 q 65 871 60 861 q 83 881 71 881 q 168 878 129 879 q 249 876 207 876 l 465 876 q 707 824 599 876 q 879 672 815 771 q 943 433 943 574 q 900 240 943 322 q 785 105 857 158 q 623 26 713 51 q 440 0 533 0 l 249 0 q 168 -1 207 0 q 83 -4 129 -1 m 461 51 q 643 99 574 51 q 744 233 713 147 q 775 433 775 319 q 735 636 775 547 q 617 776 694 725 q 431 826 540 826 q 372 826 408 826 q 322 825 336 825 l 322 492 l 482 492 q 503 482 497 492 q 508 461 508 472 q 503 442 508 451 q 482 432 497 432 l 322 432 l 322 146 q 356 71 322 90 q 461 51 390 51 z "},"E":{"ha":825,"x_min":60,"x_max":778,"o":"m 83 -4 q 65 6 71 -4 q 60 26 60 15 q 71 53 61 50 q 94 56 81 56 q 157 72 139 56 q 180 112 175 88 q 185 163 185 136 l 185 714 q 180 765 185 740 q 157 805 175 789 q 94 821 139 821 q 71 824 81 821 q 60 850 61 826 q 65 871 60 861 q 83 881 71 881 q 168 878 129 879 q 249 876 207 876 l 685 876 q 710 869 700 876 q 721 843 721 863 l 725 649 q 712 628 725 635 q 688 621 699 621 q 660 627 672 621 q 644 646 647 633 q 622 747 635 708 q 583 802 608 785 q 508 821 557 819 l 322 821 l 322 468 l 574 468 q 590 457 585 467 q 594 436 594 447 q 590 417 594 426 q 574 408 585 408 l 322 408 l 322 146 q 328 106 324 128 q 352 69 332 85 q 419 56 372 54 l 547 56 q 622 72 596 57 q 663 121 647 86 q 696 217 678 156 q 715 235 701 231 q 743 236 728 239 q 766 226 754 235 q 776 204 778 218 l 749 29 q 735 5 744 10 q 708 0 726 0 l 250 0 q 169 -1 208 0 q 83 -4 129 -1 z "},"É":{"ha":825,"x_min":60,"x_max":778,"o":"m 83 -4 q 65 6 71 -4 q 60 26 60 15 q 71 53 61 50 q 94 56 81 56 q 157 72 139 56 q 180 112 175 88 q 185 163 185 136 l 185 714 q 180 765 185 740 q 157 805 175 789 q 94 821 139 821 q 71 824 81 821 q 60 850 61 826 q 65 871 60 861 q 83 881 71 881 q 168 878 129 879 q 249 876 207 876 l 685 876 q 710 869 700 876 q 721 843 721 863 l 725 649 q 712 628 725 635 q 688 621 699 621 q 660 627 672 621 q 644 646 647 633 q 622 747 635 708 q 583 802 608 785 q 508 821 557 819 l 322 821 l 322 468 l 574 468 q 590 457 585 467 q 594 436 594 447 q 590 417 594 426 q 574 408 585 408 l 322 408 l 322 146 q 328 106 324 128 q 352 69 332 85 q 419 56 372 54 l 547 56 q 622 72 596 57 q 663 121 647 86 q 696 217 678 156 q 715 235 701 231 q 743 236 728 239 q 766 226 754 235 q 776 204 778 218 l 749 29 q 735 5 744 10 q 708 0 726 0 l 250 0 q 169 -1 208 0 q 83 -4 129 -1 m 440 961 q 413 962 426 954 q 395 984 400 969 q 400 1008 390 999 q 440 1049 415 1024 q 494 1100 465 1074 q 547 1146 522 1126 q 583 1170 567 1161 q 614 1179 599 1179 q 650 1160 635 1179 q 659 1109 674 1133 q 613 1064 644 1085 q 526 1010 569 1036 q 440 961 482 983 z "},"Ê":{"ha":825,"x_min":60,"x_max":778,"o":"m 83 -4 q 65 6 71 -4 q 60 26 60 15 q 71 53 61 50 q 94 56 81 56 q 157 72 139 56 q 180 112 175 88 q 185 163 185 136 l 185 714 q 180 765 185 740 q 157 805 175 789 q 94 821 139 821 q 71 824 81 821 q 60 850 61 826 q 65 871 60 861 q 83 881 71 881 q 168 878 129 879 q 249 876 207 876 l 685 876 q 710 869 700 876 q 721 843 721 863 l 725 649 q 712 628 725 635 q 688 621 699 621 q 660 627 672 621 q 644 646 647 633 q 622 747 635 708 q 583 802 608 785 q 508 821 557 819 l 322 821 l 322 468 l 574 468 q 590 457 585 467 q 594 436 594 447 q 590 417 594 426 q 574 408 585 408 l 322 408 l 322 146 q 328 106 324 128 q 352 69 332 85 q 419 56 372 54 l 547 56 q 622 72 596 57 q 663 121 647 86 q 696 217 678 156 q 715 235 701 231 q 743 236 728 239 q 766 226 754 235 q 776 204 778 218 l 749 29 q 735 5 744 10 q 708 0 726 0 l 250 0 q 169 -1 208 0 q 83 -4 129 -1 m 261 958 q 234 953 247 951 q 213 964 221 956 q 218 1007 193 986 l 401 1151 q 442 1167 421 1167 q 482 1151 463 1167 l 665 1007 q 671 964 692 985 q 649 953 663 956 q 622 958 636 951 l 442 1047 l 261 958 z "},"Ë":{"ha":825,"x_min":60,"x_max":778,"o":"m 83 -4 q 65 6 71 -4 q 60 26 60 15 q 71 53 61 50 q 94 56 81 56 q 157 72 139 56 q 180 112 175 88 q 185 163 185 136 l 185 714 q 180 765 185 740 q 157 805 175 789 q 94 821 139 821 q 71 824 81 821 q 60 850 61 826 q 65 871 60 861 q 83 881 71 881 q 168 878 129 879 q 249 876 207 876 l 685 876 q 710 869 700 876 q 721 843 721 863 l 725 649 q 712 628 725 635 q 688 621 699 621 q 660 627 672 621 q 644 646 647 633 q 622 747 635 708 q 583 802 608 785 q 508 821 557 819 l 322 821 l 322 468 l 574 468 q 590 457 585 467 q 594 436 594 447 q 590 417 594 426 q 574 408 585 408 l 322 408 l 322 146 q 328 106 324 128 q 352 69 332 85 q 419 56 372 54 l 547 56 q 622 72 596 57 q 663 121 647 86 q 696 217 678 156 q 715 235 701 231 q 743 236 728 239 q 766 226 754 235 q 776 204 778 218 l 749 29 q 735 5 744 10 q 708 0 726 0 l 250 0 q 169 -1 208 0 q 83 -4 129 -1 m 575 988 q 515 1013 540 988 q 489 1071 489 1038 q 515 1131 489 1107 q 576 1154 540 1154 q 636 1131 613 1154 q 660 1071 660 1107 q 635 1013 660 1038 q 575 988 611 988 m 308 988 q 248 1013 274 988 q 222 1071 222 1038 q 248 1131 222 1107 q 310 1154 274 1154 q 369 1131 346 1154 q 393 1071 393 1107 q 369 1013 393 1038 q 308 988 344 988 z "},"È":{"ha":825,"x_min":60,"x_max":778,"o":"m 83 -4 q 65 6 71 -4 q 60 26 60 15 q 71 53 61 50 q 94 56 81 56 q 157 72 139 56 q 180 112 175 88 q 185 163 185 136 l 185 714 q 180 765 185 740 q 157 805 175 789 q 94 821 139 821 q 71 824 81 821 q 60 850 61 826 q 65 871 60 861 q 83 881 71 881 q 168 878 129 879 q 249 876 207 876 l 685 876 q 710 869 700 876 q 721 843 721 863 l 725 649 q 712 628 725 635 q 688 621 699 621 q 660 627 672 621 q 644 646 647 633 q 622 747 635 708 q 583 802 608 785 q 508 821 557 819 l 322 821 l 322 468 l 574 468 q 590 457 585 467 q 594 436 594 447 q 590 417 594 426 q 574 408 585 408 l 322 408 l 322 146 q 328 106 324 128 q 352 69 332 85 q 419 56 372 54 l 547 56 q 622 72 596 57 q 663 121 647 86 q 696 217 678 156 q 715 235 701 231 q 743 236 728 239 q 766 226 754 235 q 776 204 778 218 l 749 29 q 735 5 744 10 q 708 0 726 0 l 250 0 q 169 -1 208 0 q 83 -4 129 -1 m 446 939 q 361 988 404 961 q 274 1042 318 1014 q 227 1087 242 1063 q 236 1138 213 1111 q 284 1156 260 1164 q 339 1124 308 1147 q 393 1078 365 1104 q 446 1026 421 1051 q 486 986 471 1001 q 492 962 497 976 q 474 940 488 947 q 446 939 461 932 z "},"F":{"ha":729,"x_min":60,"x_max":690,"o":"m 83 -4 q 65 6 71 -4 q 60 26 60 15 q 71 53 61 50 q 94 56 81 56 q 157 72 139 56 q 180 112 175 88 q 185 163 185 136 l 185 714 q 180 765 185 740 q 157 805 175 789 q 94 821 139 821 q 71 824 81 821 q 60 850 61 826 q 65 871 60 861 q 83 881 71 881 q 167 878 128 879 q 249 876 207 876 l 650 876 q 676 869 665 876 q 686 843 686 863 l 690 649 q 677 628 690 635 q 653 621 664 621 q 624 627 638 621 q 608 646 611 633 q 587 747 600 708 q 548 802 574 785 q 474 821 522 819 l 322 821 l 322 460 l 571 460 q 588 449 582 458 q 593 428 593 439 q 588 409 593 418 q 571 400 582 400 l 322 400 l 322 163 q 328 112 324 136 q 351 72 332 88 q 413 56 369 56 q 436 53 426 56 q 447 26 446 50 q 442 6 447 15 q 422 -4 436 -4 q 250 0 333 0 q 168 -1 208 0 q 83 -4 128 -1 z "},"G":{"ha":961,"x_min":68,"x_max":936,"o":"m 499 -28 q 284 22 382 -28 q 127 173 186 71 q 68 432 68 275 q 130 680 68 574 q 301 845 192 786 q 553 904 411 904 q 653 893 601 904 q 749 859 704 882 q 820 799 793 836 q 847 708 847 761 q 813 605 847 651 q 715 558 778 558 q 660 572 689 558 q 631 608 632 585 q 648 624 631 613 q 683 658 665 635 q 700 718 700 681 q 654 813 700 778 q 536 849 608 849 q 382 801 451 849 q 272 663 313 754 q 231 440 231 572 q 270 226 231 315 q 381 88 310 136 q 547 40 453 40 q 626 46 593 40 q 697 63 660 51 l 697 204 q 694 266 697 243 q 675 300 692 289 q 617 311 658 311 q 591 314 603 311 q 578 340 579 317 q 585 361 578 351 q 607 371 593 371 q 682 368 651 369 q 760 367 713 367 q 837 368 807 367 q 910 371 867 369 q 930 361 924 371 q 936 340 936 351 q 924 314 935 317 q 897 311 913 311 q 842 299 858 311 q 823 264 826 288 q 819 204 819 240 l 819 40 q 719 0 765 15 q 620 -22 672 -15 q 499 -28 568 -28 z "},"H":{"ha":1079,"x_min":60,"x_max":1021,"o":"m 85 -4 q 65 6 71 -4 q 60 26 60 15 q 71 53 61 50 q 94 56 81 56 q 157 72 139 56 q 180 112 175 88 q 185 163 185 136 l 185 714 q 180 765 185 740 q 157 805 175 789 q 94 821 139 821 q 71 824 81 821 q 60 850 61 826 q 65 871 60 861 q 85 881 71 881 q 168 878 129 879 q 249 876 207 876 q 422 881 333 876 q 442 871 436 881 q 447 850 447 861 q 437 824 446 826 q 413 821 428 821 q 351 805 369 821 q 328 765 332 789 q 322 714 324 740 l 322 468 l 758 468 l 758 714 q 753 765 758 740 q 731 805 749 789 q 668 821 713 821 q 644 824 654 821 q 632 850 633 826 q 638 871 632 861 q 657 881 644 881 q 831 876 747 876 q 912 878 872 876 q 996 881 951 879 q 1015 871 1008 881 q 1021 850 1021 861 q 1010 824 1019 826 q 986 821 1000 821 q 924 805 943 821 q 900 765 904 789 q 894 714 896 740 l 894 163 q 900 112 896 136 q 924 72 904 88 q 986 56 943 56 q 1010 53 1000 56 q 1021 26 1019 50 q 1015 6 1021 15 q 996 -4 1008 -4 q 911 -1 951 -1 q 829 0 871 0 q 657 -4 747 0 q 638 6 644 -4 q 632 26 632 15 q 644 53 633 50 q 668 56 654 56 q 731 72 713 56 q 753 112 749 88 q 758 163 758 136 l 758 408 l 322 408 l 322 163 q 328 112 324 136 q 351 72 332 88 q 413 56 369 56 q 437 53 428 56 q 447 26 446 50 q 442 6 447 15 q 422 -4 436 -4 q 250 0 333 0 q 169 -1 208 0 q 85 -4 129 -1 z "},"I":{"ha":506,"x_min":58,"x_max":447,"o":"m 83 -4 q 64 6 69 -4 q 58 26 58 15 q 69 53 60 50 q 93 56 79 56 q 156 72 138 56 q 178 112 174 88 q 185 163 183 136 l 185 714 q 178 765 183 740 q 156 805 174 789 q 93 821 138 821 q 69 824 79 821 q 58 850 60 826 q 64 871 58 861 q 83 881 69 881 q 167 878 128 879 q 249 876 207 876 q 422 881 333 876 q 441 871 435 881 q 447 850 447 861 q 436 824 446 826 q 411 821 426 821 q 349 805 368 821 q 326 765 331 789 q 321 714 322 740 l 321 163 q 326 112 322 136 q 349 72 331 88 q 411 56 368 56 q 436 53 426 56 q 447 26 446 50 q 441 6 447 15 q 422 -4 435 -4 q 250 0 333 0 q 168 -1 208 0 q 83 -4 128 -1 z "},"Í":{"ha":506,"x_min":58,"x_max":485,"o":"m 83 -4 q 64 6 69 -4 q 58 26 58 15 q 69 53 60 50 q 93 56 79 56 q 156 72 138 56 q 178 112 174 88 q 185 163 183 136 l 185 714 q 178 765 183 740 q 156 805 174 789 q 93 821 138 821 q 69 824 79 821 q 58 850 60 826 q 64 871 58 861 q 83 881 69 881 q 167 878 128 879 q 249 876 207 876 q 422 881 333 876 q 441 871 435 881 q 447 850 447 861 q 436 824 446 826 q 411 821 426 821 q 349 805 368 821 q 326 765 331 789 q 321 714 322 740 l 321 163 q 326 112 322 136 q 349 72 331 88 q 411 56 368 56 q 436 53 426 56 q 447 26 446 50 q 441 6 447 15 q 422 -4 435 -4 q 250 0 333 0 q 168 -1 208 0 q 83 -4 128 -1 m 251 961 q 224 962 238 954 q 206 984 211 969 q 211 1008 201 999 q 251 1049 226 1024 q 305 1100 276 1074 q 358 1146 333 1126 q 394 1170 378 1161 q 425 1179 410 1179 q 461 1160 446 1179 q 470 1109 485 1133 q 424 1064 456 1085 q 337 1010 381 1036 q 251 961 293 983 z "},"Î":{"ha":506,"x_min":4,"x_max":503,"o":"m 83 -4 q 64 6 69 -4 q 58 26 58 15 q 69 53 60 50 q 93 56 79 56 q 156 72 138 56 q 178 112 174 88 q 185 163 183 136 l 185 714 q 178 765 183 740 q 156 805 174 789 q 93 821 138 821 q 69 824 79 821 q 58 850 60 826 q 64 871 58 861 q 83 881 69 881 q 167 878 128 879 q 249 876 207 876 q 422 881 333 876 q 441 871 435 881 q 447 850 447 861 q 436 824 446 826 q 411 821 426 821 q 349 805 368 821 q 326 765 331 789 q 321 714 322 740 l 321 163 q 326 112 322 136 q 349 72 331 88 q 411 56 368 56 q 436 53 426 56 q 447 26 446 50 q 441 6 447 15 q 422 -4 435 -4 q 250 0 333 0 q 168 -1 208 0 q 83 -4 128 -1 m 72 958 q 45 953 58 951 q 24 964 32 956 q 29 1007 4 986 l 213 1151 q 253 1167 232 1167 q 293 1151 274 1167 l 476 1007 q 482 964 503 985 q 460 953 474 956 q 433 958 447 951 l 253 1047 l 72 958 z "},"Ï":{"ha":506,"x_min":33,"x_max":471,"o":"m 83 -4 q 64 6 69 -4 q 58 26 58 15 q 69 53 60 50 q 93 56 79 56 q 156 72 138 56 q 178 112 174 88 q 185 163 183 136 l 185 714 q 178 765 183 740 q 156 805 174 789 q 93 821 138 821 q 69 824 79 821 q 58 850 60 826 q 64 871 58 861 q 83 881 69 881 q 167 878 128 879 q 249 876 207 876 q 422 881 333 876 q 441 871 435 881 q 447 850 447 861 q 436 824 446 826 q 411 821 426 821 q 349 805 368 821 q 326 765 331 789 q 321 714 322 740 l 321 163 q 326 112 322 136 q 349 72 331 88 q 411 56 368 56 q 436 53 426 56 q 447 26 446 50 q 441 6 447 15 q 422 -4 435 -4 q 250 0 333 0 q 168 -1 208 0 q 83 -4 128 -1 m 386 988 q 326 1013 351 988 q 300 1071 300 1038 q 326 1131 300 1107 q 388 1154 351 1154 q 447 1131 424 1154 q 471 1071 471 1107 q 447 1013 471 1038 q 386 988 422 988 m 119 988 q 59 1013 85 988 q 33 1071 33 1038 q 59 1131 33 1107 q 121 1154 85 1154 q 181 1131 157 1154 q 204 1071 204 1107 q 180 1013 204 1038 q 119 988 156 988 z "},"Ì":{"ha":506,"x_min":24,"x_max":447,"o":"m 83 -4 q 64 6 69 -4 q 58 26 58 15 q 69 53 60 50 q 93 56 79 56 q 156 72 138 56 q 178 112 174 88 q 185 163 183 136 l 185 714 q 178 765 183 740 q 156 805 174 789 q 93 821 138 821 q 69 824 79 821 q 58 850 60 826 q 64 871 58 861 q 83 881 69 881 q 167 878 128 879 q 249 876 207 876 q 422 881 333 876 q 441 871 435 881 q 447 850 447 861 q 436 824 446 826 q 411 821 426 821 q 349 805 368 821 q 326 765 331 789 q 321 714 322 740 l 321 163 q 326 112 322 136 q 349 72 331 88 q 411 56 368 56 q 436 53 426 56 q 447 26 446 50 q 441 6 447 15 q 422 -4 435 -4 q 250 0 333 0 q 168 -1 208 0 q 83 -4 128 -1 m 257 939 q 172 988 215 961 q 85 1042 129 1014 q 38 1087 53 1063 q 47 1138 24 1111 q 95 1156 71 1164 q 150 1124 119 1147 q 204 1078 176 1104 q 257 1026 232 1051 q 297 986 282 1001 q 303 962 308 976 q 285 940 299 947 q 257 939 272 932 z "},"J":{"ha":501,"x_min":15,"x_max":454,"o":"m 54 -267 q 22 -243 31 -271 q 36 -208 15 -217 q 141 -122 108 -178 q 183 19 174 -67 q 192 225 192 106 l 192 714 q 187 765 192 740 q 164 805 182 789 q 101 821 146 821 q 77 824 88 821 q 65 850 67 826 q 72 871 65 861 q 90 881 78 881 q 174 878 135 879 q 256 876 214 876 q 429 881 340 876 q 448 871 442 881 q 454 850 454 861 q 443 824 453 826 q 418 821 433 821 q 356 805 375 821 q 333 765 338 789 q 328 714 329 740 l 328 178 q 303 -24 328 68 q 218 -178 278 -115 q 54 -267 158 -242 z "},"K":{"ha":972,"x_min":60,"x_max":972,"o":"m 85 -4 q 65 6 71 -4 q 60 26 60 15 q 71 53 61 50 q 94 56 81 56 q 157 72 139 56 q 180 112 175 88 q 185 163 185 136 l 185 714 q 180 765 185 740 q 157 805 175 789 q 94 821 139 821 q 71 824 81 821 q 60 850 61 826 q 65 871 60 861 q 85 881 71 881 q 168 878 129 879 q 249 876 207 876 q 422 881 333 876 q 442 871 436 881 q 447 850 447 861 q 437 824 446 826 q 413 821 428 821 q 351 805 369 821 q 328 765 332 789 q 322 714 324 740 l 322 463 q 377 491 346 468 q 440 540 408 514 q 543 645 493 589 q 636 753 593 701 q 624 819 692 815 q 604 849 608 821 q 611 871 604 861 q 629 881 618 881 q 706 877 665 878 q 782 876 746 876 q 846 878 810 876 q 908 881 882 879 q 928 871 922 881 q 935 849 935 861 q 926 824 933 828 q 907 819 918 819 q 806 803 856 822 q 699 726 756 783 q 652 677 681 707 q 592 615 624 647 q 534 556 561 583 q 490 510 507 528 q 474 492 474 492 q 640 310 556 393 q 783 163 724 226 q 860 88 831 115 q 938 56 890 61 q 960 52 949 54 q 972 26 971 50 q 967 6 972 15 q 947 -4 961 -4 q 902 -2 918 -3 q 872 -1 886 -1 q 829 0 857 0 l 740 0 q 584 175 664 85 q 413 371 504 265 q 366 413 388 400 q 322 426 344 425 l 322 163 q 328 112 324 136 q 351 72 332 88 q 413 56 369 56 q 437 53 428 56 q 447 26 446 50 q 442 6 447 15 q 422 -4 436 -4 q 250 0 333 0 q 169 -1 208 0 q 85 -4 129 -1 z "},"L":{"ha":793,"x_min":60,"x_max":775,"o":"m 83 -4 q 65 6 71 -4 q 60 26 60 15 q 71 53 61 50 q 94 56 81 56 q 157 72 139 56 q 180 112 175 88 q 185 163 185 136 l 185 714 q 180 765 185 740 q 157 805 175 789 q 94 821 139 821 q 71 824 81 821 q 60 850 61 826 q 65 871 60 861 q 83 881 71 881 q 168 878 129 879 q 249 876 207 876 q 422 881 333 876 q 442 871 436 881 q 447 850 447 861 q 436 824 446 826 q 413 821 426 821 q 351 805 369 821 q 328 765 332 789 q 322 714 324 740 l 322 142 q 328 103 324 124 q 352 68 332 82 q 419 56 372 54 l 544 56 q 619 72 593 57 q 660 121 644 86 q 693 217 675 156 q 712 235 699 231 q 740 236 725 239 q 763 226 751 235 q 774 204 775 218 l 746 29 q 733 5 742 10 q 706 0 724 0 l 250 0 q 169 -1 208 0 q 83 -4 129 -1 z "},"M":{"ha":1235,"x_min":58,"x_max":1175,"o":"m 594 -7 q 578 -3 586 -7 q 565 7 569 0 l 253 714 l 249 714 l 251 163 q 256 112 253 136 q 278 72 260 88 q 339 56 296 56 q 364 53 354 56 q 375 26 374 50 q 369 6 375 15 q 350 -4 363 -4 q 303 -2 321 -3 q 268 -1 285 -1 q 224 0 251 0 q 156 -1 182 0 q 86 -4 131 -1 q 67 6 72 -4 q 61 26 61 15 q 72 53 63 50 q 96 56 82 56 q 158 72 140 56 q 179 112 175 88 q 183 163 183 136 l 186 714 q 176 780 186 758 q 146 810 167 801 q 93 825 125 819 q 66 832 74 829 q 58 857 58 835 q 75 883 58 881 q 114 885 92 885 q 234 874 182 885 q 325 831 286 863 q 389 738 364 800 l 628 201 l 632 201 l 906 876 l 985 876 q 1066 878 1026 876 q 1150 881 1106 879 q 1169 871 1164 881 q 1175 850 1175 861 q 1164 824 1174 826 q 1140 821 1154 821 q 1078 805 1097 821 q 1056 765 1060 789 q 1050 714 1051 740 l 1050 163 q 1056 112 1051 136 q 1078 72 1060 88 q 1140 56 1097 56 q 1164 53 1154 56 q 1175 26 1174 50 q 1169 6 1175 15 q 1150 -4 1164 -4 q 1065 -1 1106 -1 q 983 0 1025 0 q 813 -4 903 0 q 793 6 799 -4 q 788 26 788 15 q 799 53 789 50 q 822 56 808 56 q 885 72 867 56 q 908 112 903 88 q 913 163 913 136 l 913 714 l 908 714 l 622 7 q 611 -3 619 0 q 594 -7 603 -7 z "},"N":{"ha":1024,"x_min":58,"x_max":976,"o":"m 86 -4 q 67 6 72 -4 q 61 26 61 15 q 72 53 63 50 q 96 56 82 56 q 158 72 140 56 q 179 112 175 88 q 183 163 183 136 l 186 714 q 164 797 186 779 q 93 825 142 815 q 65 833 72 829 q 58 857 58 836 q 75 883 58 881 q 114 885 92 885 q 240 872 192 885 q 324 828 288 860 q 404 738 361 796 l 785 238 l 789 238 l 786 714 q 782 765 786 740 q 760 805 778 789 q 699 821 743 821 q 675 824 685 821 q 663 850 665 826 q 669 871 663 861 q 688 881 675 881 q 737 878 718 879 q 774 877 756 878 q 821 876 793 876 q 867 877 849 876 q 903 878 885 878 q 951 881 922 879 q 971 871 965 881 q 976 850 976 861 q 966 824 975 826 q 942 821 957 821 q 881 805 899 821 q 859 765 863 789 q 854 714 856 740 l 851 14 q 838 -1 850 3 q 817 -4 826 -4 q 776 14 790 -4 l 253 714 l 249 714 l 251 163 q 256 112 253 136 q 278 72 260 88 q 339 56 296 56 q 364 53 354 56 q 375 26 374 50 q 369 6 375 15 q 350 -4 363 -4 q 301 -2 321 -3 q 262 -1 281 -1 q 215 0 243 0 q 170 -1 188 0 q 135 -2 153 -1 q 86 -4 117 -3 z "},"Ñ":{"ha":1024,"x_min":58,"x_max":976,"o":"m 604 964 q 535 985 563 965 q 484 1024 507 1004 q 436 1044 461 1044 q 392 1031 418 1044 q 340 986 367 1018 q 304 978 325 971 q 292 1011 283 985 q 351 1097 310 1057 q 453 1138 392 1138 q 522 1117 493 1138 q 572 1077 550 1097 q 619 1057 594 1057 q 664 1071 638 1057 q 717 1115 690 1085 q 741 1126 726 1128 q 763 1114 756 1125 q 761 1085 769 1103 q 701 1002 742 1040 q 604 964 661 964 m 86 -4 q 67 6 72 -4 q 61 26 61 15 q 72 53 63 50 q 96 56 82 56 q 158 72 140 56 q 179 112 175 88 q 183 163 183 136 l 186 714 q 164 797 186 779 q 93 825 142 815 q 65 833 72 829 q 58 857 58 836 q 75 883 58 881 q 114 885 92 885 q 240 872 192 885 q 324 828 288 860 q 404 738 361 796 l 785 238 l 789 238 l 786 714 q 782 765 786 740 q 760 805 778 789 q 699 821 743 821 q 675 824 685 821 q 663 850 665 826 q 669 871 663 861 q 688 881 675 881 q 737 878 718 879 q 774 877 756 878 q 821 876 793 876 q 867 877 849 876 q 903 878 885 878 q 951 881 922 879 q 971 871 965 881 q 976 850 976 861 q 966 824 975 826 q 942 821 957 821 q 881 805 899 821 q 859 765 863 789 q 854 714 856 740 l 851 14 q 838 -1 850 3 q 817 -4 826 -4 q 776 14 790 -4 l 253 714 l 249 714 l 251 163 q 256 112 253 136 q 278 72 260 88 q 339 56 296 56 q 364 53 354 56 q 375 26 374 50 q 369 6 375 15 q 350 -4 363 -4 q 301 -2 321 -3 q 262 -1 281 -1 q 215 0 243 0 q 170 -1 188 0 q 135 -2 153 -1 q 86 -4 117 -3 z "},"O":{"ha":1021,"x_min":65,"x_max":956,"o":"m 508 -28 q 325 10 407 -28 q 185 111 243 47 q 96 256 126 175 q 65 426 65 338 q 105 631 65 542 q 210 781 144 719 q 353 873 275 842 q 508 904 432 904 q 695 867 613 904 q 836 765 778 829 q 925 620 894 701 q 956 451 956 539 q 915 247 956 336 q 808 97 875 158 q 663 4 742 36 q 508 -28 585 -28 m 507 33 q 668 92 606 33 q 760 245 731 150 q 790 451 790 340 q 759 645 790 556 q 665 790 728 735 q 507 844 603 844 q 348 787 410 844 q 257 635 286 729 q 228 431 228 542 q 258 235 228 326 q 350 89 288 144 q 507 33 413 33 z "},"Ó":{"ha":1021,"x_min":65,"x_max":956,"o":"m 508 -28 q 325 10 407 -28 q 185 111 243 47 q 96 256 126 175 q 65 426 65 338 q 105 631 65 542 q 210 781 144 719 q 353 873 275 842 q 508 904 432 904 q 695 867 613 904 q 836 765 778 829 q 925 620 894 701 q 956 451 956 539 q 915 247 956 336 q 808 97 875 158 q 663 4 742 36 q 508 -28 585 -28 m 507 33 q 668 92 606 33 q 760 245 731 150 q 790 451 790 340 q 759 645 790 556 q 665 790 728 735 q 507 844 603 844 q 348 787 410 844 q 257 635 286 729 q 228 431 228 542 q 258 235 228 326 q 350 89 288 144 q 507 33 413 33 m 510 961 q 483 962 496 954 q 465 984 469 969 q 469 1008 460 999 q 510 1049 485 1024 q 563 1100 535 1074 q 617 1146 592 1126 q 652 1170 636 1161 q 683 1179 668 1179 q 719 1160 704 1179 q 728 1109 743 1133 q 682 1064 714 1085 q 595 1010 639 1036 q 510 961 551 983 z "},"Ô":{"ha":1021,"x_min":65,"x_max":956,"o":"m 508 -28 q 325 10 407 -28 q 185 111 243 47 q 96 256 126 175 q 65 426 65 338 q 105 631 65 542 q 210 781 144 719 q 353 873 275 842 q 508 904 432 904 q 695 867 613 904 q 836 765 778 829 q 925 620 894 701 q 956 451 956 539 q 915 247 956 336 q 808 97 875 158 q 663 4 742 36 q 508 -28 585 -28 m 507 33 q 668 92 606 33 q 760 245 731 150 q 790 451 790 340 q 759 645 790 556 q 665 790 728 735 q 507 844 603 844 q 348 787 410 844 q 257 635 286 729 q 228 431 228 542 q 258 235 228 326 q 350 89 288 144 q 507 33 413 33 m 331 958 q 303 953 317 951 q 282 964 290 956 q 288 1007 263 986 l 471 1151 q 511 1167 490 1167 q 551 1151 532 1167 l 735 1007 q 740 964 761 985 q 719 953 732 956 q 692 958 706 951 l 511 1047 l 331 958 z "},"Ö":{"ha":1021,"x_min":65,"x_max":956,"o":"m 508 -28 q 325 10 407 -28 q 185 111 243 47 q 96 256 126 175 q 65 426 65 338 q 105 631 65 542 q 210 781 144 719 q 353 873 275 842 q 508 904 432 904 q 695 867 613 904 q 836 765 778 829 q 925 620 894 701 q 956 451 956 539 q 915 247 956 336 q 808 97 875 158 q 663 4 742 36 q 508 -28 585 -28 m 507 33 q 668 92 606 33 q 760 245 731 150 q 790 451 790 340 q 759 645 790 556 q 665 790 728 735 q 507 844 603 844 q 348 787 410 844 q 257 635 286 729 q 228 431 228 542 q 258 235 228 326 q 350 89 288 144 q 507 33 413 33 m 644 988 q 584 1013 610 988 q 558 1071 558 1038 q 584 1131 558 1107 q 646 1154 610 1154 q 706 1131 682 1154 q 729 1071 729 1107 q 705 1013 729 1038 q 644 988 681 988 m 378 988 q 317 1013 343 988 q 292 1071 292 1038 q 317 1131 292 1107 q 379 1154 343 1154 q 439 1131 415 1154 q 463 1071 463 1107 q 438 1013 463 1038 q 378 988 414 988 z "},"Ò":{"ha":1021,"x_min":65,"x_max":956,"o":"m 508 -28 q 325 10 407 -28 q 185 111 243 47 q 96 256 126 175 q 65 426 65 338 q 105 631 65 542 q 210 781 144 719 q 353 873 275 842 q 508 904 432 904 q 695 867 613 904 q 836 765 778 829 q 925 620 894 701 q 956 451 956 539 q 915 247 956 336 q 808 97 875 158 q 663 4 742 36 q 508 -28 585 -28 m 507 33 q 668 92 606 33 q 760 245 731 150 q 790 451 790 340 q 759 645 790 556 q 665 790 728 735 q 507 844 603 844 q 348 787 410 844 q 257 635 286 729 q 228 431 228 542 q 258 235 228 326 q 350 89 288 144 q 507 33 413 33 m 515 939 q 431 988 474 961 q 343 1042 388 1014 q 297 1087 311 1063 q 306 1138 282 1111 q 353 1156 329 1164 q 408 1124 378 1147 q 463 1078 435 1104 q 515 1026 490 1051 q 556 986 540 1001 q 562 962 567 976 q 544 940 557 947 q 515 939 531 932 z "},"Ø":{"ha":1021,"x_min":65,"x_max":956,"o":"m 508 -28 q 347 1 419 -28 q 218 78 275 29 l 143 -7 q 122 -15 135 -17 q 103 -8 110 -14 q 94 9 94 -1 q 100 26 94 19 l 179 117 q 94 260 124 179 q 65 426 65 340 q 105 631 65 542 q 210 781 144 719 q 353 873 275 842 q 508 904 432 904 q 665 878 594 904 q 792 806 736 851 l 871 894 q 892 903 879 904 q 911 896 904 903 q 920 879 919 890 q 914 861 921 868 l 832 769 q 924 623 892 706 q 956 451 956 540 q 915 247 956 336 q 808 97 875 158 q 663 4 742 36 q 508 -28 585 -28 m 265 213 l 721 725 q 633 813 686 781 q 507 844 579 844 q 348 787 410 844 q 257 635 286 729 q 228 431 228 542 q 265 213 228 308 m 507 33 q 668 92 606 33 q 760 245 731 150 q 790 451 790 340 q 780 569 790 513 q 747 674 769 626 l 292 160 q 380 68 326 103 q 507 33 433 33 z "},"Õ":{"ha":1021,"x_min":65,"x_max":956,"o":"m 603 964 q 533 985 561 965 q 483 1024 506 1004 q 435 1044 460 1044 q 391 1031 417 1044 q 339 986 365 1018 q 303 978 324 971 q 290 1011 282 985 q 349 1097 308 1057 q 451 1138 390 1138 q 520 1117 492 1138 q 571 1077 549 1097 q 618 1057 593 1057 q 663 1071 636 1057 q 715 1115 689 1085 q 740 1126 725 1128 q 761 1114 754 1125 q 760 1085 768 1103 q 700 1002 740 1040 q 603 964 660 964 m 508 -28 q 325 10 407 -28 q 185 111 243 47 q 96 256 126 175 q 65 426 65 338 q 105 631 65 542 q 210 781 144 719 q 353 873 275 842 q 508 904 432 904 q 695 867 613 904 q 836 765 778 829 q 925 620 894 701 q 956 451 956 539 q 915 247 956 336 q 808 97 875 158 q 663 4 742 36 q 508 -28 585 -28 m 507 33 q 668 92 606 33 q 760 245 731 150 q 790 451 790 340 q 759 645 790 556 q 665 790 728 735 q 507 844 603 844 q 348 787 410 844 q 257 635 286 729 q 228 431 228 542 q 258 235 228 326 q 350 89 288 144 q 507 33 413 33 z "},"Œ":{"ha":1400,"x_min":68,"x_max":1353,"o":"m 540 0 q 301 53 408 0 q 131 206 194 107 q 68 443 68 306 q 111 636 68 554 q 225 772 154 718 q 384 851 296 825 q 561 876 472 876 l 1260 876 q 1285 869 1275 876 q 1296 843 1296 863 l 1300 649 q 1287 628 1300 635 q 1263 621 1274 621 q 1235 627 1247 621 q 1219 646 1222 633 q 1197 747 1210 708 q 1158 802 1183 785 q 1083 821 1132 819 l 897 821 l 897 468 l 1149 468 q 1165 457 1160 467 q 1169 436 1169 447 q 1165 417 1169 426 q 1149 408 1160 408 l 897 408 l 897 146 q 903 106 899 128 q 927 69 907 85 q 994 56 947 54 l 1122 56 q 1197 72 1171 57 q 1238 121 1222 86 q 1271 217 1253 156 q 1290 235 1276 231 q 1318 236 1303 239 q 1341 226 1329 235 q 1351 204 1353 218 l 1324 29 q 1310 5 1319 10 q 1283 0 1301 0 l 540 0 m 571 56 l 669 56 q 732 72 714 56 q 755 112 750 88 q 760 163 760 136 l 760 714 q 755 765 760 740 q 732 805 750 789 q 669 821 714 821 l 560 821 q 397 785 471 821 q 277 665 322 749 q 232 442 232 582 q 274 238 232 325 q 393 103 317 151 q 571 56 469 56 z "},"P":{"ha":839,"x_min":58,"x_max":806,"o":"m 83 -4 q 65 6 71 -4 q 58 26 58 15 q 70 53 60 50 q 94 56 81 56 q 157 72 139 56 q 180 112 175 88 q 185 163 185 136 l 185 714 q 180 765 185 740 q 157 805 175 789 q 94 821 139 821 q 70 824 81 821 q 58 850 60 826 q 65 871 58 861 q 83 881 71 881 q 168 878 128 879 q 250 876 208 876 l 458 876 q 527 872 485 876 q 617 856 569 868 q 708 815 665 843 q 778 742 751 788 q 806 626 806 696 q 776 508 806 561 q 697 418 746 456 q 585 360 647 381 q 460 340 524 340 q 393 344 429 340 q 321 363 357 349 l 321 163 q 326 112 322 136 q 349 72 331 88 q 411 56 368 56 q 436 53 426 56 q 447 26 446 50 q 441 6 447 15 q 422 -4 435 -4 q 249 0 333 0 q 167 -1 207 0 q 83 -4 128 -1 m 419 403 q 491 413 451 403 q 567 448 531 424 q 628 515 604 472 q 651 622 651 557 q 624 734 651 693 q 555 794 596 775 q 474 819 514 814 q 408 825 433 825 q 356 818 375 825 q 328 788 336 811 q 321 718 321 765 l 321 418 q 361 408 335 413 q 419 403 388 403 z "},"Þ":{"ha":842,"x_min":58,"x_max":806,"o":"m 83 -4 q 64 6 69 -4 q 58 26 58 15 q 69 53 60 50 q 93 56 79 56 q 156 72 138 56 q 178 112 174 88 q 185 163 183 136 l 185 714 q 178 765 183 740 q 156 805 174 789 q 93 821 138 821 q 69 824 79 821 q 58 850 60 826 q 64 871 58 861 q 83 881 69 881 q 167 878 128 879 q 249 876 207 876 q 422 881 333 876 q 441 871 435 881 q 447 850 447 861 q 436 824 446 826 q 411 821 426 821 q 351 807 371 821 q 327 772 332 793 q 321 725 322 750 l 460 725 q 538 719 493 725 q 628 697 582 713 q 715 653 675 682 q 781 578 756 624 q 806 465 806 532 q 755 315 806 376 q 624 221 704 253 q 457 188 544 189 q 388 193 422 188 q 321 211 353 199 l 321 163 q 326 112 322 136 q 349 72 331 88 q 411 56 368 56 q 436 53 426 56 q 447 26 446 50 q 441 6 447 15 q 422 -4 435 -4 q 250 0 333 0 q 168 -1 208 0 q 83 -4 128 -1 m 419 251 q 491 260 451 251 q 567 291 531 268 q 628 355 604 314 q 651 461 651 396 q 628 567 651 528 q 568 626 604 606 q 492 653 532 646 q 421 661 453 660 l 321 661 l 321 265 q 419 251 351 251 z "},"Q":{"ha":1024,"x_min":67,"x_max":1156,"o":"m 967 -278 q 845 -256 896 -278 q 751 -199 794 -233 q 663 -126 708 -164 q 557 -58 617 -89 q 451 -22 513 -36 q 335 12 392 -8 q 239 63 278 32 q 112 222 157 126 q 67 426 67 318 q 106 631 67 542 q 211 781 146 719 q 355 873 276 842 q 510 904 433 904 q 697 867 614 904 q 838 765 779 829 q 928 620 897 701 q 958 451 958 539 q 922 258 958 346 q 820 108 885 171 q 672 13 756 46 q 652 6 665 10 q 615 1 639 3 l 615 -1 q 683 -21 653 -6 q 809 -99 751 -54 q 919 -176 867 -143 q 1021 -208 971 -208 q 1058 -192 1047 -206 q 1069 -160 1069 -178 q 1045 -99 1069 -128 q 978 -68 1021 -69 q 993 -26 974 -49 q 1057 -4 1013 -4 q 1096 -15 1072 -4 q 1138 -51 1119 -26 q 1156 -115 1156 -75 q 1127 -194 1156 -158 q 1055 -253 1099 -231 q 967 -278 1011 -276 m 508 29 q 636 63 582 29 q 725 157 690 97 q 776 292 760 217 q 793 451 793 368 q 762 645 793 556 q 667 790 731 735 q 508 844 604 844 q 349 787 411 844 q 259 635 288 729 q 231 431 231 542 q 260 235 231 326 q 352 86 290 143 q 508 29 414 29 z "},"R":{"ha":932,"x_min":60,"x_max":931,"o":"m 85 -4 q 65 6 71 -4 q 60 26 60 15 q 71 53 61 50 q 94 56 81 56 q 157 72 139 56 q 180 112 175 88 q 185 163 185 136 l 185 713 q 180 764 185 739 q 157 805 175 789 q 94 821 139 821 q 71 824 81 821 q 60 850 61 826 q 65 871 60 861 q 85 881 71 881 q 169 878 129 879 q 250 876 208 876 l 489 876 q 672 842 601 875 q 774 757 742 808 q 806 650 806 706 q 747 511 806 576 q 581 418 688 446 q 688 251 633 335 q 813 93 742 167 q 851 68 832 78 q 896 56 869 58 q 918 52 907 54 q 931 26 929 50 q 925 6 931 15 q 906 -4 919 -4 q 859 -2 876 -3 q 825 -1 842 -1 q 781 0 808 0 q 684 40 724 11 q 607 121 644 69 q 535 228 568 174 q 469 333 501 282 q 433 376 451 363 q 363 389 414 389 l 322 389 l 322 163 q 328 112 324 136 q 351 72 332 88 q 413 56 369 56 q 436 53 426 56 q 447 26 446 50 q 442 6 447 15 q 422 -4 436 -4 q 249 0 333 0 q 168 -1 207 0 q 85 -4 129 -1 m 322 443 l 444 443 q 556 463 515 443 q 618 513 597 482 q 645 576 639 543 q 651 638 651 610 q 631 726 651 683 q 560 797 611 769 q 419 825 510 825 q 341 802 360 825 q 322 710 322 779 l 322 443 z "},"S":{"ha":757,"x_min":68,"x_max":693,"o":"m 368 -28 q 146 23 224 -28 q 68 172 68 74 q 102 255 68 222 q 190 288 136 288 q 241 269 226 286 q 256 244 256 253 q 243 235 256 242 q 218 213 231 229 q 206 164 206 197 q 244 65 206 101 q 368 28 283 28 q 470 51 428 28 q 535 110 513 74 q 557 186 557 147 q 524 282 557 244 q 437 347 490 319 q 324 399 383 374 q 210 456 264 424 q 122 535 157 488 q 86 656 88 583 q 124 798 85 743 q 232 878 163 853 q 386 904 301 904 q 509 886 449 904 q 609 830 569 868 q 649 729 649 792 q 615 647 649 679 q 526 614 581 614 q 476 633 490 617 q 461 657 461 649 q 478 667 461 661 q 511 690 494 674 q 528 738 528 706 q 488 819 528 790 q 388 847 447 847 q 256 805 297 847 q 215 710 215 763 q 243 626 215 658 q 326 564 271 594 q 453 502 389 531 q 572 439 517 474 q 660 352 626 404 q 693 218 693 300 q 649 92 693 147 q 532 4 606 36 q 368 -28 458 -28 z "},"T":{"ha":833,"x_min":36,"x_max":799,"o":"m 249 -4 q 229 6 235 -4 q 224 26 224 15 q 235 53 225 50 q 258 56 244 56 q 321 72 303 56 q 344 112 339 88 q 349 163 349 136 l 349 825 l 253 825 q 179 805 206 824 q 140 747 153 786 q 118 644 128 707 q 101 626 117 632 q 69 619 85 619 q 48 626 60 619 q 36 647 36 633 l 40 843 q 51 869 40 863 q 78 876 63 876 l 757 876 q 783 869 772 876 q 793 843 793 863 l 799 647 q 787 626 799 633 q 764 619 775 619 q 735 626 750 619 q 717 644 719 632 q 694 747 707 707 q 655 805 681 786 q 581 825 629 824 l 486 825 l 486 163 q 492 112 488 136 q 515 72 496 88 q 576 56 533 56 q 600 53 590 56 q 611 26 610 50 q 606 6 611 15 q 586 -4 600 -4 q 502 -1 542 -1 q 422 0 463 0 q 249 -4 339 0 z "},"U":{"ha":1000,"x_min":38,"x_max":975,"o":"m 499 -28 q 313 11 388 -28 q 200 111 238 50 q 163 240 163 172 l 163 714 q 158 765 163 740 q 135 805 153 789 q 72 821 117 821 q 49 824 58 821 q 38 850 39 826 q 43 871 38 861 q 63 881 49 881 q 146 878 107 879 q 226 876 185 876 q 400 881 311 876 q 419 871 414 881 q 425 850 425 861 q 417 825 424 829 q 397 821 410 821 q 330 806 350 821 q 306 767 310 792 q 300 714 301 743 l 300 281 q 308 205 300 244 q 338 131 315 165 q 403 76 360 97 q 521 54 447 54 q 666 85 615 54 q 736 164 717 117 q 756 261 756 211 l 756 626 q 749 759 756 718 q 719 810 742 800 q 649 821 696 821 q 625 824 635 821 q 614 850 615 826 q 619 871 614 861 q 639 881 625 881 q 718 878 683 879 q 794 876 753 876 q 871 878 836 876 q 950 881 906 879 q 969 871 964 881 q 975 850 975 861 q 967 825 974 829 q 947 821 960 821 q 887 817 910 821 q 852 795 864 813 q 837 740 840 778 q 833 635 833 701 l 833 247 q 802 121 833 174 q 720 35 771 68 q 611 -12 669 3 q 499 -28 553 -28 z "},"Ú":{"ha":1000,"x_min":38,"x_max":975,"o":"m 499 -28 q 313 11 388 -28 q 200 111 238 50 q 163 240 163 172 l 163 714 q 158 765 163 740 q 135 805 153 789 q 72 821 117 821 q 49 824 58 821 q 38 850 39 826 q 43 871 38 861 q 63 881 49 881 q 146 878 107 879 q 226 876 185 876 q 400 881 311 876 q 419 871 414 881 q 425 850 425 861 q 417 825 424 829 q 397 821 410 821 q 330 806 350 821 q 306 767 310 792 q 300 714 301 743 l 300 281 q 308 205 300 244 q 338 131 315 165 q 403 76 360 97 q 521 54 447 54 q 666 85 615 54 q 736 164 717 117 q 756 261 756 211 l 756 626 q 749 759 756 718 q 719 810 742 800 q 649 821 696 821 q 625 824 635 821 q 614 850 615 826 q 619 871 614 861 q 639 881 625 881 q 718 878 683 879 q 794 876 753 876 q 871 878 836 876 q 950 881 906 879 q 969 871 964 881 q 975 850 975 861 q 967 825 974 829 q 947 821 960 821 q 887 817 910 821 q 852 795 864 813 q 837 740 840 778 q 833 635 833 701 l 833 247 q 802 121 833 174 q 720 35 771 68 q 611 -12 669 3 q 499 -28 553 -28 m 525 961 q 498 962 511 954 q 480 984 485 969 q 485 1008 475 999 q 525 1049 500 1024 q 578 1100 550 1074 q 632 1146 607 1126 q 667 1170 651 1161 q 699 1179 683 1179 q 735 1160 719 1179 q 744 1109 758 1133 q 697 1064 729 1085 q 610 1010 654 1036 q 525 961 567 983 z "},"Û":{"ha":1000,"x_min":38,"x_max":975,"o":"m 499 -28 q 313 11 388 -28 q 200 111 238 50 q 163 240 163 172 l 163 714 q 158 765 163 740 q 135 805 153 789 q 72 821 117 821 q 49 824 58 821 q 38 850 39 826 q 43 871 38 861 q 63 881 49 881 q 146 878 107 879 q 226 876 185 876 q 400 881 311 876 q 419 871 414 881 q 425 850 425 861 q 417 825 424 829 q 397 821 410 821 q 330 806 350 821 q 306 767 310 792 q 300 714 301 743 l 300 281 q 308 205 300 244 q 338 131 315 165 q 403 76 360 97 q 521 54 447 54 q 666 85 615 54 q 736 164 717 117 q 756 261 756 211 l 756 626 q 749 759 756 718 q 719 810 742 800 q 649 821 696 821 q 625 824 635 821 q 614 850 615 826 q 619 871 614 861 q 639 881 625 881 q 718 878 683 879 q 794 876 753 876 q 871 878 836 876 q 950 881 906 879 q 969 871 964 881 q 975 850 975 861 q 967 825 974 829 q 947 821 960 821 q 887 817 910 821 q 852 795 864 813 q 837 740 840 778 q 833 635 833 701 l 833 247 q 802 121 833 174 q 720 35 771 68 q 611 -12 669 3 q 499 -28 553 -28 m 346 958 q 319 953 332 951 q 297 964 306 956 q 303 1007 278 986 l 486 1151 q 526 1167 506 1167 q 567 1151 547 1167 l 750 1007 q 756 964 776 985 q 734 953 747 956 q 707 958 721 951 l 526 1047 l 346 958 z "},"Ü":{"ha":1000,"x_min":38,"x_max":975,"o":"m 499 -28 q 313 11 388 -28 q 200 111 238 50 q 163 240 163 172 l 163 714 q 158 765 163 740 q 135 805 153 789 q 72 821 117 821 q 49 824 58 821 q 38 850 39 826 q 43 871 38 861 q 63 881 49 881 q 146 878 107 879 q 226 876 185 876 q 400 881 311 876 q 419 871 414 881 q 425 850 425 861 q 417 825 424 829 q 397 821 410 821 q 330 806 350 821 q 306 767 310 792 q 300 714 301 743 l 300 281 q 308 205 300 244 q 338 131 315 165 q 403 76 360 97 q 521 54 447 54 q 666 85 615 54 q 736 164 717 117 q 756 261 756 211 l 756 626 q 749 759 756 718 q 719 810 742 800 q 649 821 696 821 q 625 824 635 821 q 614 850 615 826 q 619 871 614 861 q 639 881 625 881 q 718 878 683 879 q 794 876 753 876 q 871 878 836 876 q 950 881 906 879 q 969 871 964 881 q 975 850 975 861 q 967 825 974 829 q 947 821 960 821 q 887 817 910 821 q 852 795 864 813 q 837 740 840 778 q 833 635 833 701 l 833 247 q 802 121 833 174 q 720 35 771 68 q 611 -12 669 3 q 499 -28 553 -28 m 660 988 q 599 1013 625 988 q 574 1071 574 1038 q 599 1131 574 1107 q 661 1154 625 1154 q 721 1131 697 1154 q 744 1071 744 1107 q 720 1013 744 1038 q 660 988 696 988 m 393 988 q 333 1013 358 988 q 307 1071 307 1038 q 333 1131 307 1107 q 394 1154 358 1154 q 454 1131 431 1154 q 478 1071 478 1107 q 453 1013 478 1038 q 393 988 429 988 z "},"Ù":{"ha":1000,"x_min":38,"x_max":975,"o":"m 499 -28 q 313 11 388 -28 q 200 111 238 50 q 163 240 163 172 l 163 714 q 158 765 163 740 q 135 805 153 789 q 72 821 117 821 q 49 824 58 821 q 38 850 39 826 q 43 871 38 861 q 63 881 49 881 q 146 878 107 879 q 226 876 185 876 q 400 881 311 876 q 419 871 414 881 q 425 850 425 861 q 417 825 424 829 q 397 821 410 821 q 330 806 350 821 q 306 767 310 792 q 300 714 301 743 l 300 281 q 308 205 300 244 q 338 131 315 165 q 403 76 360 97 q 521 54 447 54 q 666 85 615 54 q 736 164 717 117 q 756 261 756 211 l 756 626 q 749 759 756 718 q 719 810 742 800 q 649 821 696 821 q 625 824 635 821 q 614 850 615 826 q 619 871 614 861 q 639 881 625 881 q 718 878 683 879 q 794 876 753 876 q 871 878 836 876 q 950 881 906 879 q 969 871 964 881 q 975 850 975 861 q 967 825 974 829 q 947 821 960 821 q 887 817 910 821 q 852 795 864 813 q 837 740 840 778 q 833 635 833 701 l 833 247 q 802 121 833 174 q 720 35 771 68 q 611 -12 669 3 q 499 -28 553 -28 m 531 939 q 446 988 489 961 q 358 1042 403 1014 q 312 1087 326 1063 q 321 1138 297 1111 q 369 1156 344 1164 q 424 1124 393 1147 q 478 1078 450 1104 q 531 1026 506 1051 q 571 986 556 1001 q 577 962 582 976 q 559 940 572 947 q 531 939 546 932 z "},"V":{"ha":900,"x_min":13,"x_max":926,"o":"m 422 -14 q 408 26 422 -14 q 370 130 393 65 q 319 272 347 194 q 262 426 290 349 q 210 567 233 503 q 173 669 188 631 q 158 708 158 708 q 114 790 136 765 q 47 824 92 815 q 20 831 28 828 q 13 856 13 833 q 29 881 13 879 q 68 883 46 883 q 213 849 161 882 q 294 738 264 817 l 496 196 l 500 196 l 692 753 q 693 809 707 797 q 631 821 679 821 q 607 824 617 821 q 596 850 597 826 q 601 871 596 861 q 619 881 607 881 q 697 878 664 879 q 771 876 729 876 q 817 877 799 876 q 853 878 835 878 q 901 881 872 879 q 921 871 915 881 q 926 850 926 861 q 916 824 925 826 q 892 821 907 821 q 808 801 839 821 q 756 726 778 782 q 741 688 756 728 q 703 583 726 649 q 651 438 679 517 q 593 279 622 358 q 540 133 564 200 q 502 26 517 67 q 488 -14 488 -14 l 422 -14 z "},"W":{"ha":1297,"x_min":11,"x_max":1321,"o":"m 388 -14 l 157 708 q 113 790 135 765 q 46 824 90 815 q 19 831 26 828 q 11 856 11 833 q 28 881 11 879 q 67 883 44 883 q 211 849 160 882 q 293 738 263 817 l 451 229 l 457 229 l 626 876 l 699 876 l 925 229 l 929 229 l 1086 753 q 1085 809 1097 797 q 1025 821 1074 821 q 1001 824 1011 821 q 990 850 992 826 q 996 871 990 861 q 1014 881 1001 881 q 1091 878 1058 879 q 1165 876 1124 876 q 1211 877 1193 876 q 1248 878 1229 878 q 1296 881 1267 879 q 1315 871 1310 881 q 1321 850 1321 861 q 1310 824 1319 826 q 1286 821 1301 821 q 1199 801 1233 821 q 1150 726 1165 781 l 922 -14 l 857 -14 l 632 649 l 453 -14 l 388 -14 z "},"X":{"ha":907,"x_min":10,"x_max":915,"o":"m 35 -4 q 15 6 21 -4 q 10 26 10 15 q 21 53 11 50 q 44 56 31 56 q 103 64 81 56 q 145 93 125 72 q 190 150 165 114 l 392 436 l 214 715 q 147 791 179 768 q 71 824 115 814 q 44 831 51 828 q 36 856 36 833 q 53 881 36 879 q 92 883 69 883 q 203 869 157 883 q 287 824 250 856 q 360 739 324 792 l 474 553 l 611 753 q 620 810 642 799 q 550 821 599 821 q 526 824 536 821 q 515 850 517 826 q 521 871 515 861 q 539 881 526 881 q 616 878 583 879 q 690 876 649 876 q 759 878 732 876 q 831 881 786 879 q 850 871 844 881 q 856 850 856 861 q 845 824 854 826 q 821 821 836 821 q 763 813 786 821 q 719 783 739 804 q 675 726 700 763 l 513 496 l 754 151 q 806 86 778 117 q 881 56 835 56 q 905 53 896 56 q 915 26 914 50 q 910 6 915 15 q 892 -4 904 -4 q 807 -1 847 -1 q 725 0 767 0 q 556 -4 646 0 q 536 6 542 -4 q 531 26 531 15 q 542 53 532 50 q 565 56 551 56 q 618 76 607 56 q 610 124 629 97 l 432 378 l 254 124 q 246 67 224 79 q 315 56 268 56 q 340 53 331 56 q 350 26 349 50 q 344 6 350 15 q 326 -4 339 -4 q 249 -1 282 -1 q 175 0 217 0 q 106 -1 133 0 q 35 -4 79 -1 z "},"Y":{"ha":863,"x_min":6,"x_max":876,"o":"m 264 -4 q 244 6 250 -4 q 239 26 239 15 q 250 53 240 50 q 274 56 260 56 q 336 72 318 56 q 359 112 354 88 q 364 163 364 136 l 364 336 q 349 381 364 346 q 312 464 335 417 q 264 561 289 511 q 217 652 239 611 q 183 715 196 693 q 119 791 154 768 q 40 824 85 814 q 13 831 21 828 q 6 856 6 833 q 22 881 6 879 q 61 883 39 883 q 220 853 160 883 q 328 739 281 822 q 401 593 368 664 q 474 449 433 522 l 478 449 l 632 753 q 638 810 656 800 q 571 821 619 821 q 547 824 557 821 q 536 850 538 826 q 542 871 536 861 q 560 881 547 881 q 637 878 604 879 q 711 876 669 876 q 780 878 753 876 q 851 881 807 879 q 871 871 865 881 q 876 850 876 861 q 866 824 875 826 q 842 821 857 821 q 756 798 789 821 q 696 726 722 775 l 539 431 q 518 386 526 404 q 506 349 510 368 q 501 297 501 329 l 501 163 q 507 112 503 136 q 530 72 511 88 q 592 56 549 56 q 616 53 607 56 q 626 26 625 50 q 621 6 626 15 q 603 -4 615 -4 q 518 -1 558 -1 q 436 0 478 0 q 264 -4 354 0 z "},"Ý":{"ha":863,"x_min":6,"x_max":876,"o":"m 264 -4 q 244 6 250 -4 q 239 26 239 15 q 250 53 240 50 q 274 56 260 56 q 336 72 318 56 q 359 112 354 88 q 364 163 364 136 l 364 336 q 349 381 364 346 q 312 464 335 417 q 264 561 289 511 q 217 652 239 611 q 183 715 196 693 q 119 791 154 768 q 40 824 85 814 q 13 831 21 828 q 6 856 6 833 q 22 881 6 879 q 61 883 39 883 q 220 853 160 883 q 328 739 281 822 q 401 593 368 664 q 474 449 433 522 l 478 449 l 632 753 q 638 810 656 800 q 571 821 619 821 q 547 824 557 821 q 536 850 538 826 q 542 871 536 861 q 560 881 547 881 q 637 878 604 879 q 711 876 669 876 q 780 878 753 876 q 851 881 807 879 q 871 871 865 881 q 876 850 876 861 q 866 824 875 826 q 842 821 857 821 q 756 798 789 821 q 696 726 722 775 l 539 431 q 518 386 526 404 q 506 349 510 368 q 501 297 501 329 l 501 163 q 507 112 503 136 q 530 72 511 88 q 592 56 549 56 q 616 53 607 56 q 626 26 625 50 q 621 6 626 15 q 603 -4 615 -4 q 518 -1 558 -1 q 436 0 478 0 q 264 -4 354 0 m 422 961 q 395 962 408 954 q 377 984 382 969 q 382 1008 372 999 q 422 1049 397 1024 q 476 1100 447 1074 q 529 1146 504 1126 q 565 1170 549 1161 q 596 1179 581 1179 q 632 1160 617 1179 q 641 1109 656 1133 q 594 1064 626 1085 q 508 1010 551 1036 q 422 961 464 983 z "},"Z":{"ha":863,"x_min":47,"x_max":808,"o":"m 72 -4 q 53 6 60 -4 q 47 26 47 15 q 60 53 50 50 q 83 56 69 56 q 122 61 107 56 q 152 85 138 67 q 186 139 167 103 l 497 715 q 524 790 522 768 q 504 816 525 811 q 443 821 483 821 l 292 821 q 219 805 244 819 q 178 756 193 790 q 143 660 163 721 q 126 642 139 646 q 97 640 113 639 q 76 651 86 643 q 68 672 67 658 l 96 847 q 109 872 100 867 q 136 876 118 876 l 613 876 q 783 881 694 876 q 803 871 797 881 q 808 850 808 861 q 798 824 807 826 q 774 821 789 822 q 696 785 722 818 q 650 715 669 751 l 346 139 q 335 103 339 122 q 347 70 332 83 q 408 56 361 57 l 572 56 q 647 72 621 57 q 688 121 672 86 q 722 217 704 156 q 740 235 726 231 q 768 236 753 239 q 789 226 779 235 q 797 204 799 218 l 769 29 q 756 5 765 10 q 729 0 747 0 l 239 0 q 157 -1 197 0 q 72 -4 117 -1 z "},"a":{"ha":696,"x_min":47,"x_max":668,"o":"m 233 -17 q 98 32 149 -17 q 47 149 47 81 q 84 260 47 219 q 181 319 121 300 q 313 346 242 339 q 453 357 385 353 l 453 467 q 420 569 453 532 q 310 606 388 606 q 237 581 271 606 q 203 508 203 556 q 214 471 203 486 q 236 447 225 456 q 247 436 247 439 q 231 416 247 431 q 188 401 215 401 q 121 433 144 401 q 97 504 97 465 q 130 588 97 557 q 214 632 163 618 q 318 646 265 646 q 440 631 381 646 q 537 572 499 615 q 575 443 575 529 l 575 119 q 582 86 576 106 q 603 52 588 67 q 647 38 619 38 q 663 34 657 38 q 668 15 668 31 q 654 -4 668 3 q 622 -14 640 -11 q 592 -17 604 -17 q 500 13 540 -17 q 453 96 460 43 q 362 12 422 40 q 233 -17 301 -17 m 278 58 q 365 82 325 58 q 428 147 404 106 q 453 238 453 188 l 453 317 q 249 271 310 307 q 188 153 188 235 q 278 58 188 58 z "},"á":{"ha":696,"x_min":47,"x_max":668,"o":"m 233 -17 q 98 32 149 -17 q 47 149 47 81 q 84 260 47 219 q 181 319 121 300 q 313 346 242 339 q 453 357 385 353 l 453 467 q 420 569 453 532 q 310 606 388 606 q 237 581 271 606 q 203 508 203 556 q 214 471 203 486 q 236 447 225 456 q 247 436 247 439 q 231 416 247 431 q 188 401 215 401 q 121 433 144 401 q 97 504 97 465 q 130 588 97 557 q 214 632 163 618 q 318 646 265 646 q 440 631 381 646 q 537 572 499 615 q 575 443 575 529 l 575 119 q 582 86 576 106 q 603 52 588 67 q 647 38 619 38 q 663 34 657 38 q 668 15 668 31 q 654 -4 668 3 q 622 -14 640 -11 q 592 -17 604 -17 q 500 13 540 -17 q 453 96 460 43 q 362 12 422 40 q 233 -17 301 -17 m 278 58 q 365 82 325 58 q 428 147 404 106 q 453 238 453 188 l 453 317 q 249 271 310 307 q 188 153 188 235 q 278 58 188 58 m 282 735 q 268 753 272 740 q 272 781 264 767 l 376 971 q 408 999 388 990 q 453 996 429 1008 q 485 958 476 983 q 475 913 493 933 l 333 747 q 306 731 319 732 q 282 735 292 729 z "},"â":{"ha":696,"x_min":47,"x_max":668,"o":"m 233 -17 q 98 32 149 -17 q 47 149 47 81 q 84 260 47 219 q 181 319 121 300 q 313 346 242 339 q 453 357 385 353 l 453 467 q 420 569 453 532 q 310 606 388 606 q 237 581 271 606 q 203 508 203 556 q 214 471 203 486 q 236 447 225 456 q 247 436 247 439 q 231 416 247 431 q 188 401 215 401 q 121 433 144 401 q 97 504 97 465 q 130 588 97 557 q 214 632 163 618 q 318 646 265 646 q 440 631 381 646 q 537 572 499 615 q 575 443 575 529 l 575 119 q 582 86 576 106 q 603 52 588 67 q 647 38 619 38 q 663 34 657 38 q 668 15 668 31 q 654 -4 668 3 q 622 -14 640 -11 q 592 -17 604 -17 q 500 13 540 -17 q 453 96 460 43 q 362 12 422 40 q 233 -17 301 -17 m 278 58 q 365 82 325 58 q 428 147 404 106 q 453 238 453 188 l 453 317 q 249 271 310 307 q 188 153 188 235 q 278 58 188 58 m 146 721 q 133 738 138 726 q 138 763 128 749 l 279 968 q 313 986 292 986 q 332 983 322 986 q 349 968 342 979 l 490 763 q 495 738 500 749 q 482 721 490 726 q 463 717 474 717 q 435 731 451 718 q 388 778 417 746 q 314 867 358 811 q 242 778 271 811 q 193 731 213 746 q 165 717 176 718 q 146 721 154 717 z "},"ä":{"ha":696,"x_min":47,"x_max":668,"o":"m 233 -17 q 98 32 149 -17 q 47 149 47 81 q 84 260 47 219 q 181 319 121 300 q 313 346 242 339 q 453 357 385 353 l 453 467 q 420 569 453 532 q 310 606 388 606 q 237 581 271 606 q 203 508 203 556 q 214 471 203 486 q 236 447 225 456 q 247 436 247 439 q 231 416 247 431 q 188 401 215 401 q 121 433 144 401 q 97 504 97 465 q 130 588 97 557 q 214 632 163 618 q 318 646 265 646 q 440 631 381 646 q 537 572 499 615 q 575 443 575 529 l 575 119 q 582 86 576 106 q 603 52 588 67 q 647 38 619 38 q 663 34 657 38 q 668 15 668 31 q 654 -4 668 3 q 622 -14 640 -11 q 592 -17 604 -17 q 500 13 540 -17 q 453 96 460 43 q 362 12 422 40 q 233 -17 301 -17 m 278 58 q 365 82 325 58 q 428 147 404 106 q 453 238 453 188 l 453 317 q 249 271 310 307 q 188 153 188 235 q 278 58 188 58 m 442 760 q 381 785 407 760 q 356 843 356 810 q 381 903 356 879 q 443 926 407 926 q 503 903 479 926 q 526 843 526 879 q 502 785 526 810 q 442 760 478 760 m 201 760 q 141 785 167 760 q 115 843 115 810 q 141 903 115 879 q 203 926 167 926 q 263 903 239 926 q 286 843 286 879 q 262 785 286 810 q 201 760 238 760 z "},"à":{"ha":696,"x_min":47,"x_max":668,"o":"m 233 -17 q 98 32 149 -17 q 47 149 47 81 q 84 260 47 219 q 181 319 121 300 q 313 346 242 339 q 453 357 385 353 l 453 467 q 420 569 453 532 q 310 606 388 606 q 237 581 271 606 q 203 508 203 556 q 214 471 203 486 q 236 447 225 456 q 247 436 247 439 q 231 416 247 431 q 188 401 215 401 q 121 433 144 401 q 97 504 97 465 q 130 588 97 557 q 214 632 163 618 q 318 646 265 646 q 440 631 381 646 q 537 572 499 615 q 575 443 575 529 l 575 119 q 582 86 576 106 q 603 52 588 67 q 647 38 619 38 q 663 34 657 38 q 668 15 668 31 q 654 -4 668 3 q 622 -14 640 -11 q 592 -17 604 -17 q 500 13 540 -17 q 453 96 460 43 q 362 12 422 40 q 233 -17 301 -17 m 278 58 q 365 82 325 58 q 428 147 404 106 q 453 238 453 188 l 453 317 q 249 271 310 307 q 188 153 188 235 q 278 58 188 58 m 360 707 q 336 703 350 701 q 308 719 322 706 l 167 885 q 157 931 149 906 q 189 968 165 956 q 234 972 213 981 q 265 943 256 963 l 369 753 q 374 726 378 739 q 360 707 369 713 z "},"å":{"ha":696,"x_min":47,"x_max":668,"o":"m 233 -17 q 98 32 149 -17 q 47 149 47 81 q 84 260 47 219 q 181 319 121 300 q 313 346 242 339 q 453 357 385 353 l 453 467 q 420 569 453 532 q 310 606 388 606 q 237 581 271 606 q 203 508 203 556 q 214 471 203 486 q 236 447 225 456 q 247 436 247 439 q 231 416 247 431 q 188 401 215 401 q 121 433 144 401 q 97 504 97 465 q 130 588 97 557 q 214 632 163 618 q 318 646 265 646 q 440 631 381 646 q 537 572 499 615 q 575 443 575 529 l 575 119 q 582 86 576 106 q 603 52 588 67 q 647 38 619 38 q 663 34 657 38 q 668 15 668 31 q 654 -4 668 3 q 622 -14 640 -11 q 592 -17 604 -17 q 500 13 540 -17 q 453 96 460 43 q 362 12 422 40 q 233 -17 301 -17 m 278 58 q 365 82 325 58 q 428 147 404 106 q 453 238 453 188 l 453 317 q 249 271 310 307 q 188 153 188 235 q 278 58 188 58 m 322 729 q 211 765 253 729 q 169 861 169 801 q 322 997 169 997 q 434 961 396 997 q 472 861 472 925 q 432 765 472 801 q 322 729 392 729 m 322 781 q 370 803 358 781 q 382 861 382 826 q 369 925 382 901 q 322 949 357 949 q 275 924 290 949 q 260 861 260 899 q 322 781 260 781 z "},"ã":{"ha":696,"x_min":47,"x_max":668,"o":"m 233 -17 q 98 32 149 -17 q 47 149 47 81 q 84 260 47 219 q 181 319 121 300 q 313 346 242 339 q 453 357 385 353 l 453 467 q 420 569 453 532 q 310 606 388 606 q 237 581 271 606 q 203 508 203 556 q 214 471 203 486 q 236 447 225 456 q 247 436 247 439 q 231 416 247 431 q 188 401 215 401 q 121 433 144 401 q 97 504 97 465 q 130 588 97 557 q 214 632 163 618 q 318 646 265 646 q 440 631 381 646 q 537 572 499 615 q 575 443 575 529 l 575 119 q 582 86 576 106 q 603 52 588 67 q 647 38 619 38 q 663 34 657 38 q 668 15 668 31 q 654 -4 668 3 q 622 -14 640 -11 q 592 -17 604 -17 q 500 13 540 -17 q 453 96 460 43 q 362 12 422 40 q 233 -17 301 -17 m 278 58 q 365 82 325 58 q 428 147 404 106 q 453 238 453 188 l 453 317 q 249 271 310 307 q 188 153 188 235 q 278 58 188 58 m 383 769 q 317 790 344 771 q 269 830 290 810 q 224 850 249 850 q 183 837 207 850 q 132 792 158 824 q 98 783 118 776 q 86 817 78 790 q 143 903 104 863 q 239 943 182 943 q 306 923 279 943 q 353 883 332 903 q 399 863 375 863 q 440 876 415 863 q 490 921 465 890 q 515 932 501 933 q 535 919 528 931 q 533 890 542 908 q 477 808 515 846 q 383 769 439 769 z "},"æ":{"ha":1074,"x_min":47,"x_max":1022,"o":"m 219 -17 q 133 6 172 -17 q 71 65 94 28 q 47 149 47 103 q 81 247 47 208 q 165 306 114 285 q 273 338 217 328 q 378 351 329 347 q 453 357 426 354 l 453 467 q 420 569 453 532 q 310 606 388 606 q 237 581 271 606 q 203 508 203 556 q 214 471 203 486 q 236 447 225 456 q 247 436 247 439 q 231 416 247 431 q 188 401 215 401 q 121 433 144 401 q 97 504 97 465 q 130 588 97 557 q 214 632 163 618 q 318 646 265 646 q 443 631 382 646 q 539 567 504 615 q 630 624 578 603 q 743 646 682 646 q 935 580 871 646 q 1010 413 1000 514 q 983 349 1010 364 q 913 333 956 333 l 575 333 q 597 190 575 253 q 668 90 619 126 q 794 53 717 53 q 894 78 853 53 q 975 165 936 103 q 1006 167 986 179 q 1019 149 1017 161 q 1017 129 1022 138 q 908 22 974 61 q 758 -17 843 -17 q 585 26 656 -17 q 476 138 514 69 q 462 110 469 124 q 446 85 454 97 q 383 29 424 51 q 299 -5 343 7 q 219 -17 256 -17 m 575 386 l 801 386 q 855 399 835 386 q 876 444 875 413 q 844 551 876 504 q 743 597 811 597 q 627 542 674 597 q 575 386 581 486 m 278 58 q 365 82 325 58 q 428 147 404 106 q 453 238 453 188 l 453 315 q 253 267 319 297 q 188 167 188 238 q 213 90 188 122 q 278 58 238 58 z "},"b":{"ha":779,"x_min":4,"x_max":722,"o":"m 135 -19 q 115 -11 122 -19 q 108 8 108 -3 l 108 819 q 106 866 108 844 q 90 901 104 888 q 38 914 76 914 q 15 917 25 914 q 4 942 4 921 q 26 967 4 963 q 124 986 90 976 q 176 1003 158 996 q 208 1011 194 1010 q 227 1007 219 1013 q 235 985 235 1001 l 235 565 l 239 565 q 332 626 281 607 q 431 646 383 646 q 578 604 513 646 q 683 490 644 563 q 722 319 722 417 q 678 149 722 225 q 561 28 633 72 q 404 -17 489 -17 q 190 51 281 -17 l 183 51 q 165 6 174 31 q 135 -19 156 -19 m 392 31 q 528 107 475 31 q 581 314 581 183 q 560 439 581 379 q 497 538 540 499 q 382 576 453 576 q 299 560 335 576 q 235 513 263 543 l 235 146 q 258 99 239 126 q 310 51 276 72 q 392 31 343 31 z "},"c":{"ha":660,"x_min":57,"x_max":618,"o":"m 360 -17 q 137 74 217 -17 q 57 315 57 165 q 105 485 61 411 q 222 601 149 558 q 383 646 294 643 q 483 634 432 646 q 567 591 533 622 q 601 501 601 560 q 576 427 601 461 q 507 393 551 393 q 460 408 476 393 q 443 431 443 424 q 455 442 443 433 q 478 467 467 451 q 489 507 489 483 q 457 572 489 551 q 385 594 425 593 q 287 569 324 594 q 231 503 250 544 q 205 414 211 463 q 199 319 199 365 q 222 183 199 243 q 289 88 246 122 q 392 53 332 53 q 494 79 453 53 q 571 157 536 106 q 600 160 581 171 q 614 144 610 154 q 611 125 618 135 q 497 22 565 60 q 360 -17 429 -17 z "},"ç":{"ha":660,"x_min":57,"x_max":618,"o":"m 215 -289 q 194 -278 201 -289 q 188 -256 188 -268 q 196 -231 188 -236 q 215 -225 204 -225 q 289 -223 254 -225 q 347 -210 324 -221 q 369 -175 369 -200 q 348 -144 369 -153 q 290 -133 326 -136 q 276 -128 283 -132 q 268 -101 268 -124 l 268 -4 q 112 107 167 22 q 57 315 57 192 q 105 485 61 411 q 222 601 149 558 q 383 646 294 643 q 434 643 403 646 q 499 629 465 640 q 561 595 533 618 q 599 531 589 572 q 598 468 607 500 q 566 415 589 436 q 507 393 543 393 q 460 408 476 393 q 443 431 443 424 q 455 442 443 433 q 478 467 467 451 q 489 507 489 483 q 457 572 489 551 q 385 594 425 593 q 287 569 324 594 q 231 503 250 544 q 205 414 211 463 q 199 319 199 365 q 222 183 199 243 q 289 88 246 122 q 392 53 332 53 q 494 79 453 53 q 571 157 536 106 q 600 160 581 171 q 614 144 610 154 q 611 125 618 135 q 497 22 565 60 q 360 -17 429 -17 q 348 -17 354 -17 q 336 -15 342 -17 l 336 -57 q 399 -66 368 -57 q 451 -96 431 -75 q 471 -154 471 -117 q 400 -258 471 -226 q 215 -289 329 -289 z "},"d":{"ha":806,"x_min":57,"x_max":801,"o":"m 349 -17 q 204 25 271 -17 q 97 142 138 67 q 57 315 57 217 q 98 477 57 401 q 212 599 139 553 q 378 646 285 646 q 465 635 422 646 q 539 607 508 625 l 543 607 l 543 819 q 541 866 543 844 q 525 901 539 888 q 472 914 511 914 q 449 917 460 914 q 439 942 439 921 q 461 967 439 963 q 559 986 525 976 q 611 1003 593 996 q 643 1011 629 1010 q 662 1007 654 1013 q 669 985 669 1001 l 669 128 q 778 46 669 46 q 797 38 793 46 q 801 24 801 31 q 778 0 801 4 l 557 -15 q 546 -7 547 -15 q 544 13 544 1 l 544 68 l 540 68 q 453 8 506 32 q 349 -17 401 -17 m 396 53 q 483 74 449 53 q 543 122 518 96 l 543 489 q 517 537 536 513 q 467 578 499 561 q 392 596 436 596 q 256 520 311 596 q 200 308 200 444 q 222 184 200 243 q 286 89 243 125 q 396 53 329 53 z "},"ð":{"ha":782,"x_min":58,"x_max":701,"o":"m 376 -17 q 208 28 279 -17 q 97 144 136 72 q 58 299 58 215 q 87 444 58 381 q 162 549 115 507 q 265 612 208 590 q 376 632 321 633 q 479 610 442 631 q 550 563 517 589 l 556 564 q 514 711 546 646 q 443 832 482 776 l 308 753 q 288 761 297 750 q 277 787 279 772 q 285 807 275 801 l 410 878 q 369 921 393 900 q 321 960 346 942 q 306 977 308 969 q 306 994 304 985 q 316 1009 308 1003 q 336 1008 324 1015 q 381 983 356 1000 q 432 947 407 965 q 472 913 457 928 l 592 985 q 611 979 601 990 q 624 953 621 968 q 618 932 628 939 l 513 871 q 615 720 572 808 q 680 528 658 632 q 696 317 701 425 q 663 171 693 233 q 587 67 633 108 q 485 4 540 25 q 376 -17 431 -17 m 376 35 q 484 73 444 35 q 541 176 524 111 q 558 317 558 240 q 540 450 558 390 q 482 545 522 510 q 376 581 442 581 q 268 543 308 581 q 211 442 228 506 q 194 301 194 379 q 212 169 194 229 q 269 72 229 108 q 376 35 310 35 z "},"e":{"ha":697,"x_min":57,"x_max":646,"o":"m 382 -17 q 202 29 275 -17 q 93 151 129 75 q 57 318 57 228 q 78 437 57 379 q 140 542 100 494 q 238 618 181 590 q 367 646 294 646 q 559 580 494 646 q 633 413 624 514 q 606 349 633 364 q 536 333 579 333 l 199 333 q 221 190 199 253 q 291 90 243 126 q 418 53 339 53 q 518 78 476 53 q 599 165 560 103 q 629 167 610 179 q 643 149 640 161 q 640 129 646 138 q 532 22 597 61 q 382 -17 467 -17 m 199 386 l 425 386 q 478 399 458 386 q 500 444 499 413 q 467 551 500 504 q 367 597 435 597 q 251 542 297 597 q 199 386 204 486 z "},"é":{"ha":697,"x_min":57,"x_max":646,"o":"m 382 -17 q 202 29 275 -17 q 93 151 129 75 q 57 318 57 228 q 78 437 57 379 q 140 542 100 494 q 238 618 181 590 q 367 646 294 646 q 559 580 494 646 q 633 413 624 514 q 606 349 633 364 q 536 333 579 333 l 199 333 q 221 190 199 253 q 291 90 243 126 q 418 53 339 53 q 518 78 476 53 q 599 165 560 103 q 629 167 610 179 q 643 149 640 161 q 640 129 646 138 q 532 22 597 61 q 382 -17 467 -17 m 199 386 l 425 386 q 478 399 458 386 q 500 444 499 413 q 467 551 500 504 q 367 597 435 597 q 251 542 297 597 q 199 386 204 486 m 325 735 q 311 753 315 740 q 315 781 307 767 l 419 971 q 451 999 431 990 q 496 996 472 1008 q 528 958 519 983 q 518 913 536 933 l 376 747 q 349 731 363 732 q 325 735 335 729 z "},"ê":{"ha":697,"x_min":57,"x_max":646,"o":"m 382 -17 q 202 29 275 -17 q 93 151 129 75 q 57 318 57 228 q 78 437 57 379 q 140 542 100 494 q 238 618 181 590 q 367 646 294 646 q 559 580 494 646 q 633 413 624 514 q 606 349 633 364 q 536 333 579 333 l 199 333 q 221 190 199 253 q 291 90 243 126 q 418 53 339 53 q 518 78 476 53 q 599 165 560 103 q 629 167 610 179 q 643 149 640 161 q 640 129 646 138 q 532 22 597 61 q 382 -17 467 -17 m 199 386 l 425 386 q 478 399 458 386 q 500 444 499 413 q 467 551 500 504 q 367 597 435 597 q 251 542 297 597 q 199 386 204 486 m 189 721 q 176 738 181 726 q 181 763 171 749 l 322 968 q 356 986 335 986 q 375 983 365 986 q 392 968 385 979 l 533 763 q 538 738 543 749 q 525 721 533 726 q 506 717 517 717 q 478 731 494 718 q 431 778 460 746 q 357 867 401 811 q 285 778 314 811 q 236 731 256 746 q 208 717 219 718 q 189 721 197 717 z "},"ë":{"ha":697,"x_min":57,"x_max":646,"o":"m 382 -17 q 202 29 275 -17 q 93 151 129 75 q 57 318 57 228 q 78 437 57 379 q 140 542 100 494 q 238 618 181 590 q 367 646 294 646 q 559 580 494 646 q 633 413 624 514 q 606 349 633 364 q 536 333 579 333 l 199 333 q 221 190 199 253 q 291 90 243 126 q 418 53 339 53 q 518 78 476 53 q 599 165 560 103 q 629 167 610 179 q 643 149 640 161 q 640 129 646 138 q 532 22 597 61 q 382 -17 467 -17 m 199 386 l 425 386 q 478 399 458 386 q 500 444 499 413 q 467 551 500 504 q 367 597 435 597 q 251 542 297 597 q 199 386 204 486 m 485 760 q 424 785 450 760 q 399 843 399 810 q 424 903 399 879 q 486 926 450 926 q 546 903 522 926 q 569 843 569 879 q 545 785 569 810 q 485 760 521 760 m 244 760 q 184 785 210 760 q 158 843 158 810 q 184 903 158 879 q 246 926 210 926 q 306 903 282 926 q 329 843 329 879 q 305 785 329 810 q 244 760 281 760 z "},"è":{"ha":697,"x_min":57,"x_max":646,"o":"m 382 -17 q 202 29 275 -17 q 93 151 129 75 q 57 318 57 228 q 78 437 57 379 q 140 542 100 494 q 238 618 181 590 q 367 646 294 646 q 559 580 494 646 q 633 413 624 514 q 606 349 633 364 q 536 333 579 333 l 199 333 q 221 190 199 253 q 291 90 243 126 q 418 53 339 53 q 518 78 476 53 q 599 165 560 103 q 629 167 610 179 q 643 149 640 161 q 640 129 646 138 q 532 22 597 61 q 382 -17 467 -17 m 199 386 l 425 386 q 478 399 458 386 q 500 444 499 413 q 467 551 500 504 q 367 597 435 597 q 251 542 297 597 q 199 386 204 486 m 403 707 q 379 703 393 701 q 351 719 365 706 l 210 885 q 200 931 192 906 q 232 968 208 956 q 277 972 256 981 q 308 943 299 963 l 413 753 q 417 726 421 739 q 403 707 413 713 z "},"ʃ":{"ha":482,"x_min":-3,"x_max":485,"o":"m 24 -303 q 0 -278 -3 -303 q 8 -261 1 -265 q 28 -256 14 -257 q 126 -220 93 -244 q 169 -160 158 -196 q 181 -79 181 -124 l 181 792 q 249 960 181 901 q 458 1019 318 1019 q 482 994 485 1019 q 474 978 481 982 q 454 972 468 975 q 356 938 389 963 q 311 876 322 913 q 300 796 300 840 l 300 -75 q 232 -244 300 -185 q 24 -303 164 -303 z "},"f":{"ha":476,"x_min":44,"x_max":594,"o":"m 81 -4 q 64 5 69 -4 q 58 24 58 14 q 68 47 60 44 q 90 49 76 49 q 144 62 129 49 q 160 97 158 75 q 161 143 161 119 l 161 575 l 68 575 q 51 584 57 575 q 44 603 44 593 q 55 627 46 625 q 78 629 64 629 l 161 629 l 161 688 q 190 853 161 781 q 277 968 219 925 q 418 1013 335 1011 q 501 996 461 1013 q 568 949 542 979 q 594 876 594 919 q 571 805 594 838 q 503 772 547 772 q 458 788 474 772 q 442 808 442 803 q 453 822 442 813 q 477 849 465 831 q 489 893 489 867 q 466 945 489 924 q 408 967 443 967 q 338 939 363 967 q 303 869 313 911 q 291 785 293 828 q 289 713 289 742 l 289 629 l 425 629 q 449 627 439 629 q 460 603 458 625 q 453 584 460 593 q 436 575 447 575 l 289 575 l 289 143 q 295 82 289 103 q 323 55 301 61 q 388 49 344 49 q 410 47 401 49 q 419 24 418 44 q 415 5 419 14 q 399 -4 410 -4 q 310 -1 358 -1 q 225 0 261 0 q 154 -1 188 0 q 81 -4 121 -1 z "},"g":{"ha":726,"x_min":38,"x_max":715,"o":"m 331 -303 q 38 -136 38 -303 q 67 -55 38 -90 q 144 -19 96 -19 q 197 -37 176 -19 q 218 -61 218 -54 q 208 -74 218 -64 q 187 -100 197 -83 q 176 -144 176 -117 q 360 -251 176 -251 q 522 -215 464 -251 q 579 -106 579 -179 q 553 -44 579 -65 q 485 -15 528 -24 q 392 -5 443 -7 q 288 -1 340 -3 q 192 7 236 0 q 110 40 143 15 q 78 119 78 64 q 115 209 78 171 q 225 247 151 247 q 106 332 136 282 q 76 435 76 382 q 110 542 76 494 q 205 619 144 590 q 344 647 265 647 q 426 641 383 647 q 499 619 468 635 l 689 656 q 710 646 704 657 q 715 622 715 635 q 710 587 715 604 q 694 569 704 569 l 557 575 l 557 572 q 597 510 581 549 q 614 436 614 471 q 576 321 614 369 q 478 247 538 272 q 356 221 419 221 l 294 221 q 190 207 222 221 q 157 161 157 193 q 174 123 157 136 q 238 107 192 110 l 428 100 q 640 53 576 94 q 703 -71 703 11 q 656 -197 703 -144 q 526 -276 610 -249 q 331 -303 442 -303 m 344 261 q 449 306 408 261 q 489 436 489 351 q 448 559 489 514 q 343 604 407 604 q 241 560 282 604 q 200 439 200 517 q 241 308 200 354 q 344 261 282 261 z "},"h":{"ha":818,"x_min":32,"x_max":797,"o":"m 54 -4 q 38 5 43 -4 q 32 24 32 14 q 42 47 33 44 q 64 49 51 49 q 117 62 103 49 q 134 97 132 75 q 136 143 136 119 l 136 821 q 134 867 136 846 q 118 902 132 889 q 65 915 104 915 q 42 919 53 915 q 32 943 32 922 q 54 968 32 964 q 152 988 118 978 q 204 1005 186 997 q 236 1013 222 1013 q 255 1008 247 1013 q 263 986 263 1003 l 263 539 l 265 539 q 322 590 293 565 q 391 630 351 614 q 489 646 431 646 q 639 589 583 646 q 694 439 694 532 l 694 143 q 697 97 694 119 q 713 62 699 75 q 765 49 728 49 q 788 47 779 49 q 797 24 796 44 q 792 5 797 14 q 776 -4 788 -4 q 701 -1 736 -1 q 631 0 667 0 q 560 -1 593 0 q 486 -4 526 -1 q 469 5 475 -4 q 464 24 464 14 q 474 47 465 44 q 496 49 482 49 q 549 62 535 49 q 565 97 564 75 q 567 143 567 119 l 567 438 q 525 538 567 507 q 435 569 483 569 q 351 552 388 569 q 293 513 315 535 q 263 474 271 490 l 263 143 q 265 97 263 119 q 281 62 267 75 q 333 49 296 49 q 356 47 347 49 q 365 24 364 44 q 360 5 365 14 q 344 -4 356 -4 q 269 -1 304 -1 q 199 0 235 0 q 128 -1 161 0 q 54 -4 94 -1 z "},"i":{"ha":411,"x_min":46,"x_max":381,"o":"m 68 -4 q 52 5 58 -4 q 46 24 46 14 q 57 47 49 44 q 79 49 65 49 q 132 62 118 49 q 148 97 146 75 q 150 143 150 119 l 150 461 q 148 508 150 486 q 132 542 146 529 q 79 556 118 556 q 56 559 67 556 q 46 583 46 563 q 68 608 46 604 q 166 628 132 618 q 218 644 200 638 q 250 653 236 651 q 269 649 261 654 q 276 626 276 643 l 276 143 q 278 97 276 119 q 295 62 281 75 q 349 49 310 49 q 370 47 361 49 q 381 24 379 44 q 375 5 381 14 q 358 -4 369 -4 q 284 -1 318 -1 q 213 0 250 0 q 142 -1 175 0 q 68 -4 108 -1 m 206 807 q 140 831 167 807 q 114 892 114 856 q 146 949 114 924 q 218 974 178 974 q 275 949 253 974 q 297 888 297 925 q 271 831 297 854 q 206 807 244 807 z "},"ı":{"ha":411,"x_min":46,"x_max":381,"o":"m 68 -4 q 52 5 58 -4 q 46 24 46 14 q 57 47 49 44 q 79 49 65 49 q 132 62 118 49 q 148 97 146 75 q 150 143 150 119 l 150 461 q 148 508 150 486 q 132 542 146 529 q 79 556 118 556 q 56 559 67 556 q 46 583 46 563 q 68 608 46 604 q 166 628 132 618 q 218 644 200 638 q 250 653 236 651 q 269 649 261 654 q 276 626 276 643 l 276 143 q 278 97 276 119 q 295 62 281 75 q 349 49 310 49 q 370 47 361 49 q 381 24 379 44 q 375 5 381 14 q 358 -4 369 -4 q 284 -1 318 -1 q 213 0 250 0 q 142 -1 175 0 q 68 -4 108 -1 z "},"í":{"ha":411,"x_min":46,"x_max":381,"o":"m 68 -4 q 52 5 58 -4 q 46 24 46 14 q 57 47 49 44 q 79 49 65 49 q 132 62 118 49 q 148 97 146 75 q 150 143 150 119 l 150 461 q 148 508 150 486 q 132 542 146 529 q 79 556 118 556 q 56 559 67 556 q 46 583 46 563 q 68 608 46 604 q 166 628 132 618 q 218 644 200 638 q 250 653 236 651 q 269 649 261 654 q 276 626 276 643 l 276 143 q 278 97 276 119 q 295 62 281 75 q 349 49 310 49 q 370 47 361 49 q 381 24 379 44 q 375 5 381 14 q 358 -4 369 -4 q 284 -1 318 -1 q 213 0 250 0 q 142 -1 175 0 q 68 -4 108 -1 m 167 735 q 153 753 157 740 q 157 781 149 767 l 261 971 q 293 999 272 990 q 338 996 314 1008 q 369 958 361 983 q 360 913 378 933 l 218 747 q 190 731 204 732 q 167 735 176 729 z "},"î":{"ha":411,"x_min":13,"x_max":385,"o":"m 68 -4 q 52 5 58 -4 q 46 24 46 14 q 57 47 49 44 q 79 49 65 49 q 132 62 118 49 q 148 97 146 75 q 150 143 150 119 l 150 461 q 148 508 150 486 q 132 542 146 529 q 79 556 118 556 q 56 559 67 556 q 46 583 46 563 q 68 608 46 604 q 166 628 132 618 q 218 644 200 638 q 250 653 236 651 q 269 649 261 654 q 276 626 276 643 l 276 143 q 278 97 276 119 q 295 62 281 75 q 349 49 310 49 q 370 47 361 49 q 381 24 379 44 q 375 5 381 14 q 358 -4 369 -4 q 284 -1 318 -1 q 213 0 250 0 q 142 -1 175 0 q 68 -4 108 -1 m 31 721 q 17 738 22 726 q 22 763 13 749 l 164 968 q 197 986 176 986 q 217 983 207 986 q 233 968 226 979 l 375 763 q 380 738 385 749 q 367 721 375 726 q 347 717 358 717 q 319 731 336 718 q 272 778 301 746 q 199 867 243 811 q 126 778 156 811 q 78 731 97 746 q 50 717 61 718 q 31 721 39 717 z "},"ï":{"ha":411,"x_min":0,"x_max":411,"o":"m 68 -4 q 52 5 58 -4 q 46 24 46 14 q 57 47 49 44 q 79 49 65 49 q 132 62 118 49 q 148 97 146 75 q 150 143 150 119 l 150 461 q 148 508 150 486 q 132 542 146 529 q 79 556 118 556 q 56 559 67 556 q 46 583 46 563 q 68 608 46 604 q 166 628 132 618 q 218 644 200 638 q 250 653 236 651 q 269 649 261 654 q 276 626 276 643 l 276 143 q 278 97 276 119 q 295 62 281 75 q 349 49 310 49 q 370 47 361 49 q 381 24 379 44 q 375 5 381 14 q 358 -4 369 -4 q 284 -1 318 -1 q 213 0 250 0 q 142 -1 175 0 q 68 -4 108 -1 m 326 760 q 266 785 292 760 q 240 843 240 810 q 266 903 240 879 q 328 926 292 926 q 388 903 364 926 q 411 843 411 879 q 387 785 411 810 q 326 760 363 760 m 86 760 q 26 785 51 760 q 0 843 0 810 q 26 903 0 879 q 88 926 51 926 q 147 903 124 926 q 171 843 171 879 q 147 785 171 810 q 86 760 122 760 z "},"ì":{"ha":411,"x_min":33,"x_max":381,"o":"m 68 -4 q 52 5 58 -4 q 46 24 46 14 q 57 47 49 44 q 79 49 65 49 q 132 62 118 49 q 148 97 146 75 q 150 143 150 119 l 150 461 q 148 508 150 486 q 132 542 146 529 q 79 556 118 556 q 56 559 67 556 q 46 583 46 563 q 68 608 46 604 q 166 628 132 618 q 218 644 200 638 q 250 653 236 651 q 269 649 261 654 q 276 626 276 643 l 276 143 q 278 97 276 119 q 295 62 281 75 q 349 49 310 49 q 370 47 361 49 q 381 24 379 44 q 375 5 381 14 q 358 -4 369 -4 q 284 -1 318 -1 q 213 0 250 0 q 142 -1 175 0 q 68 -4 108 -1 m 244 707 q 221 703 235 701 q 193 719 207 706 l 51 885 q 42 931 33 906 q 74 968 50 956 q 119 972 97 981 q 150 943 140 963 l 254 753 q 258 726 263 739 q 244 707 254 713 z "},"j":{"ha":417,"x_min":24,"x_max":328,"o":"m 53 -285 q 25 -265 35 -287 q 24 -245 24 -254 q 36 -232 25 -236 q 135 -149 104 -203 q 174 -13 165 -96 q 183 182 183 69 l 183 461 q 181 508 183 486 q 165 542 179 529 q 113 556 151 556 q 90 559 100 556 q 79 583 79 563 q 101 608 79 604 q 199 628 165 618 q 251 644 233 638 q 283 653 269 651 q 302 649 294 654 q 310 626 310 643 l 310 138 q 287 -54 310 33 q 208 -201 264 -142 q 53 -285 151 -261 m 236 807 q 171 831 197 807 q 144 892 144 856 q 176 949 144 924 q 249 974 208 974 q 306 949 283 974 q 328 888 328 925 q 301 831 328 854 q 236 807 275 807 z "},"ȷ":{"ha":417,"x_min":24,"x_max":310,"o":"m 53 -285 q 25 -265 35 -287 q 24 -245 24 -254 q 36 -232 25 -236 q 135 -149 104 -203 q 174 -13 165 -96 q 183 182 183 69 l 183 461 q 181 508 183 486 q 165 542 179 529 q 113 556 151 556 q 90 559 100 556 q 79 583 79 563 q 101 608 79 604 q 199 628 165 618 q 251 644 233 638 q 283 653 269 651 q 302 649 294 654 q 310 626 310 643 l 310 138 q 287 -54 310 33 q 208 -201 264 -142 q 53 -285 151 -261 z "},"k":{"ha":788,"x_min":32,"x_max":789,"o":"m 54 -4 q 38 5 43 -4 q 32 24 32 14 q 42 47 33 44 q 64 49 51 49 q 117 62 103 49 q 134 97 132 75 q 136 143 136 119 l 136 819 q 134 866 136 844 q 118 901 132 888 q 65 914 104 914 q 42 917 53 914 q 32 942 32 921 q 54 967 32 963 q 152 986 118 976 q 204 1003 186 996 q 236 1011 222 1010 q 255 1007 247 1013 q 263 985 263 1001 l 263 350 q 363 401 324 363 l 479 521 q 498 542 488 531 q 510 563 508 553 q 499 578 513 572 q 446 581 485 583 q 429 606 431 583 q 435 625 429 617 q 451 633 442 633 q 528 631 483 632 q 604 629 574 629 q 651 631 628 629 q 697 633 674 632 q 714 625 708 633 q 719 606 719 617 q 712 584 718 588 q 696 581 706 581 q 608 561 642 581 q 533 499 575 542 l 417 379 q 461 325 433 357 q 520 258 489 293 q 579 191 551 222 q 624 140 607 160 q 691 74 664 97 q 758 49 718 51 q 779 45 769 47 q 789 24 789 43 q 784 5 789 14 q 767 -4 779 -4 q 735 -2 747 -3 q 707 -1 722 -1 q 663 0 692 0 q 582 0 635 0 q 470 126 533 53 q 344 272 407 200 q 309 301 331 288 q 263 311 288 314 l 263 143 q 265 97 263 119 q 281 62 267 75 q 333 49 296 49 q 356 47 347 49 q 367 24 365 44 q 361 5 367 14 q 344 -4 356 -4 q 269 -1 304 -1 q 199 0 235 0 q 128 -1 161 0 q 54 -4 94 -1 z "},"l":{"ha":397,"x_min":32,"x_max":367,"o":"m 54 -4 q 38 5 44 -4 q 32 24 32 14 q 42 47 33 44 q 64 49 51 49 q 117 62 103 49 q 134 97 132 75 q 136 143 136 119 l 136 821 q 134 867 136 846 q 118 902 132 889 q 65 915 104 915 q 42 919 53 915 q 32 943 32 922 q 54 968 32 964 q 152 988 118 978 q 204 1004 186 997 q 236 1013 222 1011 q 255 1008 247 1014 q 263 986 263 1003 l 263 143 q 265 97 263 119 q 281 62 267 75 q 335 49 296 49 q 356 47 347 49 q 367 24 365 44 q 361 5 367 14 q 344 -4 356 -4 q 270 -1 304 -1 q 199 0 236 0 q 128 -1 161 0 q 54 -4 94 -1 z "},"m":{"ha":1244,"x_min":47,"x_max":1225,"o":"m 69 -4 q 53 5 60 -4 q 47 24 47 14 q 58 47 49 44 q 79 49 67 49 q 133 62 118 49 q 149 97 147 75 q 151 143 151 119 l 151 461 q 149 508 151 486 q 133 542 147 529 q 81 556 119 556 q 58 559 68 556 q 47 583 47 563 q 69 608 47 604 q 167 628 133 618 q 219 644 201 638 q 250 653 236 651 q 269 649 261 654 q 276 626 276 643 l 276 539 l 281 539 q 335 590 308 565 q 399 630 361 614 q 494 646 436 646 q 611 617 563 646 q 682 539 660 589 l 685 539 q 743 590 713 565 q 815 630 774 614 q 915 646 857 646 q 1065 589 1010 646 q 1121 439 1121 532 l 1121 143 q 1123 97 1121 119 q 1140 62 1125 75 q 1193 49 1154 49 q 1215 47 1206 49 q 1225 24 1224 44 q 1219 5 1225 14 q 1203 -4 1214 -4 q 1128 -1 1163 -1 q 1057 0 1094 0 q 986 -1 1019 0 q 913 -4 953 -1 q 896 5 901 -4 q 890 24 890 14 q 901 47 892 44 q 922 49 910 49 q 976 62 961 49 q 992 97 990 75 q 994 143 994 119 l 994 438 q 974 513 994 483 q 924 556 954 542 q 861 569 893 569 q 781 552 814 569 q 728 513 747 535 q 700 474 708 490 l 700 143 q 701 97 700 119 q 715 62 701 75 q 767 49 728 49 q 789 47 781 49 q 799 24 797 44 q 793 5 799 14 q 776 -4 788 -4 q 704 -1 736 -1 q 635 0 672 0 q 567 -1 599 0 q 496 -4 536 -1 q 479 5 485 -4 q 474 24 474 14 q 483 47 475 44 q 506 49 492 49 q 558 62 544 49 q 572 97 571 75 q 572 143 572 119 l 572 438 q 531 538 572 507 q 440 569 489 569 q 358 552 392 569 q 306 513 325 535 q 278 474 286 490 l 278 143 q 280 97 278 119 q 297 62 282 75 q 350 49 311 49 q 372 47 363 49 q 382 24 381 44 q 376 5 382 14 q 360 -4 371 -4 q 285 -1 319 -1 q 214 0 251 0 q 143 -1 176 0 q 69 -4 110 -1 z "},"n":{"ha":832,"x_min":46,"x_max":813,"o":"m 68 -4 q 52 5 58 -4 q 46 24 46 14 q 57 47 49 44 q 79 49 65 49 q 132 62 118 49 q 148 97 146 75 q 150 143 150 119 l 150 461 q 148 508 150 486 q 132 542 146 529 q 79 556 118 556 q 56 559 67 556 q 46 583 46 563 q 68 608 46 604 q 166 628 132 618 q 217 644 200 638 q 249 653 235 651 q 267 649 260 654 q 275 626 275 643 l 275 539 l 279 539 q 336 590 307 565 q 405 630 365 614 q 503 646 444 646 q 653 589 597 646 q 708 439 708 532 l 708 143 q 710 97 708 119 q 727 62 713 75 q 781 49 742 49 q 802 47 793 49 q 813 24 811 44 q 807 5 813 14 q 790 -4 801 -4 q 716 -1 750 -1 q 644 0 682 0 q 574 -1 607 0 q 500 -4 540 -1 q 484 5 490 -4 q 478 24 478 14 q 488 47 479 44 q 510 49 497 49 q 563 62 549 49 q 580 97 578 75 q 582 143 582 119 l 582 438 q 562 513 582 483 q 511 556 542 542 q 449 569 481 569 q 365 552 401 569 q 307 513 329 535 q 276 474 285 490 l 276 143 q 278 97 276 119 q 295 62 281 75 q 349 49 310 49 q 370 47 361 49 q 381 24 379 44 q 375 5 381 14 q 358 -4 369 -4 q 284 -1 318 -1 q 213 0 250 0 q 142 -1 175 0 q 68 -4 108 -1 z "},"ñ":{"ha":832,"x_min":46,"x_max":813,"o":"m 68 -4 q 52 5 58 -4 q 46 24 46 14 q 57 47 49 44 q 79 49 65 49 q 132 62 118 49 q 148 97 146 75 q 150 143 150 119 l 150 461 q 148 508 150 486 q 132 542 146 529 q 79 556 118 556 q 56 559 67 556 q 46 583 46 563 q 68 608 46 604 q 166 628 132 618 q 217 644 200 638 q 249 653 235 651 q 267 649 260 654 q 275 626 275 643 l 275 539 l 279 539 q 336 590 307 565 q 405 630 365 614 q 503 646 444 646 q 653 589 597 646 q 708 439 708 532 l 708 143 q 710 97 708 119 q 727 62 713 75 q 781 49 742 49 q 802 47 793 49 q 813 24 811 44 q 807 5 813 14 q 790 -4 801 -4 q 716 -1 750 -1 q 644 0 682 0 q 574 -1 607 0 q 500 -4 540 -1 q 484 5 490 -4 q 478 24 478 14 q 488 47 479 44 q 510 49 497 49 q 563 62 549 49 q 580 97 578 75 q 582 143 582 119 l 582 438 q 562 513 582 483 q 511 556 542 542 q 449 569 481 569 q 365 552 401 569 q 307 513 329 535 q 276 474 285 490 l 276 143 q 278 97 276 119 q 295 62 281 75 q 349 49 310 49 q 370 47 361 49 q 381 24 379 44 q 375 5 381 14 q 358 -4 369 -4 q 284 -1 318 -1 q 213 0 250 0 q 142 -1 175 0 q 68 -4 108 -1 m 479 769 q 413 790 440 771 q 365 830 386 810 q 319 850 344 850 q 278 837 303 850 q 228 792 254 824 q 194 783 214 776 q 182 817 174 790 q 239 903 200 863 q 335 943 278 943 q 401 923 375 943 q 449 883 428 903 q 494 863 471 863 q 536 876 511 863 q 586 921 561 890 q 610 932 597 933 q 631 919 624 931 q 629 890 638 908 q 573 808 611 846 q 479 769 535 769 z "},"o":{"ha":761,"x_min":57,"x_max":704,"o":"m 381 -17 q 210 29 283 -17 q 97 149 138 75 q 57 306 57 222 q 86 451 57 388 q 163 558 115 515 q 268 624 211 601 q 381 646 325 646 q 551 600 478 646 q 664 481 624 554 q 704 324 704 407 q 674 178 704 242 q 597 71 644 114 q 492 6 549 28 q 381 -17 435 -17 m 381 35 q 488 75 449 35 q 545 181 528 115 q 563 324 563 247 q 544 458 563 397 q 486 557 526 519 q 381 594 446 594 q 272 555 313 594 q 215 451 232 515 q 199 308 199 386 q 216 174 199 236 q 274 73 233 111 q 381 35 314 35 z "},"ó":{"ha":761,"x_min":57,"x_max":704,"o":"m 381 -17 q 210 29 283 -17 q 97 149 138 75 q 57 306 57 222 q 86 451 57 388 q 163 558 115 515 q 268 624 211 601 q 381 646 325 646 q 551 600 478 646 q 664 481 624 554 q 704 324 704 407 q 674 178 704 242 q 597 71 644 114 q 492 6 549 28 q 381 -17 435 -17 m 381 35 q 488 75 449 35 q 545 181 528 115 q 563 324 563 247 q 544 458 563 397 q 486 557 526 519 q 381 594 446 594 q 272 555 313 594 q 215 451 232 515 q 199 308 199 386 q 216 174 199 236 q 274 73 233 111 q 381 35 314 35 m 342 735 q 328 753 332 740 q 332 781 324 767 l 436 971 q 468 999 447 990 q 513 996 489 1008 q 544 958 536 983 q 535 913 553 933 l 393 747 q 365 731 379 732 q 342 735 351 729 z "},"ô":{"ha":761,"x_min":57,"x_max":704,"o":"m 381 -17 q 210 29 283 -17 q 97 149 138 75 q 57 306 57 222 q 86 451 57 388 q 163 558 115 515 q 268 624 211 601 q 381 646 325 646 q 551 600 478 646 q 664 481 624 554 q 704 324 704 407 q 674 178 704 242 q 597 71 644 114 q 492 6 549 28 q 381 -17 435 -17 m 381 35 q 488 75 449 35 q 545 181 528 115 q 563 324 563 247 q 544 458 563 397 q 486 557 526 519 q 381 594 446 594 q 272 555 313 594 q 215 451 232 515 q 199 308 199 386 q 216 174 199 236 q 274 73 233 111 q 381 35 314 35 m 206 721 q 192 738 197 726 q 197 763 188 749 l 339 968 q 372 986 351 986 q 392 983 382 986 q 408 968 401 979 l 550 763 q 555 738 560 749 q 542 721 550 726 q 522 717 533 717 q 494 731 511 718 q 447 778 476 746 q 374 867 418 811 q 301 778 331 811 q 253 731 272 746 q 225 717 236 718 q 206 721 214 717 z "},"ö":{"ha":761,"x_min":57,"x_max":704,"o":"m 381 -17 q 210 29 283 -17 q 97 149 138 75 q 57 306 57 222 q 86 451 57 388 q 163 558 115 515 q 268 624 211 601 q 381 646 325 646 q 551 600 478 646 q 664 481 624 554 q 704 324 704 407 q 674 178 704 242 q 597 71 644 114 q 492 6 549 28 q 381 -17 435 -17 m 381 35 q 488 75 449 35 q 545 181 528 115 q 563 324 563 247 q 544 458 563 397 q 486 557 526 519 q 381 594 446 594 q 272 555 313 594 q 215 451 232 515 q 199 308 199 386 q 216 174 199 236 q 274 73 233 111 q 381 35 314 35 m 501 760 q 441 785 467 760 q 415 843 415 810 q 441 903 415 879 q 503 926 467 926 q 563 903 539 926 q 586 843 586 879 q 562 785 586 810 q 501 760 538 760 m 261 760 q 201 785 226 760 q 175 843 175 810 q 201 903 175 879 q 263 926 226 926 q 322 903 299 926 q 346 843 346 879 q 322 785 346 810 q 261 760 297 760 z "},"ò":{"ha":761,"x_min":57,"x_max":704,"o":"m 381 -17 q 210 29 283 -17 q 97 149 138 75 q 57 306 57 222 q 86 451 57 388 q 163 558 115 515 q 268 624 211 601 q 381 646 325 646 q 551 600 478 646 q 664 481 624 554 q 704 324 704 407 q 674 178 704 242 q 597 71 644 114 q 492 6 549 28 q 381 -17 435 -17 m 381 35 q 488 75 449 35 q 545 181 528 115 q 563 324 563 247 q 544 458 563 397 q 486 557 526 519 q 381 594 446 594 q 272 555 313 594 q 215 451 232 515 q 199 308 199 386 q 216 174 199 236 q 274 73 233 111 q 381 35 314 35 m 419 707 q 396 703 410 701 q 368 719 382 706 l 226 885 q 217 931 208 906 q 249 968 225 956 q 294 972 272 981 q 325 943 315 963 l 429 753 q 433 726 438 739 q 419 707 429 713 z "},"ø":{"ha":760,"x_min":57,"x_max":704,"o":"m 381 -17 q 273 0 322 -17 q 183 47 224 17 l 135 -7 q 114 -15 126 -17 q 94 -8 101 -14 q 86 9 86 -1 q 92 26 86 19 l 143 85 q 57 306 57 178 q 86 451 57 388 q 163 558 115 515 q 268 624 211 601 q 381 646 325 646 q 490 628 439 646 q 581 579 542 611 l 646 653 q 667 662 654 663 q 686 654 679 661 q 695 638 694 649 q 689 619 696 626 l 619 542 q 704 324 704 449 q 674 178 704 242 q 597 71 644 114 q 492 6 549 28 q 381 -17 435 -17 m 217 168 l 521 513 q 464 572 499 550 q 381 594 429 594 q 272 555 313 594 q 215 451 232 515 q 199 308 199 386 q 203 235 199 271 q 217 168 207 200 m 381 35 q 488 75 449 35 q 545 181 528 115 q 563 324 563 247 q 558 393 563 360 q 544 456 554 426 l 242 114 q 298 56 264 78 q 381 35 332 35 z "},"õ":{"ha":761,"x_min":57,"x_max":704,"o":"m 381 -17 q 210 29 283 -17 q 97 149 138 75 q 57 306 57 222 q 86 451 57 388 q 163 558 115 515 q 268 624 211 601 q 381 646 325 646 q 551 600 478 646 q 664 481 624 554 q 704 324 704 407 q 674 178 704 242 q 597 71 644 114 q 492 6 549 28 q 381 -17 435 -17 m 381 35 q 488 75 449 35 q 545 181 528 115 q 563 324 563 247 q 544 458 563 397 q 486 557 526 519 q 381 594 446 594 q 272 555 313 594 q 215 451 232 515 q 199 308 199 386 q 216 174 199 236 q 274 73 233 111 q 381 35 314 35 m 443 769 q 377 790 404 771 q 329 830 350 810 q 283 850 308 850 q 242 837 267 850 q 192 792 218 824 q 158 783 178 776 q 146 817 138 790 q 203 903 164 863 q 299 943 242 943 q 365 923 339 943 q 413 883 392 903 q 458 863 435 863 q 500 876 475 863 q 550 921 525 890 q 574 932 561 933 q 594 919 588 931 q 593 890 601 908 q 537 808 575 846 q 443 769 499 769 z "},"œ":{"ha":1203,"x_min":57,"x_max":1151,"o":"m 381 -17 q 210 29 283 -17 q 97 149 138 75 q 57 306 57 222 q 86 451 57 388 q 163 558 115 515 q 268 624 211 601 q 381 646 325 646 q 526 613 463 646 q 633 526 590 579 q 735 613 674 579 q 872 646 796 646 q 1065 580 1000 646 q 1139 413 1129 514 q 1112 349 1139 364 q 1042 333 1085 333 l 704 333 q 726 190 704 253 q 797 90 749 126 q 924 53 846 53 q 1024 78 982 53 q 1104 165 1065 103 q 1135 167 1115 179 q 1149 149 1146 161 q 1146 129 1151 138 q 1038 22 1103 61 q 888 -17 972 -17 q 732 17 797 -17 q 626 107 667 51 q 521 17 583 51 q 381 -17 458 -17 m 699 386 l 931 386 q 984 399 964 386 q 1006 444 1004 413 q 973 551 1006 504 q 872 597 940 597 q 753 542 803 597 q 699 386 704 486 m 381 35 q 488 75 449 35 q 545 181 528 115 q 563 324 563 247 q 544 458 563 397 q 486 557 526 519 q 381 594 446 594 q 272 555 313 594 q 215 451 232 515 q 199 308 199 386 q 216 174 199 236 q 274 73 233 111 q 381 35 314 35 z "},"p":{"ha":811,"x_min":32,"x_max":753,"o":"m 54 -289 q 38 -280 44 -289 q 32 -261 32 -271 q 42 -238 33 -240 q 64 -236 51 -236 q 116 -223 101 -236 q 133 -187 131 -210 q 136 -142 136 -165 l 136 461 q 134 508 136 486 q 118 542 132 529 q 65 556 104 556 q 42 559 53 556 q 32 583 32 563 q 54 608 32 604 q 152 628 118 618 q 203 644 186 638 q 235 653 221 651 q 253 649 246 654 q 261 626 261 643 l 261 560 l 265 560 q 358 621 304 596 q 463 646 413 646 q 613 604 547 646 q 715 488 678 563 q 753 315 753 414 q 707 140 753 215 q 589 24 661 65 q 435 -17 517 -17 q 334 -3 372 -17 q 268 26 296 10 l 263 26 l 263 -142 q 265 -187 263 -165 q 283 -223 268 -210 q 335 -236 299 -236 q 356 -238 347 -236 q 367 -261 365 -240 q 361 -280 367 -271 q 344 -289 356 -289 q 270 -285 304 -286 q 199 -285 236 -285 q 128 -285 161 -285 q 54 -289 94 -286 m 424 31 q 514 58 478 31 q 572 127 550 85 q 602 219 593 169 q 611 311 611 268 q 591 437 611 376 q 527 537 571 497 q 413 576 483 576 q 325 555 360 576 q 263 504 290 533 l 263 132 q 319 63 278 96 q 424 31 360 31 z "},"þ":{"ha":779,"x_min":4,"x_max":722,"o":"m 26 -289 q 10 -280 17 -289 q 4 -261 4 -271 q 15 -238 6 -240 q 36 -236 24 -236 q 88 -223 74 -236 q 106 -187 103 -210 q 108 -142 108 -165 l 108 819 q 106 866 108 844 q 90 901 104 888 q 38 914 76 914 q 15 917 25 914 q 4 942 4 921 q 26 967 4 963 q 124 986 90 976 q 176 1003 158 996 q 208 1011 194 1010 q 227 1007 219 1013 q 235 985 235 1001 l 235 565 l 239 565 q 332 626 281 607 q 431 646 383 646 q 578 604 513 646 q 683 490 644 563 q 722 319 722 417 q 678 149 722 225 q 561 28 633 72 q 404 -17 489 -17 q 240 26 314 -17 l 235 26 l 235 -142 q 238 -187 235 -165 q 256 -223 240 -210 q 307 -236 271 -236 q 328 -238 319 -236 q 339 -261 338 -240 q 333 -280 339 -271 q 317 -289 328 -289 q 242 -285 276 -286 q 171 -285 208 -285 q 100 -285 133 -285 q 26 -289 67 -286 m 392 31 q 528 107 475 31 q 581 314 581 183 q 560 439 581 379 q 497 538 540 499 q 382 576 453 576 q 299 560 335 576 q 235 513 263 543 l 235 146 q 258 99 239 126 q 310 51 276 72 q 392 31 343 31 z "},"q":{"ha":776,"x_min":57,"x_max":772,"o":"m 460 -289 q 444 -280 450 -289 q 439 -261 439 -271 q 449 -238 440 -240 q 471 -236 457 -236 q 522 -223 507 -236 q 539 -187 536 -210 q 542 -142 542 -165 l 542 63 l 538 63 q 465 10 513 36 q 353 -17 417 -17 q 205 25 272 -17 q 97 143 138 67 q 57 322 57 219 q 102 488 57 414 q 221 603 147 561 q 378 646 294 646 q 506 622 460 646 q 578 583 551 599 l 585 583 q 609 633 596 604 q 643 661 622 661 q 663 653 656 661 q 669 633 669 644 l 669 -142 q 672 -187 669 -165 q 689 -223 674 -210 q 740 -236 704 -236 q 763 -238 754 -236 q 772 -261 771 -240 q 767 -280 772 -271 q 750 -289 761 -289 q 676 -285 710 -286 q 604 -285 642 -285 q 534 -285 568 -285 q 460 -289 500 -286 m 399 51 q 483 71 449 51 q 542 117 517 90 l 542 493 q 516 540 535 515 q 465 581 497 564 q 385 597 433 597 q 251 520 306 597 q 197 308 197 443 q 217 184 197 243 q 282 88 238 125 q 399 51 326 51 z "},"r":{"ha":590,"x_min":46,"x_max":568,"o":"m 68 -4 q 52 5 58 -4 q 46 24 46 14 q 57 47 49 44 q 79 49 65 49 q 132 62 118 49 q 148 97 146 75 q 150 143 150 119 l 150 461 q 148 508 150 486 q 132 542 146 529 q 79 556 118 556 q 56 559 67 556 q 46 583 46 563 q 68 608 46 604 q 166 628 132 618 q 217 644 200 638 q 249 653 235 651 q 267 649 260 654 q 275 626 275 643 l 275 540 l 279 540 q 376 616 326 586 q 468 646 426 646 q 542 610 517 646 q 568 533 568 574 q 546 466 568 499 q 479 433 524 433 q 444 442 457 433 q 429 456 431 451 q 442 472 429 458 q 456 507 456 486 q 442 547 456 532 q 407 563 429 563 q 347 539 383 563 q 276 482 310 515 l 276 143 q 278 97 276 119 q 295 62 281 75 q 349 49 310 49 q 370 47 361 49 q 381 24 379 44 q 375 5 381 14 q 358 -4 369 -4 q 284 -1 318 -1 q 213 0 250 0 q 142 -1 175 0 q 68 -4 108 -1 z "},"s":{"ha":615,"x_min":53,"x_max":558,"o":"m 303 -17 q 124 22 196 -17 q 53 132 53 60 q 77 197 53 172 q 140 222 101 222 q 181 209 165 222 q 197 190 197 196 q 181 172 197 186 q 165 125 165 157 q 202 60 165 86 q 314 35 239 35 q 416 63 379 35 q 453 143 453 92 q 426 208 453 185 q 356 244 399 231 q 266 272 314 258 q 175 307 218 286 q 105 365 132 328 q 78 463 78 401 q 115 565 78 525 q 211 626 153 606 q 329 646 269 646 q 426 631 381 646 q 502 588 472 617 q 532 514 532 558 q 510 451 532 479 q 449 424 488 424 q 408 437 424 424 q 392 456 392 450 q 402 466 392 458 q 422 487 413 474 q 432 521 432 500 q 393 581 429 561 q 313 600 357 600 q 222 576 264 600 q 181 508 181 553 q 198 446 181 468 q 253 408 215 424 q 353 372 292 392 q 460 332 414 353 q 533 277 507 311 q 558 185 558 243 q 525 81 558 126 q 434 9 492 35 q 303 -17 376 -17 z "},"ß":{"ha":839,"x_min":32,"x_max":781,"o":"m 514 -8 q 410 26 450 -8 q 369 110 369 60 q 392 174 371 146 q 453 201 414 201 q 490 189 476 201 q 503 171 503 176 q 485 152 503 167 q 465 107 467 138 q 480 61 465 76 q 513 46 494 46 q 572 72 549 46 q 610 138 596 99 q 631 216 625 176 q 638 282 638 256 q 619 420 638 358 q 561 519 600 482 q 461 557 522 557 l 421 557 q 400 565 407 557 q 393 583 393 574 q 400 601 393 593 q 421 610 407 608 l 461 610 q 524 636 497 611 q 567 701 551 661 q 582 783 582 740 q 567 865 582 826 q 522 929 553 904 q 438 954 490 954 q 300 899 338 954 q 263 758 263 844 l 263 143 q 265 91 264 113 q 278 58 265 69 q 324 49 290 47 q 344 47 335 49 q 354 24 353 44 q 349 5 354 14 q 332 -4 343 -4 q 264 -1 293 -1 q 199 0 235 0 q 128 -1 161 0 q 54 -4 94 -1 q 38 5 43 -4 q 32 24 32 14 q 42 47 33 44 q 64 49 50 49 q 117 62 103 49 q 133 97 132 75 q 135 143 135 119 l 135 733 q 211 938 135 865 q 426 1011 288 1011 q 578 983 513 1014 q 680 901 643 953 q 717 792 717 850 q 682 683 717 736 q 561 590 647 629 l 561 586 q 724 495 668 565 q 781 317 781 425 q 744 142 781 215 q 648 31 708 69 q 514 -8 588 -8 z "},"t":{"ha":526,"x_min":35,"x_max":471,"o":"m 300 -24 q 221 -3 258 -24 q 159 61 183 18 q 135 169 135 104 l 135 578 l 54 575 q 40 583 44 575 q 35 600 35 590 q 54 632 35 628 q 132 665 106 642 q 173 719 158 688 q 200 789 188 751 q 213 803 204 800 q 231 807 221 807 q 249 803 239 807 q 260 788 260 799 l 250 629 l 413 639 q 429 632 425 640 q 433 613 433 624 q 428 585 433 599 q 417 571 424 571 l 261 575 l 261 153 q 278 79 261 113 q 342 46 296 46 q 376 49 357 46 q 418 61 396 51 q 429 66 424 64 q 440 68 435 68 q 457 59 451 68 q 467 40 463 50 q 460 21 471 28 q 381 -15 417 -7 q 300 -24 344 -24 z "},"u":{"ha":828,"x_min":24,"x_max":819,"o":"m 333 -17 q 183 40 239 -17 q 128 190 128 97 l 128 447 q 126 494 128 472 q 110 528 124 515 q 57 542 96 542 q 34 545 44 542 q 24 569 24 549 q 46 594 24 590 q 144 614 110 604 q 196 631 178 624 q 228 639 214 638 q 247 635 239 640 q 254 613 254 629 l 254 192 q 274 117 254 146 q 325 74 294 88 q 388 60 356 60 q 472 77 436 60 q 531 117 508 94 q 560 156 553 140 l 560 447 q 558 494 560 472 q 542 528 556 515 q 489 542 528 542 q 466 545 476 542 q 456 569 456 549 q 478 594 456 590 q 576 614 542 604 q 628 631 610 624 q 660 639 646 638 q 678 635 671 640 q 686 613 686 629 l 686 132 q 796 50 686 50 q 815 42 811 50 q 819 24 819 33 q 796 0 819 4 l 572 -15 q 561 -7 563 -15 q 560 13 560 1 l 560 90 l 557 90 q 501 40 531 65 q 431 -1 471 15 q 333 -17 392 -17 z "},"ú":{"ha":828,"x_min":24,"x_max":819,"o":"m 333 -17 q 183 40 239 -17 q 128 190 128 97 l 128 447 q 126 494 128 472 q 110 528 124 515 q 57 542 96 542 q 34 545 44 542 q 24 569 24 549 q 46 594 24 590 q 144 614 110 604 q 196 631 178 624 q 228 639 214 638 q 247 635 239 640 q 254 613 254 629 l 254 192 q 274 117 254 146 q 325 74 294 88 q 388 60 356 60 q 472 77 436 60 q 531 117 508 94 q 560 156 553 140 l 560 447 q 558 494 560 472 q 542 528 556 515 q 489 542 528 542 q 466 545 476 542 q 456 569 456 549 q 478 594 456 590 q 576 614 542 604 q 628 631 610 624 q 660 639 646 638 q 678 635 671 640 q 686 613 686 629 l 686 132 q 796 50 686 50 q 815 42 811 50 q 819 24 819 33 q 796 0 819 4 l 572 -15 q 561 -7 563 -15 q 560 13 560 1 l 560 90 l 557 90 q 501 40 531 65 q 431 -1 471 15 q 333 -17 392 -17 m 375 735 q 361 753 365 740 q 365 781 357 767 l 469 971 q 501 999 481 990 q 546 996 522 1008 q 578 958 569 983 q 568 913 586 933 l 426 747 q 399 731 413 732 q 375 735 385 729 z "},"û":{"ha":828,"x_min":24,"x_max":819,"o":"m 333 -17 q 183 40 239 -17 q 128 190 128 97 l 128 447 q 126 494 128 472 q 110 528 124 515 q 57 542 96 542 q 34 545 44 542 q 24 569 24 549 q 46 594 24 590 q 144 614 110 604 q 196 631 178 624 q 228 639 214 638 q 247 635 239 640 q 254 613 254 629 l 254 192 q 274 117 254 146 q 325 74 294 88 q 388 60 356 60 q 472 77 436 60 q 531 117 508 94 q 560 156 553 140 l 560 447 q 558 494 560 472 q 542 528 556 515 q 489 542 528 542 q 466 545 476 542 q 456 569 456 549 q 478 594 456 590 q 576 614 542 604 q 628 631 610 624 q 660 639 646 638 q 678 635 671 640 q 686 613 686 629 l 686 132 q 796 50 686 50 q 815 42 811 50 q 819 24 819 33 q 796 0 819 4 l 572 -15 q 561 -7 563 -15 q 560 13 560 1 l 560 90 l 557 90 q 501 40 531 65 q 431 -1 471 15 q 333 -17 392 -17 m 239 721 q 226 738 231 726 q 231 763 221 749 l 372 968 q 406 986 385 986 q 425 983 415 986 q 442 968 435 979 l 583 763 q 588 738 593 749 q 575 721 583 726 q 556 717 567 717 q 528 731 544 718 q 481 778 510 746 q 407 867 451 811 q 335 778 364 811 q 286 731 306 746 q 258 717 269 718 q 239 721 247 717 z "},"ü":{"ha":828,"x_min":24,"x_max":819,"o":"m 333 -17 q 183 40 239 -17 q 128 190 128 97 l 128 447 q 126 494 128 472 q 110 528 124 515 q 57 542 96 542 q 34 545 44 542 q 24 569 24 549 q 46 594 24 590 q 144 614 110 604 q 196 631 178 624 q 228 639 214 638 q 247 635 239 640 q 254 613 254 629 l 254 192 q 274 117 254 146 q 325 74 294 88 q 388 60 356 60 q 472 77 436 60 q 531 117 508 94 q 560 156 553 140 l 560 447 q 558 494 560 472 q 542 528 556 515 q 489 542 528 542 q 466 545 476 542 q 456 569 456 549 q 478 594 456 590 q 576 614 542 604 q 628 631 610 624 q 660 639 646 638 q 678 635 671 640 q 686 613 686 629 l 686 132 q 796 50 686 50 q 815 42 811 50 q 819 24 819 33 q 796 0 819 4 l 572 -15 q 561 -7 563 -15 q 560 13 560 1 l 560 90 l 557 90 q 501 40 531 65 q 431 -1 471 15 q 333 -17 392 -17 m 535 760 q 474 785 500 760 q 449 843 449 810 q 474 903 449 879 q 536 926 500 926 q 596 903 572 926 q 619 843 619 879 q 595 785 619 810 q 535 760 571 760 m 294 760 q 234 785 260 760 q 208 843 208 810 q 234 903 208 879 q 296 926 260 926 q 356 903 332 926 q 379 843 379 879 q 355 785 379 810 q 294 760 331 760 z "},"ù":{"ha":828,"x_min":24,"x_max":819,"o":"m 333 -17 q 183 40 239 -17 q 128 190 128 97 l 128 447 q 126 494 128 472 q 110 528 124 515 q 57 542 96 542 q 34 545 44 542 q 24 569 24 549 q 46 594 24 590 q 144 614 110 604 q 196 631 178 624 q 228 639 214 638 q 247 635 239 640 q 254 613 254 629 l 254 192 q 274 117 254 146 q 325 74 294 88 q 388 60 356 60 q 472 77 436 60 q 531 117 508 94 q 560 156 553 140 l 560 447 q 558 494 560 472 q 542 528 556 515 q 489 542 528 542 q 466 545 476 542 q 456 569 456 549 q 478 594 456 590 q 576 614 542 604 q 628 631 610 624 q 660 639 646 638 q 678 635 671 640 q 686 613 686 629 l 686 132 q 796 50 686 50 q 815 42 811 50 q 819 24 819 33 q 796 0 819 4 l 572 -15 q 561 -7 563 -15 q 560 13 560 1 l 560 90 l 557 90 q 501 40 531 65 q 431 -1 471 15 q 333 -17 392 -17 m 453 707 q 429 703 443 701 q 401 719 415 706 l 260 885 q 250 931 242 906 q 282 968 258 956 q 327 972 306 981 q 358 943 349 963 l 463 753 q 467 726 471 739 q 453 707 463 713 z "},"v":{"ha":765,"x_min":8,"x_max":767,"o":"m 349 -14 q 279 153 314 63 q 211 329 244 243 q 147 479 178 415 q 104 552 125 531 q 42 579 83 574 q 17 585 24 582 q 10 606 11 588 q 23 631 8 629 q 58 635 38 633 q 193 610 144 639 q 272 511 242 581 q 316 404 292 468 q 367 275 340 340 q 418 157 393 210 l 422 157 l 560 521 q 561 571 574 561 q 507 581 549 581 q 486 583 494 581 q 476 606 478 585 q 481 624 476 614 q 496 633 486 633 q 565 631 536 632 q 631 629 594 629 q 671 630 656 629 q 703 631 686 631 q 746 633 719 632 q 762 624 757 633 q 767 606 767 614 q 756 583 765 585 q 736 581 747 581 q 663 564 690 581 q 617 499 636 547 q 602 462 617 499 q 564 367 588 425 q 514 243 540 308 q 463 119 488 178 q 424 24 439 61 q 407 -14 408 -14 l 349 -14 z "},"w":{"ha":1108,"x_min":10,"x_max":1108,"o":"m 326 -14 l 149 479 q 106 552 126 531 q 43 579 85 574 q 19 585 25 582 q 11 606 13 588 q 24 631 10 629 q 60 635 39 633 q 194 610 146 639 q 274 511 243 581 l 401 151 l 406 151 q 439 263 419 196 q 478 403 458 331 q 515 537 499 475 q 540 629 532 599 l 607 629 l 797 151 l 801 151 q 839 280 821 210 q 872 415 857 350 q 899 521 888 479 q 896 569 907 558 q 846 581 885 581 q 825 583 833 581 q 815 606 817 585 q 820 624 815 614 q 835 633 825 633 q 905 631 875 632 q 971 629 935 629 q 1027 631 1007 629 q 1088 633 1047 632 q 1103 624 1099 633 q 1108 606 1108 614 q 1098 583 1107 585 q 1078 581 1089 581 q 999 564 1028 581 q 958 499 971 547 l 804 -14 l 722 -14 l 546 440 l 408 -14 l 326 -14 z "},"x":{"ha":751,"x_min":24,"x_max":746,"o":"m 44 -4 q 29 6 35 -4 q 24 24 24 15 q 34 47 25 44 q 54 49 43 49 q 119 69 99 49 q 175 131 140 90 q 239 206 201 160 q 315 300 276 251 l 157 524 q 119 560 139 547 q 69 579 100 574 q 45 585 51 582 q 38 606 39 588 q 51 631 36 629 q 86 635 65 633 q 292 557 228 642 q 332 495 307 538 q 397 400 357 453 l 490 521 q 514 569 517 558 q 456 581 511 579 q 435 583 443 581 q 425 606 426 585 q 430 624 425 614 q 444 633 435 633 q 505 631 485 632 q 561 629 525 629 q 619 631 597 629 q 681 633 640 632 q 697 624 692 633 q 701 606 701 614 q 691 583 700 585 q 671 581 682 582 q 625 572 643 579 q 591 547 607 564 q 550 499 575 531 q 502 439 532 478 q 433 353 472 400 q 524 234 479 293 q 603 131 569 175 q 652 74 625 100 q 714 49 679 49 q 735 47 726 49 q 746 24 744 44 q 740 5 746 14 q 724 -4 735 -4 q 656 -1 683 -1 q 590 0 628 0 q 518 -1 553 0 q 443 -4 483 -1 q 427 5 433 -4 q 421 24 421 14 q 431 47 422 44 q 453 49 440 49 q 482 65 481 49 q 463 108 483 82 l 354 253 l 235 108 q 213 60 206 71 q 269 49 221 49 q 290 47 282 49 q 300 24 299 44 q 296 6 300 15 q 281 -4 292 -4 q 221 -1 242 -1 q 164 0 200 0 q 106 -1 128 0 q 44 -4 85 -1 z "},"y":{"ha":767,"x_min":-19,"x_max":768,"o":"m 133 -303 q 58 -285 93 -303 q 1 -237 22 -267 q -19 -172 -19 -207 q -3 -115 -18 -135 q 29 -87 11 -94 q 60 -78 47 -79 q 69 -76 72 -76 q 110 -87 96 -76 q 124 -104 124 -97 q 113 -117 124 -107 q 101 -154 103 -128 q 117 -203 100 -179 q 168 -226 133 -226 q 239 -198 207 -226 q 296 -128 271 -169 q 339 -47 321 -86 q 338 17 349 -17 q 272 176 304 92 q 210 340 240 261 q 151 479 181 419 q 108 552 129 531 q 46 579 88 574 q 22 585 28 582 q 14 606 15 588 q 27 631 13 629 q 63 635 42 633 q 197 610 149 639 q 276 511 246 581 q 319 404 296 468 q 369 275 343 340 q 421 157 396 210 l 425 157 l 561 521 q 563 571 575 561 q 508 581 550 581 q 488 583 496 581 q 478 606 479 585 q 483 624 478 614 q 497 633 488 633 q 567 631 538 632 q 632 629 596 629 q 672 630 657 629 q 704 631 688 631 q 747 633 721 632 q 763 624 758 633 q 768 606 768 614 q 758 583 767 585 q 738 581 749 581 q 665 564 692 581 q 618 499 638 547 q 603 463 618 499 q 565 368 589 426 q 515 245 542 310 q 465 122 489 181 q 426 26 442 64 q 410 -14 411 -11 q 366 -108 392 -57 q 306 -202 340 -158 q 229 -274 272 -246 q 133 -303 186 -303 z "},"ý":{"ha":767,"x_min":-19,"x_max":768,"o":"m 133 -303 q 58 -285 93 -303 q 1 -237 22 -267 q -19 -172 -19 -207 q -3 -115 -18 -135 q 29 -87 11 -94 q 60 -78 47 -79 q 69 -76 72 -76 q 110 -87 96 -76 q 124 -104 124 -97 q 113 -117 124 -107 q 101 -154 103 -128 q 117 -203 100 -179 q 168 -226 133 -226 q 239 -198 207 -226 q 296 -128 271 -169 q 339 -47 321 -86 q 338 17 349 -17 q 272 176 304 92 q 210 340 240 261 q 151 479 181 419 q 108 552 129 531 q 46 579 88 574 q 22 585 28 582 q 14 606 15 588 q 27 631 13 629 q 63 635 42 633 q 197 610 149 639 q 276 511 246 581 q 319 404 296 468 q 369 275 343 340 q 421 157 396 210 l 425 157 l 561 521 q 563 571 575 561 q 508 581 550 581 q 488 583 496 581 q 478 606 479 585 q 483 624 478 614 q 497 633 488 633 q 567 631 538 632 q 632 629 596 629 q 672 630 657 629 q 704 631 688 631 q 747 633 721 632 q 763 624 758 633 q 768 606 768 614 q 758 583 767 585 q 738 581 749 581 q 665 564 692 581 q 618 499 638 547 q 603 463 618 499 q 565 368 589 426 q 515 245 542 310 q 465 122 489 181 q 426 26 442 64 q 410 -14 411 -11 q 366 -108 392 -57 q 306 -202 340 -158 q 229 -274 272 -246 q 133 -303 186 -303 m 343 735 q 329 753 333 740 q 333 781 325 767 l 438 971 q 469 999 449 990 q 514 996 490 1008 q 546 958 538 983 q 536 913 554 933 l 394 747 q 367 731 381 732 q 343 735 353 729 z "},"ÿ":{"ha":767,"x_min":-19,"x_max":768,"o":"m 133 -303 q 58 -285 93 -303 q 1 -237 22 -267 q -19 -172 -19 -207 q -3 -115 -18 -135 q 29 -87 11 -94 q 60 -78 47 -79 q 69 -76 72 -76 q 110 -87 96 -76 q 124 -104 124 -97 q 113 -117 124 -107 q 101 -154 103 -128 q 117 -203 100 -179 q 168 -226 133 -226 q 239 -198 207 -226 q 296 -128 271 -169 q 339 -47 321 -86 q 338 17 349 -17 q 272 176 304 92 q 210 340 240 261 q 151 479 181 419 q 108 552 129 531 q 46 579 88 574 q 22 585 28 582 q 14 606 15 588 q 27 631 13 629 q 63 635 42 633 q 197 610 149 639 q 276 511 246 581 q 319 404 296 468 q 369 275 343 340 q 421 157 396 210 l 425 157 l 561 521 q 563 571 575 561 q 508 581 550 581 q 488 583 496 581 q 478 606 479 585 q 483 624 478 614 q 497 633 488 633 q 567 631 538 632 q 632 629 596 629 q 672 630 657 629 q 704 631 688 631 q 747 633 721 632 q 763 624 758 633 q 768 606 768 614 q 758 583 767 585 q 738 581 749 581 q 665 564 692 581 q 618 499 638 547 q 603 463 618 499 q 565 368 589 426 q 515 245 542 310 q 465 122 489 181 q 426 26 442 64 q 410 -14 411 -11 q 366 -108 392 -57 q 306 -202 340 -158 q 229 -274 272 -246 q 133 -303 186 -303 m 503 760 q 442 785 468 760 q 417 843 417 810 q 442 903 417 879 q 504 926 468 926 q 564 903 540 926 q 588 843 588 879 q 563 785 588 810 q 503 760 539 760 m 263 760 q 202 785 228 760 q 176 843 176 810 q 202 903 176 879 q 264 926 228 926 q 324 903 300 926 q 347 843 347 879 q 323 785 347 810 q 263 760 299 760 z "},"z":{"ha":697,"x_min":50,"x_max":640,"o":"m 72 -4 q 56 5 61 -4 q 50 24 50 14 q 60 47 51 44 q 82 49 68 49 q 138 60 122 49 q 176 115 154 72 l 368 514 q 382 575 392 565 q 332 585 372 585 l 274 585 q 203 574 231 585 q 161 528 176 563 q 136 424 146 493 q 122 407 135 413 q 94 401 110 401 q 74 408 85 401 q 64 426 64 414 l 88 597 q 99 624 90 618 q 119 629 107 629 l 500 629 q 540 630 525 629 q 570 631 554 631 q 613 633 586 632 q 629 625 624 633 q 635 606 635 617 q 624 583 633 585 q 603 581 615 581 q 547 569 564 581 q 507 514 531 558 l 317 115 q 303 54 293 64 q 353 44 314 44 l 431 44 q 501 56 475 44 q 544 101 528 67 q 568 206 560 136 q 583 222 569 217 q 610 228 596 228 q 631 222 621 228 q 640 203 640 215 l 617 32 q 606 6 614 11 q 585 0 597 0 l 183 0 q 144 -1 160 0 q 114 -2 129 -1 q 72 -4 99 -3 z "},"ª":{"ha":550,"x_min":58,"x_max":500,"o":"m 182 410 q 94 444 131 410 q 58 529 58 479 q 87 605 58 576 q 158 648 115 633 q 244 669 200 663 q 319 676 289 675 l 342 678 l 342 751 q 320 818 342 793 q 246 843 299 843 q 197 827 219 843 q 175 781 175 811 q 185 750 175 763 q 206 731 196 738 q 194 715 206 728 q 161 701 182 701 q 110 725 128 701 q 92 778 92 749 q 116 838 92 815 q 177 869 140 860 q 251 879 214 879 q 338 869 296 879 q 406 828 379 858 q 433 735 433 797 l 433 510 q 444 476 435 496 q 481 456 454 456 q 495 453 490 456 q 500 436 500 450 q 478 415 500 419 q 443 410 457 410 q 381 428 408 410 q 344 479 353 447 q 272 427 321 444 q 182 410 222 410 m 222 468 q 309 503 274 468 q 344 590 344 538 l 344 644 q 207 612 251 632 q 163 542 163 592 q 178 490 163 511 q 222 468 194 468 z "},"º":{"ha":565,"x_min":53,"x_max":514,"o":"m 283 410 q 162 442 214 410 q 81 527 110 475 q 53 638 53 579 q 88 769 53 715 q 177 851 124 824 q 283 879 231 879 q 404 847 353 879 q 485 763 456 814 q 514 651 514 711 q 477 519 514 574 q 388 438 440 465 q 283 410 335 410 m 283 454 q 356 481 329 454 q 393 553 382 508 q 404 651 404 599 q 392 743 404 701 q 354 810 381 785 q 283 836 328 836 q 210 809 238 836 q 172 738 183 782 q 161 640 161 693 q 173 549 161 592 q 211 480 185 506 q 283 454 238 454 z "},"А":{"ha":907,"x_min":-17,"x_max":915,"o":"m 8 -4 q -11 6 -6 -4 q -17 26 -17 15 q -6 53 -15 50 q 18 56 4 56 q 75 71 56 56 q 106 111 94 86 q 129 163 118 136 l 372 738 q 378 788 386 771 q 350 813 369 806 q 307 825 331 821 q 279 833 286 829 q 272 857 272 836 q 289 883 272 881 q 328 885 306 885 q 425 874 385 885 q 494 831 465 863 q 549 738 524 800 l 782 163 q 803 114 792 139 q 833 73 814 89 q 881 56 851 57 q 905 53 896 56 q 915 26 914 50 q 909 6 915 15 q 890 -4 903 -4 q 813 -1 846 -1 q 738 0 779 0 q 565 -4 656 0 q 546 6 551 -4 q 540 26 540 15 q 551 53 542 50 q 575 56 561 56 q 649 81 643 56 q 636 163 656 106 l 589 278 l 246 278 q 216 201 225 225 q 205 171 207 178 q 201 163 203 164 q 185 92 186 115 q 208 63 185 69 q 285 56 231 56 q 309 53 300 56 q 319 26 318 50 q 313 6 319 15 q 294 -4 307 -4 q 217 -1 250 -1 q 143 0 185 0 q 97 -1 115 0 q 58 -2 78 -1 q 8 -4 39 -3 m 272 338 l 564 338 l 424 694 l 419 694 l 272 338 z "},"Б":{"ha":896,"x_min":71,"x_max":818,"o":"m 96 -4 q 76 6 82 -4 q 71 26 71 15 q 82 53 72 50 q 106 56 92 56 q 168 72 150 56 q 191 112 186 88 q 196 163 196 136 l 196 714 q 191 765 196 740 q 168 805 186 789 q 106 821 150 821 q 82 824 92 821 q 71 850 72 826 q 76 871 71 861 q 96 881 82 881 q 179 878 140 879 q 260 876 218 876 l 706 876 q 731 869 721 876 q 742 843 742 863 l 746 647 q 735 626 746 633 q 713 619 724 619 q 683 626 697 619 q 665 644 668 632 q 642 745 656 707 q 603 801 629 783 q 529 821 578 819 l 333 821 l 333 511 q 476 524 411 524 q 666 490 590 524 q 780 398 742 456 q 818 267 818 340 q 782 136 818 188 q 688 54 746 85 q 562 11 629 24 q 432 -1 494 -1 l 261 0 q 180 -1 219 0 q 96 -4 140 -1 m 436 56 q 550 76 499 57 q 633 140 601 94 q 664 265 664 185 q 628 382 664 339 q 536 444 592 425 q 421 463 481 463 q 376 461 399 463 q 333 454 354 460 l 333 171 q 356 78 333 101 q 436 56 378 56 z "},"В":{"ha":863,"x_min":58,"x_max":800,"o":"m 83 -4 q 64 6 69 -4 q 58 26 58 15 q 69 53 60 50 q 93 56 79 56 q 156 72 138 56 q 178 112 174 88 q 183 163 183 136 l 183 714 q 178 765 183 740 q 156 805 174 789 q 93 821 138 821 q 69 824 79 821 q 58 850 60 826 q 64 871 58 861 q 83 881 69 881 q 167 878 128 879 q 247 876 206 876 l 443 876 q 570 865 524 876 q 651 831 617 853 q 708 766 688 807 q 729 676 729 725 q 700 572 729 614 q 627 505 671 529 q 542 471 583 481 l 542 467 q 672 440 615 468 q 763 367 729 413 q 797 267 796 321 q 764 136 800 188 q 670 54 728 85 q 545 11 613 24 q 415 -1 478 -1 l 249 0 q 167 -1 207 0 q 83 -4 128 -1 m 321 494 l 379 494 q 442 497 407 494 q 508 515 476 500 q 560 563 540 529 q 581 660 581 597 q 545 779 581 733 q 418 825 510 825 l 321 825 l 321 494 m 421 54 q 535 75 483 56 q 617 140 586 94 q 647 267 647 186 q 617 350 643 311 q 534 414 592 389 q 378 439 476 439 l 321 439 l 321 163 q 342 74 321 93 q 421 54 363 54 z "},"Г":{"ha":782,"x_min":71,"x_max":729,"o":"m 94 -4 q 76 6 82 -4 q 71 26 71 15 q 82 53 72 50 q 106 56 92 56 q 168 72 150 56 q 191 112 186 88 q 196 163 196 136 l 196 714 q 191 765 196 740 q 168 805 186 789 q 106 821 150 821 q 82 824 92 821 q 71 850 72 826 q 76 871 71 861 q 94 881 82 881 q 178 878 139 879 q 260 876 218 876 l 689 876 q 715 869 704 876 q 725 843 725 863 l 729 647 q 718 626 729 633 q 696 619 707 619 q 666 626 681 619 q 649 644 651 632 q 626 745 639 707 q 587 801 613 783 q 513 821 561 819 l 333 821 l 333 163 q 339 112 335 136 q 362 72 343 88 q 424 56 381 56 q 447 53 438 56 q 458 26 457 50 q 453 6 458 15 q 433 -4 447 -4 q 261 0 344 0 q 179 -1 219 0 q 94 -4 139 -1 z "},"Ѓ":{"ha":782,"x_min":71,"x_max":729,"o":"m 94 -4 q 76 6 82 -4 q 71 26 71 15 q 82 53 72 50 q 106 56 92 56 q 168 72 150 56 q 191 112 186 88 q 196 163 196 136 l 196 714 q 191 765 196 740 q 168 805 186 789 q 106 821 150 821 q 82 824 92 821 q 71 850 72 826 q 76 871 71 861 q 94 881 82 881 q 178 878 139 879 q 260 876 218 876 l 689 876 q 715 869 704 876 q 725 843 725 863 l 729 647 q 718 626 729 633 q 696 619 707 619 q 666 626 681 619 q 649 644 651 632 q 626 745 639 707 q 587 801 613 783 q 513 821 561 819 l 333 821 l 333 163 q 339 112 335 136 q 362 72 343 88 q 424 56 381 56 q 447 53 438 56 q 458 26 457 50 q 453 6 458 15 q 433 -4 447 -4 q 261 0 344 0 q 179 -1 219 0 q 94 -4 139 -1 m 428 961 q 401 962 414 954 q 383 984 388 969 q 388 1008 378 999 q 428 1049 403 1024 q 481 1100 453 1074 q 535 1146 510 1126 q 570 1170 554 1161 q 601 1179 586 1179 q 638 1160 622 1179 q 647 1109 661 1133 q 600 1064 632 1085 q 513 1010 557 1036 q 428 961 469 983 z "},"Ґ":{"ha":782,"x_min":71,"x_max":729,"o":"m 94 -4 q 76 6 82 -4 q 71 26 71 15 q 82 53 72 50 q 106 56 92 56 q 168 72 150 56 q 191 112 186 88 q 196 163 196 136 l 196 714 q 191 765 196 740 q 168 805 186 789 q 106 821 150 821 q 82 824 92 821 q 71 850 72 826 q 76 871 71 861 q 94 881 82 881 q 178 878 139 879 q 260 876 218 876 l 513 876 q 587 896 561 878 q 626 952 613 914 q 649 1053 639 990 q 666 1072 651 1065 q 696 1078 681 1078 q 718 1071 707 1078 q 729 1050 729 1064 l 725 854 q 715 828 725 835 q 689 821 704 821 l 333 821 l 333 163 q 339 112 335 136 q 362 72 343 88 q 424 56 381 56 q 447 53 438 56 q 458 26 457 50 q 453 6 458 15 q 433 -4 447 -4 q 261 0 344 0 q 179 -1 219 0 q 94 -4 139 -1 z "},"Д":{"ha":1006,"x_min":26,"x_max":939,"o":"m 71 -249 q 40 -240 54 -249 q 26 -214 26 -231 l 26 15 q 40 51 26 42 q 72 60 54 60 l 122 60 q 203 197 169 117 q 260 369 238 278 q 293 549 282 460 q 304 714 304 639 q 299 765 304 740 q 276 805 294 789 q 214 821 258 821 q 190 824 200 821 q 179 850 181 826 q 185 871 179 861 q 203 881 190 881 q 288 878 249 879 q 368 876 326 876 l 715 876 q 797 878 757 876 q 881 881 836 879 q 900 871 894 881 q 906 850 906 861 q 894 824 904 826 q 871 821 885 821 q 809 805 828 821 q 786 765 790 789 q 781 714 782 740 l 781 192 q 786 115 781 144 q 815 73 792 86 q 893 60 839 60 q 926 51 913 60 q 939 15 939 42 l 939 -214 q 926 -240 939 -231 q 899 -249 913 -249 q 847 -218 853 -249 q 820 -90 835 -137 q 775 -22 806 -43 q 682 0 744 0 l 283 0 q 191 -22 222 0 q 145 -90 160 -43 q 118 -218 131 -137 q 71 -249 113 -249 m 201 60 l 564 60 q 622 74 601 60 q 643 153 643 89 l 643 817 l 450 817 q 392 803 413 817 q 371 724 371 789 q 328 353 364 525 q 201 60 293 181 z "},"Е":{"ha":825,"x_min":60,"x_max":778,"o":"m 83 -4 q 65 6 71 -4 q 60 26 60 15 q 71 53 61 50 q 94 56 81 56 q 157 72 139 56 q 180 112 175 88 q 185 163 185 136 l 185 714 q 180 765 185 740 q 157 805 175 789 q 94 821 139 821 q 71 824 81 821 q 60 850 61 826 q 65 871 60 861 q 83 881 71 881 q 168 878 129 879 q 249 876 207 876 l 685 876 q 710 869 700 876 q 721 843 721 863 l 725 649 q 712 628 725 635 q 688 621 699 621 q 660 627 672 621 q 644 646 647 633 q 622 747 635 708 q 583 802 608 785 q 508 821 557 819 l 322 821 l 322 468 l 574 468 q 590 457 585 467 q 594 436 594 447 q 590 417 594 426 q 574 408 585 408 l 322 408 l 322 146 q 328 106 324 128 q 352 69 332 85 q 419 56 372 54 l 547 56 q 622 72 596 57 q 663 121 647 86 q 696 217 678 156 q 715 235 701 231 q 743 236 728 239 q 766 226 754 235 q 776 204 778 218 l 749 29 q 735 5 744 10 q 708 0 726 0 l 250 0 q 169 -1 208 0 q 83 -4 129 -1 z "},"Ѐ":{"ha":825,"x_min":60,"x_max":778,"o":"m 83 -4 q 65 6 71 -4 q 60 26 60 15 q 71 53 61 50 q 94 56 81 56 q 157 72 139 56 q 180 112 175 88 q 185 163 185 136 l 185 714 q 180 765 185 740 q 157 805 175 789 q 94 821 139 821 q 71 824 81 821 q 60 850 61 826 q 65 871 60 861 q 83 881 71 881 q 168 878 129 879 q 249 876 207 876 l 685 876 q 710 869 700 876 q 721 843 721 863 l 725 649 q 712 628 725 635 q 688 621 699 621 q 660 627 672 621 q 644 646 647 633 q 622 747 635 708 q 583 802 608 785 q 508 821 557 819 l 322 821 l 322 468 l 574 468 q 590 457 585 467 q 594 436 594 447 q 590 417 594 426 q 574 408 585 408 l 322 408 l 322 146 q 328 106 324 128 q 352 69 332 85 q 419 56 372 54 l 547 56 q 622 72 596 57 q 663 121 647 86 q 696 217 678 156 q 715 235 701 231 q 743 236 728 239 q 766 226 754 235 q 776 204 778 218 l 749 29 q 735 5 744 10 q 708 0 726 0 l 250 0 q 169 -1 208 0 q 83 -4 129 -1 m 431 939 q 346 988 389 961 q 258 1042 303 1014 q 212 1087 226 1063 q 221 1138 197 1111 q 269 1156 244 1164 q 324 1124 293 1147 q 378 1078 350 1104 q 431 1026 406 1051 q 471 986 456 1001 q 477 962 482 976 q 459 940 472 947 q 431 939 446 932 z "},"Ё":{"ha":825,"x_min":60,"x_max":778,"o":"m 83 -4 q 65 6 71 -4 q 60 26 60 15 q 71 53 61 50 q 94 56 81 56 q 157 72 139 56 q 180 112 175 88 q 185 163 185 136 l 185 714 q 180 765 185 740 q 157 805 175 789 q 94 821 139 821 q 71 824 81 821 q 60 850 61 826 q 65 871 60 861 q 83 881 71 881 q 168 878 129 879 q 249 876 207 876 l 685 876 q 710 869 700 876 q 721 843 721 863 l 725 649 q 712 628 725 635 q 688 621 699 621 q 660 627 672 621 q 644 646 647 633 q 622 747 635 708 q 583 802 608 785 q 508 821 557 819 l 322 821 l 322 468 l 574 468 q 590 457 585 467 q 594 436 594 447 q 590 417 594 426 q 574 408 585 408 l 322 408 l 322 146 q 328 106 324 128 q 352 69 332 85 q 419 56 372 54 l 547 56 q 622 72 596 57 q 663 121 647 86 q 696 217 678 156 q 715 235 701 231 q 743 236 728 239 q 766 226 754 235 q 776 204 778 218 l 749 29 q 735 5 744 10 q 708 0 726 0 l 250 0 q 169 -1 208 0 q 83 -4 129 -1 m 560 988 q 499 1013 525 988 q 474 1071 474 1038 q 499 1131 474 1107 q 561 1154 525 1154 q 621 1131 597 1154 q 644 1071 644 1107 q 620 1013 644 1038 q 560 988 596 988 m 293 988 q 233 1013 258 988 q 207 1071 207 1038 q 233 1131 207 1107 q 294 1154 258 1154 q 354 1131 331 1154 q 378 1071 378 1107 q 353 1013 378 1038 q 293 988 329 988 z "},"Ж":{"ha":1481,"x_min":19,"x_max":1463,"o":"m 157 -14 q 103 -6 132 -14 q 51 22 74 3 q 21 74 28 42 q 25 96 19 85 q 44 106 31 107 q 63 92 56 106 q 83 65 71 78 q 115 49 94 51 q 178 76 153 46 q 226 153 204 106 q 273 256 249 201 q 331 359 297 310 q 412 440 364 408 q 529 472 460 472 l 529 476 q 459 515 492 483 q 401 597 426 547 q 380 649 392 618 q 352 709 368 679 q 315 758 336 739 q 263 778 293 778 q 213 750 232 778 q 194 685 194 722 q 185 678 194 678 q 151 690 172 678 q 114 724 131 701 q 97 781 97 747 q 113 839 97 810 q 160 887 129 868 q 235 906 190 906 q 324 869 288 903 q 385 789 360 836 q 428 692 410 742 q 465 608 447 643 q 533 521 497 547 q 611 494 569 494 l 672 494 l 672 714 q 667 765 672 740 q 644 805 663 789 q 582 821 626 821 q 558 824 568 821 q 546 850 547 826 q 552 871 546 861 q 571 881 558 881 q 744 876 661 876 q 826 878 786 876 q 910 881 865 879 q 928 871 922 881 q 935 850 935 861 q 924 824 933 826 q 900 821 914 821 q 838 805 857 821 q 814 765 818 789 q 808 714 810 740 l 808 494 l 869 494 q 948 521 911 494 q 1015 608 985 547 q 1052 692 1033 643 q 1096 789 1071 742 q 1157 869 1121 836 q 1246 906 1193 903 q 1321 887 1290 906 q 1367 839 1351 868 q 1383 781 1383 810 q 1367 724 1383 747 q 1330 690 1350 701 q 1296 678 1310 678 q 1286 685 1286 678 q 1268 750 1286 722 q 1218 778 1250 778 q 1166 758 1188 778 q 1128 709 1144 739 q 1101 649 1113 679 q 1079 597 1089 618 q 1022 515 1054 547 q 951 476 989 483 l 951 472 q 1069 440 1021 472 q 1150 359 1117 408 q 1208 256 1183 310 q 1254 153 1232 201 q 1303 76 1276 106 q 1365 49 1329 46 q 1399 65 1388 51 q 1417 92 1410 78 q 1436 106 1425 106 q 1456 96 1450 107 q 1460 74 1463 85 q 1430 22 1453 42 q 1378 -6 1407 3 q 1324 -14 1350 -14 q 1213 10 1257 -14 q 1140 75 1169 35 q 1088 164 1110 115 q 1045 261 1065 213 q 999 350 1025 310 q 935 415 972 390 q 840 439 897 439 l 808 439 l 808 163 q 814 112 810 136 q 838 72 818 88 q 900 56 857 56 q 924 53 914 56 q 935 26 933 50 q 928 6 935 15 q 910 -4 922 -4 q 825 -1 865 -1 q 743 0 785 0 q 571 -4 661 0 q 552 6 558 -4 q 546 26 546 15 q 558 53 547 50 q 582 56 568 56 q 644 72 626 56 q 667 112 663 88 q 672 163 672 136 l 672 439 l 640 439 q 546 415 583 439 q 482 350 508 390 q 435 261 456 310 q 393 164 415 213 q 341 75 371 115 q 267 10 311 35 q 157 -14 224 -14 z "},"З":{"ha":822,"x_min":82,"x_max":740,"o":"m 397 -28 q 242 -8 314 -28 q 126 57 171 13 q 82 172 82 101 q 119 271 82 229 q 215 311 156 313 q 274 292 256 310 q 293 264 292 274 q 277 249 293 260 q 244 217 261 238 q 228 163 228 196 q 275 61 225 94 q 397 28 325 28 q 537 81 483 28 q 590 238 590 133 q 562 340 590 296 q 485 409 533 383 q 378 436 438 435 l 326 436 q 311 445 317 436 q 306 464 306 454 q 311 485 306 475 q 326 496 317 494 l 378 496 q 456 513 417 499 q 521 562 494 526 q 547 664 547 597 q 530 753 547 711 q 478 821 513 794 q 388 847 443 847 q 264 791 307 847 q 199 635 221 735 q 181 618 196 622 q 151 615 167 614 q 129 626 142 618 q 118 649 117 635 l 135 851 q 265 886 200 868 q 422 904 329 904 q 568 874 507 904 q 663 793 629 844 q 696 679 696 742 q 646 548 696 599 q 510 474 596 497 l 510 469 q 687 385 633 450 q 740 242 740 319 q 692 92 740 151 q 565 2 643 32 q 397 -28 486 -28 z "},"И":{"ha":1089,"x_min":71,"x_max":1018,"o":"m 96 -4 q 76 6 82 -3 q 71 26 71 15 q 82 53 72 50 q 106 56 92 56 q 168 72 150 56 q 191 112 186 88 q 196 163 196 136 l 196 714 q 191 765 196 740 q 168 805 186 789 q 106 821 150 821 q 82 824 92 821 q 71 850 72 826 q 76 871 71 861 q 96 881 82 881 q 179 878 140 879 q 260 876 218 876 q 433 881 344 876 q 453 871 447 881 q 458 850 458 861 q 448 824 457 826 q 424 821 439 821 q 362 805 381 821 q 339 765 343 789 q 333 714 335 740 l 333 222 l 732 725 q 815 822 785 790 q 869 865 846 854 q 922 878 893 876 q 963 881 947 881 q 993 881 979 881 q 1013 871 1008 881 q 1018 850 1018 861 q 1008 824 1017 826 q 983 821 999 821 q 922 805 940 821 q 899 765 903 789 q 893 714 894 740 l 893 163 q 899 112 894 136 q 922 72 903 88 q 983 56 940 56 q 1008 53 999 56 q 1018 26 1017 50 q 1013 6 1018 15 q 993 -4 1007 -4 q 910 -1 949 -1 q 829 0 871 0 q 657 -4 747 0 q 638 6 643 -4 q 632 26 632 15 q 643 53 633 50 q 667 56 653 56 q 729 72 711 56 q 752 112 747 88 q 757 163 757 136 l 757 653 l 357 153 q 278 60 308 93 q 226 15 249 28 q 176 -1 204 1 q 135 -4 156 -3 q 96 -4 115 -6 z "},"Й":{"ha":1089,"x_min":71,"x_max":1018,"o":"m 96 -4 q 76 6 82 -3 q 71 26 71 15 q 82 53 72 50 q 106 56 92 56 q 168 72 150 56 q 191 112 186 88 q 196 163 196 136 l 196 714 q 191 765 196 740 q 168 805 186 789 q 106 821 150 821 q 82 824 92 821 q 71 850 72 826 q 76 871 71 861 q 96 881 82 881 q 179 878 140 879 q 260 876 218 876 q 433 881 344 876 q 453 871 447 881 q 458 850 458 861 q 448 824 457 826 q 424 821 439 821 q 362 805 381 821 q 339 765 343 789 q 333 714 335 740 l 333 222 l 732 725 q 815 822 785 790 q 869 865 846 854 q 922 878 893 876 q 963 881 947 881 q 993 881 979 881 q 1013 871 1008 881 q 1018 850 1018 861 q 1008 824 1017 826 q 983 821 999 821 q 922 805 940 821 q 899 765 903 789 q 893 714 894 740 l 893 163 q 899 112 894 136 q 922 72 903 88 q 983 56 940 56 q 1008 53 999 56 q 1018 26 1017 50 q 1013 6 1018 15 q 993 -4 1007 -4 q 910 -1 949 -1 q 829 0 871 0 q 657 -4 747 0 q 638 6 643 -4 q 632 26 632 15 q 643 53 633 50 q 667 56 653 56 q 729 72 711 56 q 752 112 747 88 q 757 163 757 136 l 757 653 l 357 153 q 278 60 308 93 q 226 15 249 28 q 176 -1 204 1 q 135 -4 156 -3 q 96 -4 115 -6 m 743 1175 q 792 1157 772 1175 q 811 1104 811 1139 q 772 1022 811 1054 q 672 973 733 989 q 544 957 611 957 q 417 973 479 957 q 317 1022 356 989 q 278 1104 278 1054 q 297 1157 278 1139 q 346 1175 317 1175 q 392 1158 375 1175 q 422 1115 410 1140 q 449 1065 435 1090 q 485 1022 463 1039 q 544 1004 507 1004 q 604 1022 582 1004 q 640 1065 626 1039 q 667 1115 654 1090 q 697 1158 679 1140 q 743 1175 714 1175 z "},"Ѝ":{"ha":1089,"x_min":71,"x_max":1018,"o":"m 96 -4 q 76 6 82 -3 q 71 26 71 15 q 82 53 72 50 q 106 56 92 56 q 168 72 150 56 q 191 112 186 88 q 196 163 196 136 l 196 714 q 191 765 196 740 q 168 805 186 789 q 106 821 150 821 q 82 824 92 821 q 71 850 72 826 q 76 871 71 861 q 96 881 82 881 q 179 878 140 879 q 260 876 218 876 q 433 881 344 876 q 453 871 447 881 q 458 850 458 861 q 448 824 457 826 q 424 821 439 821 q 362 805 381 821 q 339 765 343 789 q 333 714 335 740 l 333 222 l 732 725 q 815 822 785 790 q 869 865 846 854 q 922 878 893 876 q 963 881 947 881 q 993 881 979 881 q 1013 871 1008 881 q 1018 850 1018 861 q 1008 824 1017 826 q 983 821 999 821 q 922 805 940 821 q 899 765 903 789 q 893 714 894 740 l 893 163 q 899 112 894 136 q 922 72 903 88 q 983 56 940 56 q 1008 53 999 56 q 1018 26 1017 50 q 1013 6 1018 15 q 993 -4 1007 -4 q 910 -1 949 -1 q 829 0 871 0 q 657 -4 747 0 q 638 6 643 -4 q 632 26 632 15 q 643 53 633 50 q 667 56 653 56 q 729 72 711 56 q 752 112 747 88 q 757 163 757 136 l 757 653 l 357 153 q 278 60 308 93 q 226 15 249 28 q 176 -1 204 1 q 135 -4 156 -3 q 96 -4 115 -6 m 549 939 q 464 988 507 961 q 376 1042 421 1014 q 330 1087 344 1063 q 339 1138 315 1111 q 387 1156 363 1164 q 442 1124 411 1147 q 496 1078 468 1104 q 549 1026 524 1051 q 589 986 574 1001 q 595 962 600 976 q 577 940 590 947 q 549 939 564 932 z "},"К":{"ha":1022,"x_min":71,"x_max":1004,"o":"m 865 -14 q 740 19 789 -14 q 660 103 692 51 q 603 213 628 154 q 549 322 578 271 q 478 406 521 374 q 369 439 436 439 l 333 439 l 333 163 q 339 112 335 136 q 362 72 343 88 q 424 56 381 56 q 449 53 439 56 q 460 26 458 50 q 453 6 460 15 q 435 -4 447 -4 q 263 0 346 0 q 181 -1 221 0 q 96 -4 140 -1 q 76 6 82 -4 q 71 26 71 15 q 82 53 72 50 q 106 56 92 56 q 168 72 150 56 q 191 112 186 88 q 197 163 196 136 l 197 714 q 191 765 196 740 q 168 805 186 789 q 106 821 150 821 q 82 824 92 821 q 71 850 72 826 q 76 871 71 861 q 96 881 82 881 q 180 878 140 879 q 261 876 219 876 q 435 881 346 876 q 453 871 447 881 q 460 850 460 861 q 449 824 458 826 q 424 821 439 821 q 362 805 381 821 q 339 765 343 789 q 333 714 335 740 l 333 494 l 399 494 q 483 521 440 494 q 558 608 526 547 q 595 692 576 643 q 639 789 614 742 q 700 869 664 836 q 789 906 736 903 q 864 887 833 906 q 910 839 894 868 q 926 781 926 810 q 910 724 926 747 q 872 690 893 701 q 839 678 851 678 q 828 685 828 678 q 810 749 828 719 q 765 778 793 778 q 710 758 733 778 q 672 710 688 739 q 644 651 656 682 q 621 597 632 621 q 564 515 597 547 q 494 476 531 483 l 494 472 q 611 440 564 472 q 692 359 658 408 q 750 256 725 310 q 797 153 775 201 q 846 76 819 106 q 908 49 872 46 q 940 65 929 51 q 960 92 951 78 q 978 106 968 106 q 999 96 993 107 q 1001 74 1004 85 q 973 22 996 42 q 921 -6 950 3 q 865 -14 892 -14 z "},"Ќ":{"ha":1022,"x_min":71,"x_max":1004,"o":"m 865 -14 q 740 19 789 -14 q 660 103 692 51 q 603 213 628 154 q 549 322 578 271 q 478 406 521 374 q 369 439 436 439 l 333 439 l 333 163 q 339 112 335 136 q 362 72 343 88 q 424 56 381 56 q 449 53 439 56 q 460 26 458 50 q 453 6 460 15 q 435 -4 447 -4 q 263 0 346 0 q 181 -1 221 0 q 96 -4 140 -1 q 76 6 82 -4 q 71 26 71 15 q 82 53 72 50 q 106 56 92 56 q 168 72 150 56 q 191 112 186 88 q 197 163 196 136 l 197 714 q 191 765 196 740 q 168 805 186 789 q 106 821 150 821 q 82 824 92 821 q 71 850 72 826 q 76 871 71 861 q 96 881 82 881 q 180 878 140 879 q 261 876 219 876 q 435 881 346 876 q 453 871 447 881 q 460 850 460 861 q 449 824 458 826 q 424 821 439 821 q 362 805 381 821 q 339 765 343 789 q 333 714 335 740 l 333 494 l 399 494 q 483 521 440 494 q 558 608 526 547 q 595 692 576 643 q 639 789 614 742 q 700 869 664 836 q 789 906 736 903 q 864 887 833 906 q 910 839 894 868 q 926 781 926 810 q 910 724 926 747 q 872 690 893 701 q 839 678 851 678 q 828 685 828 678 q 810 749 828 719 q 765 778 793 778 q 710 758 733 778 q 672 710 688 739 q 644 651 656 682 q 621 597 632 621 q 564 515 597 547 q 494 476 531 483 l 494 472 q 611 440 564 472 q 692 359 658 408 q 750 256 725 310 q 797 153 775 201 q 846 76 819 106 q 908 49 872 46 q 940 65 929 51 q 960 92 951 78 q 978 106 968 106 q 999 96 993 107 q 1001 74 1004 85 q 973 22 996 42 q 921 -6 950 3 q 865 -14 892 -14 m 553 961 q 526 962 539 954 q 508 984 513 969 q 513 1008 503 999 q 553 1049 528 1024 q 606 1100 578 1074 q 660 1146 635 1126 q 695 1170 679 1161 q 726 1179 711 1179 q 763 1160 747 1179 q 772 1109 786 1133 q 725 1064 757 1085 q 638 1010 682 1036 q 553 961 594 983 z "},"Л":{"ha":1076,"x_min":38,"x_max":1006,"o":"m 200 -14 q 78 25 119 -14 q 38 115 38 64 q 67 191 38 163 q 138 219 96 219 q 165 215 154 219 q 176 207 175 211 q 169 190 176 203 q 161 156 161 176 q 219 101 161 101 q 305 178 274 101 q 356 392 336 254 q 397 714 376 531 q 386 798 404 775 q 313 821 368 821 q 289 824 299 821 q 278 850 279 826 q 283 871 278 861 q 303 881 289 881 q 387 878 347 879 q 467 876 426 876 l 817 876 q 897 878 858 876 q 981 881 936 879 q 1000 871 994 881 q 1006 850 1006 861 q 995 824 1004 826 q 971 821 986 821 q 899 792 915 821 q 881 714 882 764 l 881 163 q 886 112 882 136 q 909 72 890 88 q 971 56 928 56 q 995 53 986 56 q 1006 26 1004 50 q 1000 6 1006 15 q 981 -4 994 -4 q 897 -1 936 -1 q 815 0 857 0 q 643 -4 733 0 q 624 6 629 -4 q 618 26 618 15 q 629 53 619 50 q 653 56 639 56 q 715 72 697 56 q 738 112 733 88 q 743 163 743 136 l 743 817 l 549 817 q 495 803 513 817 q 471 724 478 789 q 438 435 456 569 q 392 201 419 301 q 318 43 364 100 q 200 -14 272 -14 z "},"М":{"ha":1235,"x_min":58,"x_max":1175,"o":"m 594 -7 q 578 -3 586 -7 q 565 7 569 0 l 253 714 l 249 714 l 251 163 q 256 112 253 136 q 278 72 260 88 q 339 56 296 56 q 364 53 354 56 q 375 26 374 50 q 369 6 375 15 q 350 -4 363 -4 q 303 -2 321 -3 q 268 -1 285 -1 q 224 0 251 0 q 156 -1 182 0 q 86 -4 131 -1 q 67 6 72 -4 q 61 26 61 15 q 72 53 63 50 q 96 56 82 56 q 158 72 140 56 q 179 112 175 88 q 183 163 183 136 l 186 714 q 176 780 186 758 q 146 810 167 801 q 93 825 125 819 q 66 832 74 829 q 58 857 58 835 q 75 883 58 881 q 114 885 92 885 q 234 874 182 885 q 325 831 286 863 q 389 738 364 800 l 628 201 l 632 201 l 906 876 l 985 876 q 1066 878 1026 876 q 1150 881 1106 879 q 1169 871 1164 881 q 1175 850 1175 861 q 1164 824 1174 826 q 1140 821 1154 821 q 1078 805 1097 821 q 1056 765 1060 789 q 1050 714 1051 740 l 1050 163 q 1056 112 1051 136 q 1078 72 1060 88 q 1140 56 1097 56 q 1164 53 1154 56 q 1175 26 1174 50 q 1169 6 1175 15 q 1150 -4 1164 -4 q 1065 -1 1106 -1 q 983 0 1025 0 q 813 -4 903 0 q 793 6 799 -4 q 788 26 788 15 q 799 53 789 50 q 822 56 808 56 q 885 72 867 56 q 908 112 903 88 q 913 163 913 136 l 913 714 l 908 714 l 622 7 q 611 -3 619 0 q 594 -7 603 -7 z "},"Н":{"ha":1079,"x_min":60,"x_max":1021,"o":"m 85 -4 q 65 6 71 -4 q 60 26 60 15 q 71 53 61 50 q 94 56 81 56 q 157 72 139 56 q 180 112 175 88 q 185 163 185 136 l 185 714 q 180 765 185 740 q 157 805 175 789 q 94 821 139 821 q 71 824 81 821 q 60 850 61 826 q 65 871 60 861 q 85 881 71 881 q 168 878 129 879 q 249 876 207 876 q 422 881 333 876 q 442 871 436 881 q 447 850 447 861 q 437 824 446 826 q 413 821 428 821 q 351 805 369 821 q 328 765 332 789 q 322 714 324 740 l 322 468 l 758 468 l 758 714 q 753 765 758 740 q 731 805 749 789 q 668 821 713 821 q 644 824 654 821 q 632 850 633 826 q 638 871 632 861 q 657 881 644 881 q 831 876 747 876 q 912 878 872 876 q 996 881 951 879 q 1015 871 1008 881 q 1021 850 1021 861 q 1010 824 1019 826 q 986 821 1000 821 q 924 805 943 821 q 900 765 904 789 q 894 714 896 740 l 894 163 q 900 112 896 136 q 924 72 904 88 q 986 56 943 56 q 1010 53 1000 56 q 1021 26 1019 50 q 1015 6 1021 15 q 996 -4 1008 -4 q 911 -1 951 -1 q 829 0 871 0 q 657 -4 747 0 q 638 6 644 -4 q 632 26 632 15 q 644 53 633 50 q 668 56 654 56 q 731 72 713 56 q 753 112 749 88 q 758 163 758 136 l 758 408 l 322 408 l 322 163 q 328 112 324 136 q 351 72 332 88 q 413 56 369 56 q 437 53 428 56 q 447 26 446 50 q 442 6 447 15 q 422 -4 436 -4 q 250 0 333 0 q 169 -1 208 0 q 85 -4 129 -1 z "},"О":{"ha":1021,"x_min":65,"x_max":956,"o":"m 508 -28 q 325 10 407 -28 q 185 111 243 47 q 96 256 126 175 q 65 426 65 338 q 105 631 65 542 q 210 781 144 719 q 353 873 275 842 q 508 904 432 904 q 695 867 613 904 q 836 765 778 829 q 925 620 894 701 q 956 451 956 539 q 915 247 956 336 q 808 97 875 158 q 663 4 742 36 q 508 -28 585 -28 m 507 33 q 668 92 606 33 q 760 245 731 150 q 790 451 790 340 q 759 645 790 556 q 665 790 728 735 q 507 844 603 844 q 348 787 410 844 q 257 635 286 729 q 228 431 228 542 q 258 235 228 326 q 350 89 288 144 q 507 33 413 33 z "},"П":{"ha":1068,"x_min":71,"x_max":997,"o":"m 96 -4 q 76 6 82 -4 q 71 26 71 15 q 82 53 72 50 q 106 56 92 56 q 168 72 150 56 q 191 112 186 88 q 196 163 196 136 l 196 714 q 191 765 196 740 q 168 805 186 789 q 106 821 150 821 q 82 824 92 821 q 71 850 72 826 q 76 871 71 861 q 96 881 82 881 q 179 878 140 879 q 260 876 218 876 l 800 876 q 972 881 883 876 q 991 871 985 881 q 997 850 997 861 q 986 824 996 826 q 961 821 976 821 q 899 805 918 821 q 876 765 881 789 q 871 714 872 740 l 871 163 q 876 112 872 136 q 899 72 881 88 q 961 56 918 56 q 986 53 976 56 q 997 26 996 50 q 991 6 997 15 q 972 -4 985 -4 q 799 0 883 0 q 717 -1 757 0 q 633 -4 678 -1 q 614 6 619 -4 q 608 26 608 15 q 619 53 610 50 q 643 56 629 56 q 706 72 688 56 q 728 112 724 88 q 735 163 733 136 l 735 821 l 424 821 q 358 808 376 824 q 336 768 339 793 q 333 714 333 743 l 333 163 q 339 112 335 136 q 362 72 343 88 q 424 56 381 56 q 448 53 439 56 q 458 26 457 50 q 453 6 458 15 q 433 -4 447 -4 q 261 0 344 0 q 180 -1 219 0 q 96 -4 140 -1 z "},"Р":{"ha":839,"x_min":58,"x_max":806,"o":"m 83 -4 q 65 6 71 -4 q 58 26 58 15 q 70 53 60 50 q 94 56 81 56 q 157 72 139 56 q 180 112 175 88 q 185 163 185 136 l 185 714 q 180 765 185 740 q 157 805 175 789 q 94 821 139 821 q 70 824 81 821 q 58 850 60 826 q 65 871 58 861 q 83 881 71 881 q 168 878 128 879 q 250 876 208 876 l 458 876 q 527 872 485 876 q 617 856 569 868 q 708 815 665 843 q 778 742 751 788 q 806 626 806 696 q 776 508 806 561 q 697 418 746 456 q 585 360 647 381 q 460 340 524 340 q 393 344 429 340 q 321 363 357 349 l 321 163 q 326 112 322 136 q 349 72 331 88 q 411 56 368 56 q 436 53 426 56 q 447 26 446 50 q 441 6 447 15 q 422 -4 435 -4 q 249 0 333 0 q 167 -1 207 0 q 83 -4 128 -1 m 419 403 q 491 413 451 403 q 567 448 531 424 q 628 515 604 472 q 651 622 651 557 q 624 734 651 693 q 555 794 596 775 q 474 819 514 814 q 408 825 433 825 q 356 818 375 825 q 328 788 336 811 q 321 718 321 765 l 321 418 q 361 408 335 413 q 419 403 388 403 z "},"С":{"ha":888,"x_min":68,"x_max":843,"o":"m 497 -28 q 283 28 381 -28 q 127 186 186 83 q 68 432 68 289 q 124 680 68 574 q 281 845 179 786 q 522 904 383 904 q 626 894 572 904 q 725 862 679 885 q 799 801 771 839 q 828 708 828 764 q 792 603 829 649 q 686 558 754 558 q 627 578 644 558 q 611 608 610 599 q 628 623 611 613 q 663 655 646 633 q 681 713 681 676 q 639 812 681 775 q 521 849 597 849 q 372 801 438 849 q 268 663 306 754 q 231 440 231 572 q 270 238 231 329 q 381 94 310 147 q 547 40 453 40 q 676 72 622 40 q 772 172 729 103 q 817 176 785 196 q 836 156 829 168 q 833 132 843 144 q 733 31 781 65 q 631 -15 686 -3 q 497 -28 575 -28 z "},"Т":{"ha":833,"x_min":36,"x_max":799,"o":"m 249 -4 q 229 6 235 -4 q 224 26 224 15 q 235 53 225 50 q 258 56 244 56 q 321 72 303 56 q 344 112 339 88 q 349 163 349 136 l 349 825 l 253 825 q 179 805 206 824 q 140 747 153 786 q 118 644 128 707 q 101 626 117 632 q 69 619 85 619 q 48 626 60 619 q 36 647 36 633 l 40 843 q 51 869 40 863 q 78 876 63 876 l 757 876 q 783 869 772 876 q 793 843 793 863 l 799 647 q 787 626 799 633 q 764 619 775 619 q 735 626 750 619 q 717 644 719 632 q 694 747 707 707 q 655 805 681 786 q 581 825 629 824 l 486 825 l 486 163 q 492 112 488 136 q 515 72 496 88 q 576 56 533 56 q 600 53 590 56 q 611 26 610 50 q 606 6 611 15 q 586 -4 600 -4 q 502 -1 542 -1 q 422 0 463 0 q 249 -4 339 0 z "},"У":{"ha":914,"x_min":39,"x_max":921,"o":"m 261 -24 q 138 15 183 -24 q 94 110 93 53 q 126 190 96 161 q 196 218 157 218 q 240 207 224 218 q 256 189 256 196 q 244 173 256 183 q 231 135 232 163 q 247 81 229 104 q 301 58 264 58 q 453 189 393 58 q 381 324 419 250 q 306 473 343 399 q 236 611 268 547 q 182 715 204 675 q 151 772 164 750 q 121 806 138 793 q 74 824 104 818 q 47 831 54 828 q 39 856 39 833 q 56 882 39 879 q 94 883 72 885 q 198 869 160 882 q 264 825 236 856 q 324 739 292 794 q 367 650 343 703 q 428 522 392 597 q 524 343 465 447 l 528 343 l 707 751 q 707 799 719 785 q 667 817 694 814 q 608 821 640 821 q 585 824 594 821 q 574 850 575 826 q 579 871 574 861 q 597 881 585 881 q 679 878 642 879 q 758 876 717 876 q 826 878 800 876 q 896 881 851 879 q 915 871 910 881 q 921 850 921 861 q 910 824 919 826 q 886 821 901 821 q 833 811 851 821 q 804 781 815 801 q 776 726 793 760 l 525 192 q 413 32 475 88 q 261 -24 351 -24 z "},"Ў":{"ha":914,"x_min":39,"x_max":921,"o":"m 261 -24 q 138 15 183 -24 q 94 110 93 53 q 126 190 96 161 q 196 218 157 218 q 240 207 224 218 q 256 189 256 196 q 244 173 256 183 q 231 135 232 163 q 247 81 229 104 q 301 58 264 58 q 453 189 393 58 q 381 324 419 250 q 306 473 343 399 q 236 611 268 547 q 182 715 204 675 q 151 772 164 750 q 121 806 138 793 q 74 824 104 818 q 47 831 54 828 q 39 856 39 833 q 56 882 39 879 q 94 883 72 885 q 198 869 160 882 q 264 825 236 856 q 324 739 292 794 q 367 650 343 703 q 428 522 392 597 q 524 343 465 447 l 528 343 l 707 751 q 707 799 719 785 q 667 817 694 814 q 608 821 640 821 q 585 824 594 821 q 574 850 575 826 q 579 871 574 861 q 597 881 585 881 q 679 878 642 879 q 758 876 717 876 q 826 878 800 876 q 896 881 851 879 q 915 871 910 881 q 921 850 921 861 q 910 824 919 826 q 886 821 901 821 q 833 811 851 821 q 804 781 815 801 q 776 726 793 760 l 525 192 q 413 32 475 88 q 261 -24 351 -24 m 661 1175 q 710 1157 690 1175 q 729 1104 729 1139 q 690 1022 729 1054 q 590 973 651 989 q 463 957 529 957 q 335 973 397 957 q 235 1022 274 989 q 196 1104 196 1054 q 215 1157 196 1139 q 264 1175 235 1175 q 310 1158 293 1175 q 340 1115 328 1140 q 367 1065 353 1090 q 403 1022 381 1039 q 463 1004 425 1004 q 522 1022 500 1004 q 558 1065 544 1039 q 585 1115 572 1090 q 615 1158 597 1140 q 661 1175 632 1175 z "},"Ф":{"ha":1138,"x_min":79,"x_max":1058,"o":"m 400 -4 q 381 6 386 -4 q 375 26 375 15 q 386 53 376 50 q 410 56 396 56 q 472 66 454 56 q 493 94 489 76 q 499 132 497 111 q 356 149 429 133 q 219 199 282 164 q 118 297 157 235 q 79 453 79 358 q 118 603 79 544 q 220 697 157 663 q 357 746 283 731 q 499 763 431 761 q 493 801 497 783 q 472 828 489 818 q 410 839 454 839 q 386 842 396 839 q 375 868 376 844 q 381 889 375 879 q 400 899 386 899 q 484 896 444 897 q 564 894 524 894 q 738 899 649 894 q 757 889 751 899 q 763 868 763 879 q 752 842 761 844 q 728 839 743 839 q 667 828 685 839 q 645 801 649 818 q 639 763 642 783 q 781 746 707 761 q 917 697 854 731 q 1019 603 981 663 q 1058 453 1058 544 q 1019 297 1058 358 q 918 199 981 235 q 782 149 856 164 q 639 132 708 133 q 645 94 642 111 q 667 66 649 76 q 728 56 685 56 q 752 53 743 56 q 763 26 761 50 q 757 6 763 15 q 738 -4 751 -4 q 564 0 649 0 q 484 -1 524 0 q 400 -4 444 -1 m 500 176 l 500 718 q 368 692 429 715 q 269 613 307 669 q 232 453 232 556 q 272 290 232 349 q 373 206 311 231 q 500 176 435 181 m 638 176 q 765 206 704 181 q 866 290 826 231 q 906 453 906 349 q 868 613 906 556 q 769 692 831 669 q 638 718 708 715 l 638 176 z "},"Х":{"ha":907,"x_min":10,"x_max":915,"o":"m 35 -4 q 15 6 21 -4 q 10 26 10 15 q 21 53 11 50 q 44 56 31 56 q 103 64 81 56 q 145 93 125 72 q 190 150 165 114 l 392 436 l 214 715 q 147 791 179 768 q 71 824 115 814 q 44 831 51 828 q 36 856 36 833 q 53 881 36 879 q 92 883 69 883 q 203 869 157 883 q 287 824 250 856 q 360 739 324 792 l 474 553 l 611 753 q 620 810 642 799 q 550 821 599 821 q 526 824 536 821 q 515 850 517 826 q 521 871 515 861 q 539 881 526 881 q 616 878 583 879 q 690 876 649 876 q 759 878 732 876 q 831 881 786 879 q 850 871 844 881 q 856 850 856 861 q 845 824 854 826 q 821 821 836 821 q 763 813 786 821 q 719 783 739 804 q 675 726 700 763 l 513 496 l 754 151 q 806 86 778 117 q 881 56 835 56 q 905 53 896 56 q 915 26 914 50 q 910 6 915 15 q 892 -4 904 -4 q 807 -1 847 -1 q 725 0 767 0 q 556 -4 646 0 q 536 6 542 -4 q 531 26 531 15 q 542 53 532 50 q 565 56 551 56 q 618 76 607 56 q 610 124 629 97 l 432 378 l 254 124 q 246 67 224 79 q 315 56 268 56 q 340 53 331 56 q 350 26 349 50 q 344 6 350 15 q 326 -4 339 -4 q 249 -1 282 -1 q 175 0 217 0 q 106 -1 133 0 q 35 -4 79 -1 z "},"Ч":{"ha":982,"x_min":26,"x_max":911,"o":"m 549 -4 q 529 6 535 -4 q 524 26 524 15 q 535 53 525 50 q 558 56 544 56 q 621 72 603 56 q 644 112 639 88 q 649 163 649 136 l 649 408 q 545 373 583 385 q 483 357 507 361 q 435 351 460 353 q 292 376 357 350 q 196 442 228 401 q 165 501 178 465 q 153 603 153 536 l 153 714 q 148 765 153 740 q 125 805 143 789 q 63 821 107 821 q 39 824 49 821 q 26 850 29 826 q 33 871 26 861 q 51 881 39 881 q 135 878 96 879 q 217 876 175 876 q 390 881 301 876 q 410 871 404 881 q 415 850 415 861 q 404 824 414 826 q 381 821 394 821 q 319 805 338 821 q 295 765 300 789 q 289 714 290 740 l 289 618 q 316 505 289 547 q 390 444 343 463 q 492 426 436 426 q 570 438 532 426 q 649 468 608 449 l 649 714 q 644 765 649 740 q 621 805 639 789 q 558 821 603 821 q 535 824 544 821 q 524 850 525 826 q 529 871 524 861 q 549 881 535 881 q 722 876 639 876 q 802 878 763 876 q 886 881 842 879 q 906 871 900 881 q 911 850 911 861 q 900 824 910 826 q 876 821 890 821 q 815 805 833 821 q 792 765 796 789 q 786 714 788 740 l 786 163 q 792 112 788 136 q 815 72 796 88 q 876 56 833 56 q 900 53 890 56 q 911 26 910 50 q 906 6 911 15 q 886 -4 900 -4 q 801 -1 842 -1 q 719 0 761 0 q 549 -4 639 0 z "},"Ц":{"ha":1132,"x_min":71,"x_max":1132,"o":"m 389 -342 q 352 -313 363 -342 q 342 -262 342 -285 q 372 -172 342 -206 q 447 -122 401 -137 q 538 -107 492 -107 q 644 -125 593 -107 q 744 -166 694 -143 q 845 -207 794 -189 q 951 -225 896 -225 q 1040 -193 1010 -225 q 1069 -122 1069 -161 q 1036 -38 1069 -76 q 922 0 1003 0 l 258 0 q 178 -1 217 0 q 96 -4 140 -1 q 76 6 82 -4 q 71 26 71 15 q 82 53 72 50 q 106 56 92 56 q 168 72 150 56 q 191 112 186 88 q 196 163 196 136 l 196 714 q 191 765 196 740 q 168 805 186 789 q 106 821 150 821 q 82 824 92 821 q 71 850 72 826 q 76 871 71 861 q 96 881 82 881 q 178 878 140 879 q 257 876 215 876 q 344 878 297 876 q 435 881 390 879 q 453 871 447 881 q 458 850 458 861 q 448 824 457 826 q 424 821 439 821 q 362 805 381 821 q 339 765 343 789 q 333 714 335 740 l 333 171 q 356 78 333 101 q 438 56 378 56 l 756 56 l 756 714 q 751 765 756 740 q 728 805 746 789 q 665 821 710 821 q 641 824 651 821 q 629 850 631 826 q 635 871 629 861 q 654 881 642 881 q 739 878 699 879 q 821 876 779 876 q 993 881 904 876 q 1012 871 1006 881 q 1018 850 1018 861 q 1007 824 1017 826 q 982 821 997 821 q 920 805 939 821 q 897 765 901 789 q 892 714 893 740 l 892 185 q 908 110 892 136 q 951 69 925 83 q 1008 43 978 54 q 1065 15 1038 32 q 1110 -33 1092 -1 q 1132 -121 1129 -64 q 1070 -279 1132 -217 q 875 -342 1008 -342 q 758 -322 813 -342 q 656 -276 704 -303 q 561 -231 607 -250 q 469 -211 515 -211 q 413 -229 432 -211 q 394 -271 394 -247 q 406 -299 394 -287 q 417 -317 417 -310 q 408 -334 417 -326 q 389 -342 400 -342 z "},"Ш":{"ha":1475,"x_min":71,"x_max":1404,"o":"m 96 -4 q 76 6 82 -4 q 71 26 71 15 q 82 53 72 50 q 106 56 92 56 q 168 72 150 56 q 191 112 186 88 q 196 163 196 136 l 196 714 q 191 765 196 740 q 168 805 186 789 q 106 821 150 821 q 82 824 92 821 q 71 850 72 826 q 76 871 71 861 q 96 881 82 881 q 180 878 140 879 q 260 876 219 876 q 340 878 301 876 q 424 881 379 879 q 443 871 438 881 q 449 850 449 861 q 438 824 447 826 q 414 821 428 821 q 354 805 371 821 q 336 765 338 789 q 333 714 335 740 l 333 171 q 356 78 333 101 q 436 56 378 56 l 668 56 l 668 714 q 665 765 668 740 q 647 805 663 789 q 586 821 631 821 q 562 824 572 821 q 550 850 551 826 q 556 871 550 861 q 575 881 563 881 q 656 878 619 879 q 733 876 692 876 q 813 878 775 876 q 896 881 851 879 q 915 871 910 881 q 921 850 921 861 q 910 824 919 826 q 886 821 901 821 q 826 805 843 821 q 808 765 810 789 q 806 714 807 740 l 806 171 q 828 78 806 101 q 910 56 850 56 l 1142 56 l 1142 714 q 1139 765 1142 740 q 1119 805 1136 789 q 1058 821 1103 821 q 1035 824 1044 821 q 1024 850 1025 826 q 1029 871 1024 861 q 1047 881 1035 881 q 1128 878 1092 879 q 1207 876 1165 876 q 1379 881 1290 876 q 1398 871 1392 881 q 1404 850 1404 861 q 1393 824 1403 826 q 1368 821 1383 821 q 1306 805 1325 821 q 1283 765 1288 789 q 1278 714 1279 740 l 1278 163 q 1283 112 1279 136 q 1306 72 1288 88 q 1368 56 1325 56 q 1393 53 1383 56 q 1404 26 1403 50 q 1398 6 1404 15 q 1379 -4 1392 -4 q 1206 0 1290 0 l 261 0 q 181 -1 221 0 q 96 -4 140 -1 z "},"Щ":{"ha":1547,"x_min":71,"x_max":1519,"o":"m 706 -342 q 669 -313 679 -342 q 658 -262 658 -285 q 692 -166 658 -201 q 776 -117 726 -131 q 875 -107 826 -103 q 988 -128 933 -110 q 1099 -168 1043 -146 q 1213 -208 1154 -190 q 1339 -225 1272 -225 q 1427 -193 1397 -225 q 1457 -122 1457 -161 q 1424 -38 1457 -76 q 1310 0 1390 0 l 263 0 q 181 -1 221 0 q 96 -4 140 -1 q 76 6 82 -4 q 71 26 71 15 q 82 53 72 50 q 106 56 92 56 q 168 72 150 56 q 191 112 186 88 q 196 163 196 136 l 196 714 q 191 765 196 740 q 168 805 186 789 q 106 821 150 821 q 82 824 92 821 q 71 850 72 826 q 76 871 71 861 q 96 881 82 881 q 180 878 140 879 q 261 876 219 876 q 341 878 303 876 q 424 881 379 879 q 443 871 438 881 q 449 850 449 861 q 438 824 447 826 q 414 821 429 821 q 354 805 371 821 q 336 765 338 789 q 333 714 335 740 l 333 171 q 356 78 333 101 q 438 56 378 56 l 669 56 l 669 714 q 667 765 669 740 q 647 805 664 789 q 586 821 631 821 q 563 824 572 821 q 551 850 553 826 q 557 871 551 861 q 575 881 563 881 q 656 878 619 879 q 733 876 692 876 q 813 878 775 876 q 896 881 851 879 q 915 871 910 881 q 921 850 921 861 q 910 824 919 826 q 886 821 901 821 q 826 805 843 821 q 808 765 810 789 q 806 714 807 740 l 806 171 q 828 78 806 101 q 910 56 850 56 l 1142 56 l 1142 714 q 1139 765 1142 740 q 1119 805 1136 789 q 1058 821 1103 821 q 1035 824 1044 821 q 1024 850 1025 826 q 1029 871 1024 861 q 1049 881 1035 881 q 1129 878 1093 879 q 1207 876 1165 876 q 1379 881 1290 876 q 1399 871 1393 881 q 1404 850 1404 861 q 1393 824 1403 826 q 1369 821 1383 821 q 1308 805 1326 821 q 1285 765 1289 789 q 1279 714 1281 740 l 1279 185 q 1296 110 1279 136 q 1339 69 1313 83 q 1395 43 1365 54 q 1452 15 1425 32 q 1498 -33 1479 -1 q 1519 -121 1517 -64 q 1442 -289 1518 -236 q 1244 -342 1367 -342 q 1130 -324 1185 -342 q 1022 -283 1075 -307 q 913 -239 968 -260 q 796 -211 857 -218 q 731 -228 751 -208 q 711 -271 711 -247 q 722 -299 711 -287 q 733 -317 733 -310 q 725 -334 733 -326 q 706 -342 717 -342 z "},"Џ":{"ha":1044,"x_min":60,"x_max":986,"o":"m 522 -339 q 476 -317 494 -339 q 458 -261 458 -296 q 470 -141 458 -214 q 500 0 482 -68 l 257 0 q 85 -4 175 0 q 66 6 72 -4 q 60 26 60 15 q 72 53 63 50 q 96 56 82 56 q 158 72 140 56 q 181 112 176 88 q 186 163 186 136 l 186 714 q 181 765 186 740 q 158 805 176 789 q 96 821 140 821 q 72 824 82 821 q 60 850 63 826 q 66 871 60 861 q 85 881 72 881 q 258 876 175 876 q 340 878 300 876 q 424 881 379 879 q 443 871 438 881 q 449 850 449 861 q 438 824 447 826 q 414 821 428 821 q 352 805 371 821 q 328 765 333 789 q 322 714 324 740 l 322 56 l 633 56 q 699 69 681 54 q 721 109 718 83 q 724 163 724 135 l 724 714 q 719 765 724 740 q 696 805 714 789 q 633 821 678 821 q 610 824 619 821 q 599 850 600 826 q 604 871 599 861 q 624 881 610 881 q 796 876 714 876 q 877 878 838 876 q 961 881 917 879 q 981 871 975 881 q 986 850 986 861 q 976 824 985 826 q 951 821 967 821 q 890 805 908 821 q 867 765 871 789 q 861 714 863 740 l 861 163 q 867 112 863 136 q 890 72 871 88 q 951 56 908 56 q 976 53 967 56 q 986 26 985 50 q 981 6 986 15 q 961 -4 975 -4 q 878 -1 917 -1 q 797 0 839 0 l 546 0 q 577 -141 565 -68 q 589 -261 589 -214 q 572 -317 589 -294 q 522 -339 554 -339 z "},"Ь":{"ha":869,"x_min":71,"x_max":818,"o":"m 96 -4 q 76 6 82 -4 q 71 26 71 15 q 82 53 72 50 q 106 56 92 56 q 168 72 150 56 q 191 112 186 88 q 196 163 196 136 l 196 714 q 191 765 196 740 q 168 805 186 789 q 106 821 150 821 q 82 824 92 821 q 71 850 72 826 q 76 871 71 861 q 96 881 82 881 q 179 878 140 879 q 260 876 218 876 q 433 881 344 876 q 453 871 447 881 q 458 850 458 861 q 447 824 457 826 q 424 821 438 821 q 362 805 381 821 q 339 765 343 789 q 333 714 335 740 l 333 522 q 476 535 411 535 q 666 498 590 535 q 780 401 742 461 q 818 267 818 340 q 782 136 818 188 q 688 55 746 85 q 562 13 629 25 q 432 0 494 0 l 261 0 q 180 -1 219 0 q 96 -4 140 -1 m 421 56 q 545 76 490 57 q 632 140 600 94 q 664 265 664 185 q 628 385 664 339 q 536 452 592 431 q 421 474 481 474 q 376 472 399 474 q 333 465 354 471 l 333 165 q 351 75 332 94 q 421 56 369 56 z "},"Ъ":{"ha":979,"x_min":36,"x_max":928,"o":"m 233 -4 q 214 6 219 -4 q 208 26 208 15 q 219 53 210 50 q 243 56 229 56 q 306 72 288 56 q 328 112 324 88 q 333 163 333 136 l 333 817 l 254 817 q 180 796 206 815 q 142 737 154 776 q 118 635 129 697 q 103 616 117 622 q 75 610 90 610 q 50 617 64 610 q 36 638 36 624 l 40 843 q 51 869 40 863 q 78 876 63 876 l 399 876 q 572 881 483 876 q 590 871 585 881 q 596 850 596 861 q 585 824 594 826 q 561 821 576 821 q 499 805 518 821 q 476 765 481 789 q 471 714 472 740 l 471 522 q 614 535 550 535 q 789 498 719 535 q 893 401 858 461 q 928 267 928 340 q 894 136 928 188 q 806 55 860 85 q 690 13 751 25 q 571 0 628 0 l 400 0 q 318 -1 358 0 q 233 -4 278 -1 m 558 56 q 669 76 621 57 q 746 140 718 94 q 774 265 774 185 q 744 385 774 339 q 667 452 715 431 q 558 474 618 474 q 514 472 536 474 q 471 465 492 471 l 471 165 q 489 75 469 94 q 558 56 508 56 z "},"Ы":{"ha":1240,"x_min":60,"x_max":1182,"o":"m 85 -4 q 65 6 71 -4 q 60 26 60 15 q 70 53 60 50 q 94 56 81 56 q 157 72 139 56 q 180 112 175 88 q 185 163 185 136 l 185 714 q 180 765 185 740 q 157 805 175 789 q 94 821 139 821 q 70 824 81 821 q 60 850 60 826 q 65 872 60 861 q 85 881 71 882 q 168 877 129 878 q 249 876 207 876 q 334 878 290 876 q 422 881 378 881 q 442 871 436 881 q 447 850 447 861 q 438 824 447 826 q 413 821 428 821 q 351 805 369 821 q 328 765 332 789 q 322 714 324 740 l 322 522 q 465 535 401 535 q 640 498 571 535 q 744 401 710 461 q 779 267 779 340 q 745 136 779 188 q 657 55 711 85 q 540 13 603 25 q 421 0 478 0 l 250 0 q 169 -2 210 0 q 85 -4 129 -4 m 819 -4 q 800 6 806 -4 q 794 26 794 15 q 806 53 796 50 q 829 56 815 56 q 892 72 874 56 q 915 112 910 88 q 919 163 919 136 l 919 714 q 915 765 919 740 q 892 805 910 789 q 829 821 874 821 q 806 824 815 821 q 794 850 796 826 q 800 871 794 861 q 819 881 806 881 q 992 876 910 876 q 1073 878 1033 876 q 1157 881 1113 879 q 1176 871 1171 881 q 1182 850 1182 861 q 1172 824 1181 826 q 1147 821 1163 821 q 1085 805 1104 821 q 1063 765 1067 789 q 1057 714 1058 740 l 1057 163 q 1063 112 1058 136 q 1085 72 1067 88 q 1147 56 1104 56 q 1172 53 1163 56 q 1182 26 1181 50 q 1176 6 1182 15 q 1157 -4 1171 -4 q 1074 -1 1113 -1 q 993 0 1035 0 q 819 -4 910 0 m 410 56 q 521 76 472 57 q 597 140 569 94 q 625 265 625 185 q 593 385 625 339 q 512 452 561 431 q 410 474 463 474 q 365 472 388 474 q 322 465 343 471 l 322 165 q 340 74 321 94 q 410 56 360 54 z "},"Љ":{"ha":1282,"x_min":38,"x_max":1231,"o":"m 200 -14 q 78 25 119 -14 q 38 115 38 64 q 67 191 38 163 q 138 219 96 219 q 165 215 154 219 q 176 207 175 211 q 169 190 176 203 q 161 156 161 176 q 219 101 161 101 q 306 178 274 101 q 358 392 338 254 q 397 714 379 531 q 386 798 404 775 q 313 821 368 821 q 288 824 299 821 q 278 850 278 826 q 283 872 278 861 q 303 881 289 882 q 387 877 347 878 q 467 876 426 876 l 761 876 q 842 878 803 876 q 925 881 881 881 q 944 871 939 881 q 950 850 950 861 q 940 824 950 826 q 915 821 931 821 q 842 792 860 821 q 825 714 825 764 l 825 528 q 931 535 883 535 q 1097 498 1031 535 q 1197 401 1164 461 q 1231 267 1231 340 q 1204 147 1231 196 q 1135 66 1178 97 q 1040 19 1092 35 q 936 -3 988 3 q 925 -4 931 -4 q 917 -4 921 -4 q 874 -4 894 -4 l 874 -1 q 817 0 844 0 q 760 0 789 0 q 675 -2 718 0 q 588 -4 632 -4 q 568 6 574 -4 q 563 26 563 15 q 573 53 563 50 q 597 56 583 56 q 660 72 642 56 q 683 112 678 88 q 688 163 688 136 l 688 817 l 549 817 q 495 803 513 817 q 471 724 478 789 q 438 435 456 569 q 392 201 421 301 q 318 43 364 100 q 200 -14 272 -14 m 825 163 q 829 114 825 138 q 849 74 833 90 q 903 56 865 58 q 992 78 953 58 q 1053 144 1031 99 q 1076 265 1076 189 q 1047 385 1076 339 q 970 452 1017 431 q 875 474 924 474 q 850 473 863 474 q 825 472 838 472 l 825 163 z "},"Њ":{"ha":1361,"x_min":60,"x_max":1310,"o":"m 85 -4 q 65 6 71 -4 q 60 26 60 15 q 70 53 60 50 q 94 56 81 56 q 157 72 139 56 q 180 112 175 88 q 185 163 185 136 l 185 714 q 180 765 185 740 q 157 805 175 789 q 94 821 139 821 q 70 824 81 821 q 60 850 60 826 q 65 872 60 861 q 85 881 71 882 q 168 877 129 878 q 249 876 207 876 q 334 878 290 876 q 422 881 378 881 q 442 871 436 881 q 447 850 447 861 q 438 824 447 826 q 413 821 428 821 q 351 805 369 821 q 328 765 332 789 q 322 714 324 740 l 322 468 l 731 468 l 731 714 q 726 765 731 740 q 703 805 721 789 q 640 821 685 821 q 616 824 626 821 q 604 850 606 826 q 610 871 604 861 q 629 881 617 881 q 803 876 719 876 q 884 878 844 876 q 968 881 924 879 q 987 871 981 881 q 993 850 993 861 q 982 824 992 826 q 958 821 972 821 q 896 805 915 821 q 872 765 876 789 q 867 714 868 740 l 867 522 q 1010 535 946 535 q 1176 498 1110 535 q 1276 401 1243 461 q 1310 267 1310 340 q 1277 136 1310 188 q 1192 55 1244 85 q 1081 13 1140 25 q 965 0 1021 0 l 801 0 q 629 -4 719 0 q 610 6 617 -4 q 604 26 604 15 q 616 53 606 50 q 640 56 626 56 q 703 72 685 56 q 726 112 721 88 q 731 163 731 136 l 731 408 l 322 408 l 322 163 q 328 112 324 136 q 351 72 332 88 q 413 56 369 56 q 438 53 428 56 q 447 26 447 50 q 442 5 447 15 q 422 -4 436 -6 q 335 -1 378 -1 q 250 0 292 0 q 169 -2 208 0 q 85 -4 129 -4 m 958 56 q 1061 76 1017 57 q 1131 140 1106 94 q 1156 265 1156 185 q 1126 385 1156 339 q 1049 452 1096 431 q 954 474 1003 474 q 910 472 932 474 q 867 465 888 471 l 867 163 q 872 112 868 136 q 896 72 876 88 q 958 56 915 56 z "},"Ѕ":{"ha":757,"x_min":68,"x_max":693,"o":"m 368 -28 q 146 23 224 -28 q 68 172 68 74 q 102 255 68 222 q 190 288 136 288 q 241 269 226 286 q 256 244 256 253 q 243 235 256 242 q 218 213 231 229 q 206 164 206 197 q 244 65 206 101 q 368 28 283 28 q 470 51 428 28 q 535 110 513 74 q 557 186 557 147 q 524 282 557 244 q 437 347 490 319 q 324 399 383 374 q 210 456 264 424 q 122 535 157 488 q 86 656 88 583 q 124 798 85 743 q 232 878 163 853 q 386 904 301 904 q 509 886 449 904 q 609 830 569 868 q 649 729 649 792 q 615 647 649 679 q 526 614 581 614 q 476 633 490 617 q 461 657 461 649 q 478 667 461 661 q 511 690 494 674 q 528 738 528 706 q 488 819 528 790 q 388 847 447 847 q 256 805 297 847 q 215 710 215 763 q 243 626 215 658 q 326 564 271 594 q 453 502 389 531 q 572 439 517 474 q 660 352 626 404 q 693 218 693 300 q 649 92 693 147 q 532 4 606 36 q 368 -28 458 -28 z "},"Є":{"ha":888,"x_min":68,"x_max":843,"o":"m 497 -28 q 283 28 381 -28 q 127 186 186 83 q 68 432 68 289 q 124 680 68 574 q 281 845 179 786 q 522 904 383 904 q 626 894 572 904 q 725 862 679 885 q 799 801 771 839 q 828 708 828 764 q 792 603 829 649 q 686 558 754 558 q 627 578 644 558 q 611 608 610 599 q 628 623 611 613 q 663 655 646 633 q 681 713 681 676 q 639 812 681 775 q 521 849 597 849 q 319 750 400 849 q 231 468 238 651 l 571 468 q 587 457 582 467 q 592 436 592 447 q 587 417 592 426 q 571 408 582 408 l 232 408 q 278 221 238 304 q 388 89 319 138 q 547 40 457 40 q 676 72 622 40 q 772 172 729 103 q 817 176 785 196 q 836 156 829 168 q 833 132 843 144 q 733 31 781 65 q 631 -15 686 -3 q 497 -28 575 -28 z "},"Э":{"ha":935,"x_min":81,"x_max":846,"o":"m 403 -28 q 331 -24 378 -28 q 234 -4 285 -19 q 143 44 183 11 q 88 133 103 76 q 94 217 81 176 q 140 285 107 258 q 221 311 172 313 q 279 292 261 310 q 299 264 297 274 q 283 249 299 260 q 250 217 267 238 q 233 163 233 196 q 257 88 232 118 q 322 42 282 57 q 403 28 363 26 q 544 66 490 32 q 627 154 599 100 q 667 274 656 208 q 682 408 679 340 l 340 408 q 325 417 331 408 q 319 436 319 426 q 325 457 319 447 q 340 468 331 467 l 682 468 q 607 740 679 642 q 417 838 535 838 q 193 629 225 838 q 178 610 192 617 q 150 604 165 604 q 125 611 139 604 q 111 632 111 618 l 126 838 q 248 883 175 861 q 407 904 321 906 q 617 863 532 904 q 751 754 701 821 q 824 612 801 688 q 846 467 846 536 q 816 258 846 344 q 737 117 786 172 q 628 30 688 61 q 510 -14 569 -1 q 403 -28 451 -26 z "},"І":{"ha":506,"x_min":58,"x_max":447,"o":"m 83 -4 q 64 6 69 -4 q 58 26 58 15 q 69 53 60 50 q 93 56 79 56 q 156 72 138 56 q 178 112 174 88 q 185 163 183 136 l 185 714 q 178 765 183 740 q 156 805 174 789 q 93 821 138 821 q 69 824 79 821 q 58 850 60 826 q 64 871 58 861 q 83 881 69 881 q 167 878 128 879 q 249 876 207 876 q 422 881 333 876 q 441 871 435 881 q 447 850 447 861 q 436 824 446 826 q 411 821 426 821 q 349 805 368 821 q 326 765 331 789 q 321 714 322 740 l 321 163 q 326 112 322 136 q 349 72 331 88 q 411 56 368 56 q 436 53 426 56 q 447 26 446 50 q 441 6 447 15 q 422 -4 435 -4 q 250 0 333 0 q 168 -1 208 0 q 83 -4 128 -1 z "},"Ї":{"ha":506,"x_min":33,"x_max":471,"o":"m 83 -4 q 64 6 69 -4 q 58 26 58 15 q 69 53 60 50 q 93 56 79 56 q 156 72 138 56 q 178 112 174 88 q 185 163 183 136 l 185 714 q 178 765 183 740 q 156 805 174 789 q 93 821 138 821 q 69 824 79 821 q 58 850 60 826 q 64 871 58 861 q 83 881 69 881 q 167 878 128 879 q 249 876 207 876 q 422 881 333 876 q 441 871 435 881 q 447 850 447 861 q 436 824 446 826 q 411 821 426 821 q 349 805 368 821 q 326 765 331 789 q 321 714 322 740 l 321 163 q 326 112 322 136 q 349 72 331 88 q 411 56 368 56 q 436 53 426 56 q 447 26 446 50 q 441 6 447 15 q 422 -4 435 -4 q 250 0 333 0 q 168 -1 208 0 q 83 -4 128 -1 m 386 988 q 326 1013 351 988 q 300 1071 300 1038 q 326 1131 300 1107 q 388 1154 351 1154 q 447 1131 424 1154 q 471 1071 471 1107 q 447 1013 471 1038 q 386 988 422 988 m 119 988 q 59 1013 85 988 q 33 1071 33 1038 q 59 1131 33 1107 q 121 1154 85 1154 q 181 1131 157 1154 q 204 1071 204 1107 q 180 1013 204 1038 q 119 988 156 988 z "},"Ј":{"ha":501,"x_min":15,"x_max":454,"o":"m 54 -267 q 22 -243 31 -271 q 36 -208 15 -217 q 141 -122 108 -178 q 183 19 174 -67 q 192 225 192 106 l 192 714 q 187 765 192 740 q 164 805 182 789 q 101 821 146 821 q 77 824 88 821 q 65 850 67 826 q 72 871 65 861 q 90 881 78 881 q 174 878 135 879 q 256 876 214 876 q 429 881 340 876 q 448 871 442 881 q 454 850 454 861 q 443 824 453 826 q 418 821 433 821 q 356 805 375 821 q 333 765 338 789 q 328 714 329 740 l 328 178 q 303 -24 328 68 q 218 -178 278 -115 q 54 -267 158 -242 z "},"Ћ":{"ha":1115,"x_min":36,"x_max":1053,"o":"m 221 -4 q 201 6 207 -4 q 196 26 196 15 q 207 53 197 50 q 231 56 217 56 q 293 72 275 56 q 316 112 311 88 q 321 163 321 136 l 321 825 l 253 825 q 180 805 206 824 q 142 747 154 786 q 118 644 129 707 q 101 626 117 632 q 69 619 85 619 q 48 626 60 619 q 36 647 36 633 l 40 843 q 51 869 40 863 q 78 876 63 876 l 757 876 q 782 869 772 876 q 793 843 792 863 l 799 647 q 787 626 799 633 q 764 619 775 619 q 735 626 750 619 q 717 644 719 632 q 694 747 707 707 q 655 805 681 786 q 581 825 629 824 l 458 825 l 458 454 q 562 491 524 479 q 624 507 600 503 q 672 511 649 511 q 859 453 792 514 q 926 260 926 392 l 926 163 q 932 112 928 136 q 955 72 936 88 q 1017 56 974 56 q 1042 53 1032 56 q 1053 26 1053 50 q 1047 5 1053 15 q 1028 -4 1040 -6 q 944 0 983 0 q 863 0 904 0 q 777 -2 821 0 q 689 -4 733 -4 q 669 6 675 -4 q 664 26 664 15 q 674 53 664 50 q 699 56 685 56 q 761 72 743 56 q 784 112 779 88 q 790 163 789 136 l 790 244 q 740 394 790 351 q 615 436 689 436 q 537 425 575 436 q 458 394 499 414 l 458 163 q 464 112 460 136 q 487 72 468 88 q 549 56 506 56 q 572 53 563 56 q 583 26 582 50 q 578 6 583 15 q 558 -4 572 -4 q 474 -1 514 -1 q 394 0 435 0 q 221 -4 311 0 z "},"Ю":{"ha":1450,"x_min":71,"x_max":1361,"o":"m 942 -28 q 767 8 843 -28 q 639 104 692 43 q 558 244 586 165 q 528 408 531 322 l 333 408 l 333 163 q 339 112 335 136 q 362 72 343 88 q 424 56 381 56 q 447 53 438 56 q 458 26 457 50 q 453 6 458 15 q 433 -4 447 -4 q 261 0 344 0 q 179 -1 219 0 q 94 -4 139 -1 q 76 6 82 -4 q 71 26 71 15 q 82 53 72 50 q 106 56 92 56 q 168 72 150 56 q 191 112 186 88 q 196 163 196 136 l 196 714 q 191 765 196 740 q 168 805 186 789 q 106 821 150 821 q 82 824 92 821 q 71 850 72 826 q 76 871 71 861 q 94 881 82 881 q 178 878 139 879 q 260 876 218 876 q 433 881 344 876 q 453 871 447 881 q 458 850 458 861 q 447 824 457 826 q 424 821 438 821 q 362 805 381 821 q 339 765 343 789 q 333 714 335 740 l 333 468 l 529 468 q 574 655 536 574 q 669 792 611 736 q 799 876 728 847 q 942 904 869 904 q 1124 867 1046 904 q 1256 765 1203 829 q 1335 620 1308 701 q 1361 451 1361 539 q 1325 247 1361 336 q 1228 97 1289 158 q 1092 4 1167 36 q 942 -28 1018 -28 m 940 33 q 1063 67 1014 33 q 1142 159 1113 100 q 1183 293 1171 218 q 1196 451 1196 368 q 1172 645 1196 556 q 1092 790 1147 735 q 940 844 1036 844 q 819 811 868 844 q 743 720 771 778 q 703 588 715 663 q 692 431 692 514 q 704 280 692 351 q 745 153 717 208 q 822 65 774 97 q 940 33 869 33 z "},"Я":{"ha":1017,"x_min":29,"x_max":946,"o":"m 167 -14 q 113 -6 142 -14 q 60 22 83 3 q 31 74 38 42 q 35 96 29 85 q 54 106 40 107 q 73 92 65 106 q 92 65 81 78 q 125 49 104 51 q 194 77 165 46 q 250 158 224 108 q 307 260 276 208 q 375 350 336 308 q 469 413 414 392 l 469 417 q 362 436 414 418 q 264 489 310 454 q 213 556 232 517 q 194 647 193 596 q 222 752 196 710 q 288 820 247 794 q 374 859 328 846 q 463 876 419 872 q 539 876 507 879 l 754 876 q 836 878 796 876 q 921 881 876 879 q 940 871 933 881 q 946 850 946 861 q 935 824 944 826 q 910 821 925 821 q 848 805 867 821 q 825 765 829 789 q 819 714 821 740 l 819 163 q 825 112 821 136 q 848 72 829 88 q 910 56 867 56 q 935 53 925 56 q 946 26 944 50 q 940 6 946 15 q 921 -4 933 -4 q 837 -1 876 -1 q 756 0 797 0 q 582 -4 672 0 q 563 6 568 -4 q 557 26 557 15 q 568 53 558 50 q 592 56 578 56 q 654 72 636 56 q 677 112 672 88 q 683 163 682 136 l 683 396 l 650 396 q 558 371 594 396 q 495 306 521 346 q 446 218 469 265 q 388 109 419 163 q 304 21 356 56 q 167 -14 253 -14 m 613 447 l 683 447 l 683 714 q 676 783 685 761 q 649 813 668 806 q 596 821 629 821 q 414 774 478 824 q 350 632 350 725 q 380 526 350 564 q 453 471 410 488 q 541 451 497 454 q 613 447 585 447 z "},"Ђ":{"ha":1018,"x_min":36,"x_max":942,"o":"m 221 -4 q 201 6 207 -4 q 196 26 196 15 q 207 53 197 50 q 231 56 217 56 q 293 72 275 56 q 316 112 311 88 q 321 163 321 136 l 321 825 l 253 825 q 180 805 206 824 q 142 747 154 786 q 118 644 129 707 q 101 626 117 632 q 69 619 85 619 q 48 626 60 619 q 36 647 36 633 l 40 843 q 51 869 40 863 q 78 876 63 876 l 757 876 q 782 869 772 876 q 793 843 792 863 l 799 675 q 787 654 799 661 q 764 647 775 647 q 735 653 750 647 q 717 672 719 660 q 694 758 707 725 q 655 808 681 792 q 581 825 629 824 l 458 825 l 458 469 q 547 502 492 485 q 669 519 601 519 q 808 491 747 519 q 906 408 869 463 q 940 276 942 354 q 905 138 940 201 q 807 35 869 74 q 663 -4 744 -4 q 636 17 636 -4 q 642 39 636 33 q 660 47 647 44 q 757 127 728 64 q 786 265 786 190 q 761 383 786 343 q 696 435 736 422 q 610 449 656 449 q 529 441 567 449 q 458 422 492 433 l 458 163 q 463 112 460 136 q 478 72 465 88 q 521 56 490 56 q 544 53 535 56 q 556 26 554 50 q 550 6 556 15 q 531 -4 544 -4 q 460 -1 493 -1 q 394 0 428 0 q 221 -4 311 0 z "},"Ѣ":{"ha":994,"x_min":36,"x_max":943,"o":"m 221 -4 q 201 6 207 -4 q 196 26 196 15 q 207 53 197 50 q 231 56 217 56 q 293 72 275 56 q 316 112 311 88 q 321 163 321 136 l 321 769 l 253 769 q 180 749 206 768 q 142 691 154 731 q 118 589 129 651 q 101 570 117 576 q 69 564 85 564 q 48 571 60 564 q 36 592 36 578 l 40 788 q 51 814 40 807 q 78 821 63 821 l 321 821 l 321 839 q 316 890 321 865 q 293 930 311 914 q 231 946 275 946 q 206 949 217 946 q 196 975 196 951 q 201 997 196 986 q 221 1006 207 1007 q 304 1002 265 1003 q 385 1001 343 1001 q 470 1003 426 1001 q 558 1006 514 1006 q 578 996 572 1006 q 583 975 583 986 q 573 949 583 951 q 549 946 563 946 q 487 930 506 946 q 464 890 468 914 q 458 839 460 865 l 458 821 l 757 821 q 782 814 772 821 q 793 788 792 807 l 799 619 q 787 599 799 606 q 764 592 775 592 q 735 598 750 592 q 717 617 719 604 q 695 703 708 669 q 656 752 682 736 q 581 769 629 768 l 458 769 l 458 522 q 601 535 536 535 q 791 498 715 535 q 905 401 867 461 q 943 267 943 340 q 907 136 943 188 q 813 55 871 85 q 687 13 754 25 q 557 0 619 0 l 386 0 q 305 -1 344 0 q 221 -4 265 -1 m 546 56 q 670 76 615 57 q 757 140 725 94 q 789 265 789 185 q 753 385 789 339 q 661 452 717 431 q 546 474 606 474 q 501 472 524 474 q 458 465 479 471 l 458 165 q 476 75 457 94 q 546 56 494 56 z "},"Ѫ":{"ha":1296,"x_min":26,"x_max":1275,"o":"m 51 -4 q 26 26 26 -4 q 34 50 26 43 q 61 57 42 57 q 134 80 104 57 q 185 163 164 103 l 228 289 q 344 428 261 388 q 557 468 428 468 l 574 468 q 537 528 560 493 q 488 599 514 563 q 440 667 463 636 q 406 715 418 697 q 348 793 369 768 q 290 824 326 818 q 263 834 269 826 q 256 856 256 842 q 297 883 256 883 q 363 880 328 883 q 454 876 399 876 l 933 876 q 1014 878 990 876 q 1060 881 1038 881 q 1086 851 1086 881 q 1050 821 1086 821 q 918 726 986 821 l 751 493 q 736 468 743 481 l 739 468 q 880 451 811 468 q 1001 396 949 435 q 1079 289 1054 357 l 1126 163 q 1175 79 1149 103 q 1240 56 1201 56 q 1267 50 1260 56 q 1275 26 1275 44 q 1250 -4 1275 -4 q 1190 -2 1228 -4 q 1131 0 1151 0 l 1042 0 l 939 278 q 858 380 913 347 q 724 417 804 413 q 722 394 722 408 l 722 163 q 728 112 724 136 q 751 72 732 88 q 814 56 771 56 q 838 53 828 56 q 849 26 847 50 q 842 6 849 15 q 824 -4 836 -4 q 739 -1 779 -1 q 657 0 699 0 q 485 -4 575 0 q 466 6 472 -4 q 460 26 460 15 q 472 53 461 50 q 496 56 482 56 q 559 72 540 56 q 582 112 578 88 q 586 163 586 136 l 586 417 q 440 381 488 414 q 368 276 392 347 l 275 0 l 172 0 q 113 -2 151 0 q 51 -4 74 -4 m 564 739 l 703 526 l 911 821 l 501 821 q 533 785 518 806 q 564 739 549 764 z "},"Ѳ":{"ha":1063,"x_min":86,"x_max":976,"o":"m 529 -28 q 346 10 428 -28 q 206 111 264 47 q 117 256 147 175 q 86 426 86 338 q 126 631 86 542 q 231 781 165 719 q 374 873 296 842 q 529 904 453 904 q 716 867 633 904 q 857 765 799 829 q 946 620 915 701 q 976 451 976 539 q 936 247 976 336 q 829 97 896 158 q 684 4 763 36 q 529 -28 606 -28 m 528 844 q 372 790 433 844 q 281 646 311 736 q 249 450 251 556 q 338 510 289 486 q 440 533 388 533 q 512 522 478 533 q 579 496 546 511 q 646 470 613 482 q 715 458 679 458 q 760 460 735 458 q 811 469 786 461 q 776 655 808 569 q 682 792 744 740 q 528 844 619 844 m 528 33 q 682 86 621 33 q 775 227 743 139 q 811 419 807 315 q 742 388 776 397 q 681 379 707 379 q 608 392 643 379 q 538 418 572 404 q 467 442 503 431 q 396 454 432 454 q 325 445 367 454 q 249 406 283 436 q 284 221 253 306 q 376 85 315 136 q 528 33 436 33 z "},"Ѵ":{"ha":1039,"x_min":61,"x_max":1010,"o":"m 906 892 q 984 863 958 892 q 1010 788 1010 835 q 985 722 1010 746 q 935 697 960 697 q 914 707 917 697 q 919 719 914 714 q 925 740 925 724 q 914 767 925 756 q 879 779 903 779 q 790 693 821 779 l 536 -14 l 471 -14 q 456 26 471 -14 q 419 130 442 65 q 367 272 396 194 q 310 426 339 349 q 259 567 282 503 q 222 669 236 631 q 207 708 207 708 q 163 790 185 765 q 96 824 140 815 q 69 831 76 828 q 61 856 61 833 q 78 881 61 879 q 117 883 94 883 q 261 849 210 882 q 343 738 313 817 l 544 196 l 549 196 l 740 739 q 810 856 769 821 q 906 892 850 892 z "},"Ғ":{"ha":790,"x_min":79,"x_max":738,"o":"m 103 -4 q 85 6 90 -4 q 79 26 79 15 q 90 53 81 50 q 114 56 100 56 q 176 72 158 56 q 199 112 194 88 q 204 163 204 136 l 204 410 l 118 410 q 86 440 86 410 q 118 471 86 471 l 204 471 l 204 714 q 199 765 204 740 q 176 805 194 789 q 114 821 158 821 q 90 824 100 821 q 79 850 81 826 q 85 871 79 861 q 103 881 90 881 q 187 878 147 879 q 268 876 226 876 l 697 876 q 723 869 713 876 q 733 843 733 863 l 738 647 q 726 626 738 633 q 704 619 715 619 q 674 626 689 619 q 657 644 660 632 q 634 745 647 707 q 595 801 621 783 q 521 821 569 819 l 342 821 l 342 471 l 492 471 q 524 440 524 471 q 492 410 524 410 l 342 410 l 342 163 q 347 112 343 136 q 370 72 351 88 q 432 56 389 56 q 456 53 446 56 q 467 26 465 50 q 461 6 467 15 q 442 -4 456 -4 q 269 0 353 0 q 188 -1 228 0 q 103 -4 147 -1 z "},"Ҕ":{"ha":853,"x_min":60,"x_max":772,"o":"m 83 -4 q 65 6 71 -4 q 60 26 60 15 q 71 53 61 50 q 94 56 81 56 q 157 72 139 56 q 180 112 175 88 q 185 163 185 136 l 185 714 q 180 765 185 740 q 157 805 175 789 q 94 821 139 821 q 71 824 81 821 q 60 850 61 826 q 65 871 60 861 q 83 881 71 881 q 167 878 128 879 q 249 876 207 876 l 678 876 q 703 869 693 876 q 714 843 714 863 l 718 647 q 707 626 718 633 q 685 619 696 619 q 655 626 669 619 q 638 644 640 632 q 615 745 628 707 q 576 801 601 783 q 501 821 550 819 l 322 821 l 322 456 q 401 481 356 469 q 501 492 447 492 q 640 456 579 492 q 737 356 701 419 q 772 207 772 292 q 731 25 772 100 q 626 -90 690 -50 q 494 -129 563 -129 q 468 -108 468 -129 q 474 -85 468 -92 q 492 -78 479 -79 q 592 7 560 -67 q 624 194 624 81 q 597 325 624 275 q 529 398 571 375 q 442 421 488 421 q 380 417 410 421 q 322 404 350 413 l 322 163 q 328 112 324 136 q 351 72 332 88 q 413 56 369 56 q 436 53 426 56 q 447 26 446 50 q 442 6 447 15 q 422 -4 436 -4 q 250 0 333 0 q 168 -1 208 0 q 83 -4 128 -1 z "},"Җ":{"ha":1556,"x_min":63,"x_max":1493,"o":"m 1408 -247 q 1364 -199 1361 -242 q 1363 -115 1367 -156 q 1346 -44 1360 -74 q 1299 -8 1332 -15 l 1299 -8 q 1206 46 1242 7 q 1144 135 1169 85 q 1097 239 1118 186 q 1049 337 1075 292 q 983 410 1022 382 q 883 439 944 439 l 851 439 l 851 163 q 857 112 853 136 q 881 72 861 88 q 943 56 900 56 q 967 53 957 56 q 978 26 976 50 q 972 6 978 15 q 953 -4 965 -4 q 868 -1 908 -1 q 786 0 828 0 q 614 -4 704 0 q 595 6 601 -4 q 589 26 589 15 q 601 53 590 50 q 625 56 611 56 q 688 72 669 56 q 710 112 706 88 q 715 163 715 136 l 715 439 l 683 439 q 589 415 626 439 q 525 350 551 390 q 478 261 499 310 q 436 164 458 213 q 384 75 414 115 q 310 10 354 35 q 200 -14 267 -14 q 145 -6 174 -14 q 94 22 117 3 q 64 74 71 42 q 68 96 63 85 q 88 106 74 107 q 106 92 99 106 q 126 65 114 78 q 158 49 138 51 q 222 76 196 46 q 269 153 247 106 q 316 256 292 201 q 374 359 340 310 q 455 440 407 408 q 572 472 503 472 l 572 476 q 502 515 535 483 q 444 597 469 547 q 423 649 435 618 q 395 709 411 679 q 358 758 379 739 q 306 778 336 778 q 256 750 275 778 q 238 685 238 722 q 228 678 238 678 q 194 690 215 678 q 157 724 174 701 q 140 781 140 747 q 156 839 140 810 q 203 887 172 868 q 278 906 233 906 q 367 869 331 903 q 428 789 403 836 q 472 692 453 742 q 508 608 490 643 q 576 521 540 547 q 654 494 613 494 l 715 494 l 715 714 q 710 765 715 740 q 688 805 706 789 q 625 821 669 821 q 601 824 611 821 q 589 850 590 826 q 595 871 589 861 q 614 881 601 881 q 788 876 704 876 q 869 878 829 876 q 953 881 908 879 q 972 871 965 881 q 978 850 978 861 q 967 824 976 826 q 943 821 957 821 q 881 805 900 821 q 857 765 861 789 q 851 714 853 740 l 851 494 l 913 494 q 991 521 954 494 q 1058 608 1028 547 q 1095 692 1076 643 q 1139 789 1114 742 q 1200 869 1164 836 q 1289 906 1236 903 q 1364 887 1333 906 q 1410 839 1394 868 q 1426 781 1426 810 q 1410 724 1426 747 q 1373 690 1393 701 q 1339 678 1353 678 q 1329 685 1329 678 q 1311 750 1329 722 q 1261 778 1293 778 q 1209 758 1231 778 q 1172 709 1188 739 q 1144 649 1156 679 q 1122 597 1132 618 q 1065 515 1097 547 q 994 476 1032 483 l 994 472 q 1112 442 1064 472 q 1192 363 1160 411 q 1249 262 1225 315 q 1294 161 1272 208 q 1340 84 1315 114 q 1400 54 1365 54 q 1430 60 1419 54 q 1463 67 1440 67 q 1488 56 1482 67 q 1490 33 1493 44 q 1475 -90 1483 -28 q 1456 -217 1467 -153 q 1408 -247 1449 -251 z "},"Ҙ":{"ha":822,"x_min":88,"x_max":746,"o":"m 397 -250 q 351 -218 354 -250 q 333 -72 346 -118 q 300 -21 321 -26 l 303 -21 q 149 41 211 -6 q 88 172 88 88 q 124 271 88 229 q 221 311 161 313 q 279 292 261 310 q 299 264 297 274 q 283 249 299 260 q 250 217 267 238 q 233 163 233 196 q 281 61 231 94 q 403 28 331 28 q 542 81 489 28 q 596 238 596 133 q 567 340 596 296 q 491 409 539 383 q 383 436 443 435 l 332 436 q 317 445 322 436 q 311 464 311 454 q 317 485 311 475 q 332 496 322 494 l 383 496 q 461 513 422 499 q 526 562 500 526 q 553 664 553 597 q 535 753 553 711 q 483 821 518 794 q 393 847 449 847 q 269 791 313 847 q 204 635 226 735 q 187 618 201 622 q 157 615 172 614 q 135 626 147 618 q 124 649 122 635 l 140 851 q 270 886 206 868 q 428 904 335 904 q 574 874 513 904 q 668 793 635 844 q 701 679 701 742 q 651 548 701 599 q 515 474 601 497 l 515 469 q 692 385 639 450 q 746 242 746 319 q 706 105 746 161 q 601 16 667 49 q 458 -25 536 -17 l 443 -214 q 397 -250 442 -250 z "},"Қ":{"ha":1029,"x_min":71,"x_max":997,"o":"m 911 -247 q 867 -199 863 -243 q 867 -115 869 -156 q 849 -44 864 -74 q 801 -8 835 -15 l 801 -8 q 703 42 742 4 q 638 130 664 79 q 588 235 611 181 q 538 335 565 289 q 472 410 511 381 q 369 439 432 439 l 333 439 l 333 163 q 339 112 335 136 q 362 72 343 88 q 424 56 381 56 q 449 53 439 56 q 460 26 458 50 q 453 6 460 15 q 435 -4 447 -4 q 263 0 346 0 q 181 -1 221 0 q 96 -4 140 -1 q 76 6 82 -4 q 71 26 71 15 q 82 53 72 50 q 106 56 92 56 q 168 72 150 56 q 191 112 186 88 q 197 163 196 136 l 197 714 q 191 765 196 740 q 168 805 186 789 q 106 821 150 821 q 82 824 92 821 q 71 850 72 826 q 76 871 71 861 q 96 881 82 881 q 180 878 140 879 q 261 876 219 876 q 435 881 346 876 q 453 871 447 881 q 460 850 460 861 q 449 824 458 826 q 424 821 439 821 q 362 805 381 821 q 339 765 343 789 q 333 714 335 740 l 333 494 l 399 494 q 483 521 440 494 q 558 608 526 547 q 595 692 576 643 q 639 789 614 742 q 700 869 664 836 q 789 906 736 903 q 864 887 833 906 q 910 839 894 868 q 926 781 926 810 q 910 724 926 747 q 872 690 893 701 q 839 678 851 678 q 828 685 828 678 q 810 749 828 719 q 765 778 793 778 q 710 758 733 778 q 672 710 688 739 q 644 651 656 682 q 621 597 632 621 q 564 515 597 547 q 494 476 531 483 l 494 472 q 613 442 564 472 q 694 363 661 411 q 753 262 728 315 q 798 161 778 208 q 841 84 818 114 q 893 54 864 54 q 931 60 917 54 q 963 67 944 67 q 993 33 997 67 q 978 -90 986 -28 q 958 -217 971 -153 q 911 -247 951 -251 z "},"Ҝ":{"ha":1039,"x_min":71,"x_max":1004,"o":"m 449 268 q 418 300 418 268 l 418 433 q 369 439 396 439 l 333 439 l 333 163 q 339 112 335 136 q 362 72 343 88 q 424 56 381 56 q 449 53 439 56 q 460 26 458 50 q 453 6 460 15 q 435 -4 447 -4 q 263 0 346 0 q 181 -1 221 0 q 96 -4 140 -1 q 76 6 82 -4 q 71 26 71 15 q 82 53 72 50 q 106 56 92 56 q 168 72 150 56 q 191 112 186 88 q 197 163 196 136 l 197 714 q 191 765 196 740 q 168 805 186 789 q 106 821 150 821 q 82 824 92 821 q 71 850 72 826 q 76 871 71 861 q 96 881 82 881 q 180 878 140 879 q 261 876 219 876 q 435 881 346 876 q 453 871 447 881 q 460 850 460 861 q 449 824 458 826 q 424 821 439 821 q 362 805 381 821 q 339 765 343 789 q 333 714 335 740 l 333 494 l 399 494 q 418 496 408 494 l 418 604 q 449 636 418 636 q 479 604 479 636 l 479 518 q 522 554 501 532 q 558 608 542 576 q 595 692 576 643 q 639 789 614 742 q 700 869 664 836 q 789 906 736 903 q 864 887 833 906 q 910 839 894 868 q 926 781 926 810 q 910 724 926 747 q 872 690 893 701 q 839 678 851 678 q 828 685 828 678 q 810 749 828 719 q 765 778 793 778 q 710 758 733 778 q 672 710 688 739 q 644 651 656 682 q 621 597 632 621 q 564 515 597 547 q 494 476 531 483 l 494 472 q 611 440 564 472 q 692 359 658 408 q 750 256 725 310 q 797 153 775 201 q 846 76 819 106 q 908 49 872 46 q 940 65 929 51 q 960 92 951 78 q 978 106 968 106 q 999 96 993 107 q 1001 74 1004 85 q 973 22 996 42 q 921 -6 950 3 q 865 -14 892 -14 q 740 19 789 -14 q 660 103 692 51 q 603 212 628 154 q 550 321 578 269 q 479 404 522 372 l 479 300 q 449 268 479 268 z "},"Ҡ":{"ha":1199,"x_min":36,"x_max":1181,"o":"m 1042 -14 q 917 19 965 -14 q 836 103 868 51 q 779 213 804 154 q 726 322 754 271 q 655 406 697 374 q 546 439 613 439 l 510 439 l 510 163 q 515 112 511 136 q 538 72 519 88 q 600 56 557 56 q 625 53 615 56 q 636 26 635 50 q 630 6 636 15 q 611 -4 624 -4 q 439 0 522 0 q 357 -1 397 0 q 272 -4 317 -1 q 253 6 258 -4 q 247 26 247 15 q 258 53 249 50 q 282 56 268 56 q 344 72 326 56 q 367 112 363 88 q 374 163 372 136 l 374 714 q 356 790 372 756 q 296 825 340 825 l 253 825 q 180 806 206 825 q 142 747 154 788 q 118 644 129 707 q 71 619 114 619 q 36 647 36 619 l 40 843 q 51 869 40 863 q 78 876 63 876 l 438 876 q 611 881 522 876 q 630 871 624 881 q 636 850 636 861 q 625 824 635 826 q 600 821 615 821 q 538 805 557 821 q 515 765 519 789 q 510 714 511 740 l 510 494 l 575 494 q 660 521 617 494 q 735 608 703 547 q 772 692 753 643 q 815 789 790 742 q 876 869 840 836 q 965 906 913 903 q 1040 887 1010 906 q 1087 839 1071 868 q 1103 781 1103 810 q 1086 724 1103 747 q 1049 690 1069 701 q 1015 678 1028 678 q 1004 685 1004 678 q 987 749 1004 719 q 942 778 969 778 q 887 758 910 778 q 848 710 864 739 q 820 651 832 682 q 797 597 808 621 q 740 515 774 547 q 671 476 707 483 l 671 472 q 788 440 740 472 q 868 359 835 408 q 926 256 901 310 q 974 153 951 201 q 1022 76 996 106 q 1085 49 1049 46 q 1117 65 1106 51 q 1136 92 1128 78 q 1154 106 1144 106 q 1175 96 1169 107 q 1178 74 1181 85 q 1149 22 1172 42 q 1097 -6 1126 3 q 1042 -14 1068 -14 z "},"Ң":{"ha":1079,"x_min":60,"x_max":1053,"o":"m 85 -4 q 65 6 71 -4 q 60 26 60 15 q 71 53 61 50 q 94 56 81 56 q 157 72 139 56 q 180 112 175 88 q 185 163 185 136 l 185 714 q 180 765 185 740 q 157 805 175 789 q 94 821 139 821 q 71 824 81 821 q 60 850 61 826 q 65 871 60 861 q 85 881 71 881 q 168 878 129 879 q 249 876 207 876 q 422 881 333 876 q 442 871 436 881 q 447 850 447 861 q 437 824 446 826 q 413 821 428 821 q 351 805 369 821 q 328 765 332 789 q 322 714 324 740 l 322 468 l 758 468 l 758 714 q 753 765 758 740 q 731 805 749 789 q 668 821 713 821 q 644 824 654 821 q 632 850 633 826 q 638 871 632 861 q 657 881 644 881 q 831 876 747 876 q 912 878 872 876 q 996 881 951 879 q 1015 871 1008 881 q 1021 850 1021 861 q 1010 824 1019 826 q 986 821 1000 821 q 924 805 943 821 q 900 765 904 789 q 894 714 896 740 l 894 192 q 900 115 894 144 q 929 73 906 86 q 1007 60 953 60 q 1040 51 1026 60 q 1053 15 1053 42 l 1053 -214 q 1040 -240 1053 -231 q 1013 -249 1026 -249 q 961 -218 967 -249 q 935 -90 949 -137 q 892 -21 921 -42 q 804 0 863 0 q 657 -4 733 0 q 638 6 644 -4 q 632 26 632 15 q 644 53 633 50 q 668 56 654 56 q 731 72 713 56 q 753 112 749 88 q 758 163 758 136 l 758 408 l 322 408 l 322 163 q 328 112 324 136 q 351 72 332 88 q 413 56 369 56 q 437 53 428 56 q 447 26 446 50 q 442 6 447 15 q 422 -4 436 -4 q 250 0 333 0 q 169 -1 208 0 q 85 -4 129 -1 z "},"Ҫ":{"ha":938,"x_min":89,"x_max":864,"o":"m 538 -250 q 492 -218 494 -250 q 474 -72 486 -118 q 443 -21 461 -26 q 263 54 343 -4 q 136 208 183 113 q 89 432 89 304 q 144 680 89 574 q 302 845 200 786 q 543 904 404 904 q 647 894 593 904 q 746 862 700 885 q 820 801 792 839 q 849 708 849 764 q 813 603 850 649 q 707 558 775 558 q 648 578 665 558 q 632 608 631 599 q 649 623 632 613 q 684 655 667 633 q 701 713 701 676 q 660 812 701 775 q 542 849 618 849 q 392 801 458 849 q 289 663 326 754 q 251 440 251 572 q 291 238 251 329 q 402 94 331 147 q 568 40 474 40 q 697 72 643 40 q 793 172 750 103 q 838 176 806 196 q 857 156 850 168 q 854 132 864 144 q 733 17 790 51 q 599 -25 676 -17 l 583 -214 q 538 -250 582 -250 z "},"Ү":{"ha":863,"x_min":6,"x_max":876,"o":"m 264 -4 q 244 6 250 -4 q 239 26 239 15 q 250 53 240 50 q 274 56 260 56 q 336 72 318 56 q 359 112 354 88 q 364 163 364 136 l 364 336 q 349 381 364 346 q 312 464 335 417 q 264 561 289 511 q 217 652 239 611 q 183 715 196 693 q 119 791 154 768 q 40 824 85 814 q 13 831 21 828 q 6 856 6 833 q 22 881 6 879 q 61 883 39 883 q 220 853 160 883 q 328 739 281 822 q 401 593 368 664 q 474 449 433 522 l 478 449 l 632 753 q 638 810 656 800 q 571 821 619 821 q 547 824 557 821 q 536 850 538 826 q 542 871 536 861 q 560 881 547 881 q 637 878 604 879 q 711 876 669 876 q 780 878 753 876 q 851 881 807 879 q 871 871 865 881 q 876 850 876 861 q 866 824 875 826 q 842 821 857 821 q 756 798 789 821 q 696 726 722 775 l 539 431 q 518 386 526 404 q 506 349 510 368 q 501 297 501 329 l 501 163 q 507 112 503 136 q 530 72 511 88 q 592 56 549 56 q 616 53 607 56 q 626 26 625 50 q 621 6 626 15 q 603 -4 615 -4 q 518 -1 558 -1 q 436 0 478 0 q 264 -4 354 0 z "},"Ұ":{"ha":863,"x_min":6,"x_max":876,"o":"m 264 -4 q 244 6 250 -4 q 239 26 239 15 q 250 53 240 50 q 274 56 260 56 q 336 72 318 56 q 359 112 354 88 q 364 163 364 136 l 364 336 q 349 381 364 346 q 312 464 335 417 q 264 561 289 511 q 217 652 239 611 q 183 715 196 693 q 119 791 154 768 q 40 824 85 814 q 13 831 21 828 q 6 856 6 833 q 22 881 6 879 q 61 883 39 883 q 220 853 160 883 q 328 739 281 822 q 401 593 368 664 q 474 449 433 522 l 478 449 l 632 753 q 638 810 656 800 q 571 821 619 821 q 547 824 557 821 q 536 850 538 826 q 542 871 536 861 q 560 881 547 881 q 637 878 604 879 q 711 876 669 876 q 780 878 753 876 q 851 881 807 879 q 871 871 865 881 q 876 850 876 861 q 866 824 875 826 q 842 821 857 821 q 756 798 789 821 q 696 726 722 775 l 539 431 q 518 386 526 404 q 506 349 510 368 q 501 297 501 329 l 501 163 q 507 112 503 136 q 530 72 511 88 q 592 56 549 56 q 616 53 607 56 q 626 26 625 50 q 621 6 626 15 q 603 -4 615 -4 q 518 -1 558 -1 q 436 0 478 0 q 264 -4 354 0 m 258 299 q 226 329 226 299 q 258 360 226 360 l 604 360 q 636 329 636 360 q 604 299 636 299 l 258 299 z "},"Ҷ":{"ha":982,"x_min":26,"x_max":944,"o":"m 549 -4 q 529 6 535 -4 q 524 26 524 15 q 535 53 525 50 q 558 56 544 56 q 621 72 603 56 q 644 112 639 88 q 649 163 649 136 l 649 408 q 545 373 583 385 q 483 357 507 361 q 435 351 460 353 q 292 376 357 350 q 196 442 228 401 q 165 501 178 465 q 153 603 153 536 l 153 714 q 148 765 153 740 q 125 805 143 789 q 63 821 107 821 q 39 824 49 821 q 26 850 29 826 q 33 871 26 861 q 51 881 39 881 q 135 878 96 879 q 217 876 175 876 q 390 881 301 876 q 410 871 404 881 q 415 850 415 861 q 404 824 414 826 q 381 821 394 821 q 319 805 338 821 q 295 765 300 789 q 289 714 290 740 l 289 618 q 316 505 289 547 q 390 444 343 463 q 492 426 436 426 q 570 438 532 426 q 649 468 608 449 l 649 714 q 644 765 649 740 q 621 805 639 789 q 558 821 603 821 q 535 824 544 821 q 524 850 525 826 q 529 871 524 861 q 549 881 535 881 q 722 876 639 876 q 802 878 763 876 q 886 881 842 879 q 906 871 900 881 q 911 850 911 861 q 900 824 910 826 q 876 821 890 821 q 815 805 833 821 q 792 765 796 789 q 786 714 788 740 l 786 192 q 792 115 786 144 q 821 73 797 86 q 899 60 844 60 q 931 51 918 60 q 944 15 944 42 l 944 -214 q 931 -240 944 -231 q 904 -249 918 -249 q 853 -218 858 -249 q 826 -90 840 -137 q 783 -21 813 -42 q 696 0 753 0 q 549 -4 625 0 z "},"Ҹ":{"ha":982,"x_min":26,"x_max":911,"o":"m 549 -4 q 529 6 535 -4 q 524 26 524 15 q 535 53 525 50 q 558 56 544 56 q 621 72 603 56 q 644 112 639 88 q 649 163 649 136 l 649 408 q 538 369 579 382 l 538 263 q 507 231 538 231 q 476 263 476 231 l 476 356 q 456 353 465 354 q 435 351 446 351 q 292 376 357 350 q 196 442 228 401 q 165 501 178 465 q 153 603 153 536 l 153 714 q 148 765 153 740 q 125 805 143 789 q 63 821 107 821 q 39 824 49 821 q 26 850 29 826 q 33 871 26 861 q 51 881 39 881 q 135 878 96 879 q 217 876 175 876 q 390 881 301 876 q 410 871 404 881 q 415 850 415 861 q 404 824 414 826 q 381 821 394 821 q 319 805 338 821 q 295 765 300 789 q 289 714 290 740 l 289 618 q 343 474 289 517 q 476 426 397 431 l 476 567 q 507 599 476 599 q 538 567 538 599 l 538 431 q 592 444 565 435 q 649 468 619 454 l 649 714 q 644 765 649 740 q 621 805 639 789 q 558 821 603 821 q 535 824 544 821 q 524 850 525 826 q 529 871 524 861 q 549 881 535 881 q 722 876 639 876 q 802 878 763 876 q 886 881 842 879 q 906 871 900 881 q 911 850 911 861 q 900 824 910 826 q 876 821 890 821 q 815 805 833 821 q 792 765 796 789 q 786 714 788 740 l 786 163 q 792 112 788 136 q 815 72 796 88 q 876 56 833 56 q 900 53 890 56 q 911 26 910 50 q 906 6 911 15 q 886 -4 900 -4 q 801 -1 842 -1 q 719 0 761 0 q 549 -4 639 0 z "},"Һ":{"ha":982,"x_min":71,"x_max":956,"o":"m 433 881 q 453 871 447 881 q 458 850 458 861 q 448 824 457 826 q 424 821 439 821 q 362 805 381 821 q 339 765 343 789 q 333 714 335 740 l 333 468 q 437 504 399 493 q 499 519 475 515 q 547 525 524 524 q 690 501 625 528 q 786 435 756 475 q 817 376 806 411 q 829 274 829 340 l 829 163 q 835 112 831 136 q 858 72 839 88 q 919 56 876 56 q 944 53 935 56 q 956 26 954 50 q 949 6 956 15 q 931 -4 943 -4 q 847 -1 886 -1 q 765 0 807 0 q 592 -4 682 0 q 572 6 578 -4 q 567 26 567 15 q 578 53 568 50 q 601 56 588 56 q 664 72 646 56 q 687 112 682 88 q 693 163 692 136 l 693 258 q 666 372 693 329 q 593 432 639 414 q 490 450 547 450 q 412 439 450 450 q 333 408 374 428 l 333 163 q 339 112 335 136 q 362 72 343 88 q 424 56 381 56 q 448 53 439 56 q 458 26 457 50 q 453 6 458 15 q 433 -4 447 -4 q 260 0 344 0 q 180 -1 219 0 q 96 -4 140 -1 q 76 6 82 -4 q 71 26 71 15 q 82 53 72 50 q 106 56 92 56 q 168 72 150 56 q 191 112 186 88 q 196 163 196 136 l 196 714 q 191 765 196 740 q 168 805 186 789 q 106 821 150 821 q 82 824 92 821 q 71 850 72 826 q 76 871 71 861 q 96 881 82 881 q 181 878 140 879 q 263 876 221 876 q 433 881 344 876 z "},"Ӏ":{"ha":506,"x_min":58,"x_max":447,"o":"m 83 -4 q 64 6 69 -4 q 58 26 58 15 q 69 53 60 50 q 93 56 79 56 q 156 72 138 56 q 178 112 174 88 q 185 163 183 136 l 185 714 q 178 765 183 740 q 156 805 174 789 q 93 821 138 821 q 69 824 79 821 q 58 850 60 826 q 64 871 58 861 q 83 881 69 881 q 167 878 128 879 q 249 876 207 876 q 422 881 333 876 q 441 871 435 881 q 447 850 447 861 q 436 824 446 826 q 411 821 426 821 q 349 805 368 821 q 326 765 331 789 q 321 714 322 740 l 321 163 q 326 112 322 136 q 349 72 331 88 q 411 56 368 56 q 436 53 426 56 q 447 26 446 50 q 441 6 447 15 q 422 -4 435 -4 q 250 0 333 0 q 168 -1 208 0 q 83 -4 128 -1 z "},"Ӂ":{"ha":1481,"x_min":19,"x_max":1463,"o":"m 157 -14 q 103 -6 132 -14 q 51 22 74 3 q 21 74 28 42 q 25 96 19 85 q 44 106 31 107 q 63 92 56 106 q 83 65 71 78 q 115 49 94 51 q 178 76 153 46 q 226 153 204 106 q 273 256 249 201 q 331 359 297 310 q 412 440 364 408 q 529 472 460 472 l 529 476 q 459 515 492 483 q 401 597 426 547 q 380 649 392 618 q 352 709 368 679 q 315 758 336 739 q 263 778 293 778 q 213 750 232 778 q 194 685 194 722 q 185 678 194 678 q 151 690 172 678 q 114 724 131 701 q 97 781 97 747 q 113 839 97 810 q 160 887 129 868 q 235 906 190 906 q 324 869 288 903 q 385 789 360 836 q 428 692 410 742 q 465 608 447 643 q 533 521 497 547 q 611 494 569 494 l 672 494 l 672 714 q 667 765 672 740 q 644 805 663 789 q 582 821 626 821 q 558 824 568 821 q 546 850 547 826 q 552 871 546 861 q 571 881 558 881 q 744 876 661 876 q 826 878 786 876 q 910 881 865 879 q 928 871 922 881 q 935 850 935 861 q 924 824 933 826 q 900 821 914 821 q 838 805 857 821 q 814 765 818 789 q 808 714 810 740 l 808 494 l 869 494 q 948 521 911 494 q 1015 608 985 547 q 1052 692 1033 643 q 1096 789 1071 742 q 1157 869 1121 836 q 1246 906 1193 903 q 1321 887 1290 906 q 1367 839 1351 868 q 1383 781 1383 810 q 1367 724 1383 747 q 1330 690 1350 701 q 1296 678 1310 678 q 1286 685 1286 678 q 1268 750 1286 722 q 1218 778 1250 778 q 1166 758 1188 778 q 1128 709 1144 739 q 1101 649 1113 679 q 1079 597 1089 618 q 1022 515 1054 547 q 951 476 989 483 l 951 472 q 1069 440 1021 472 q 1150 359 1117 408 q 1208 256 1183 310 q 1254 153 1232 201 q 1303 76 1276 106 q 1365 49 1329 46 q 1399 65 1388 51 q 1417 92 1410 78 q 1436 106 1425 106 q 1456 96 1450 107 q 1460 74 1463 85 q 1430 22 1453 42 q 1378 -6 1407 3 q 1324 -14 1350 -14 q 1213 10 1257 -14 q 1140 75 1169 35 q 1088 164 1110 115 q 1045 261 1065 213 q 999 350 1025 310 q 935 415 972 390 q 840 439 897 439 l 808 439 l 808 163 q 814 112 810 136 q 838 72 818 88 q 900 56 857 56 q 924 53 914 56 q 935 26 933 50 q 928 6 935 15 q 910 -4 922 -4 q 825 -1 865 -1 q 743 0 785 0 q 571 -4 661 0 q 552 6 558 -4 q 546 26 546 15 q 558 53 547 50 q 582 56 568 56 q 644 72 626 56 q 667 112 663 88 q 672 163 672 136 l 672 439 l 640 439 q 546 415 583 439 q 482 350 508 390 q 435 261 456 310 q 393 164 415 213 q 341 75 371 115 q 267 10 311 35 q 157 -14 224 -14 m 939 1179 q 988 1161 968 1179 q 1007 1108 1007 1143 q 968 1026 1007 1058 q 868 977 929 993 q 740 961 807 961 q 613 977 675 961 q 513 1026 551 993 q 474 1108 474 1058 q 493 1161 474 1143 q 542 1179 513 1179 q 588 1162 571 1179 q 618 1119 606 1144 q 644 1069 631 1094 q 681 1026 658 1043 q 740 1008 703 1008 q 800 1026 778 1008 q 836 1069 822 1043 q 863 1119 850 1094 q 892 1162 875 1144 q 939 1179 910 1179 z "},"Ӌ":{"ha":1018,"x_min":28,"x_max":913,"o":"m 878 56 q 901 53 892 56 q 913 26 911 50 q 907 6 913 15 q 888 -4 901 -4 q 742 0 808 0 q 653 -23 683 -1 q 610 -92 624 -44 q 583 -218 596 -139 q 532 -249 578 -249 q 505 -240 518 -249 q 492 -214 492 -231 l 492 15 q 506 51 492 42 q 538 60 519 60 q 615 73 592 60 q 644 115 639 86 q 650 192 650 144 l 650 408 q 547 373 585 385 q 485 357 508 361 q 436 351 461 353 q 294 376 358 350 q 197 442 229 401 q 167 501 179 465 q 154 603 154 536 l 154 714 q 149 765 154 740 q 126 805 144 789 q 64 821 108 821 q 40 824 50 821 q 28 850 31 826 q 34 871 28 861 q 53 881 40 881 q 137 878 97 879 q 218 876 176 876 q 392 881 303 876 q 411 871 406 881 q 417 850 417 861 q 406 824 415 826 q 382 821 396 821 q 320 805 339 821 q 297 765 301 789 q 290 714 292 740 l 290 618 q 317 505 290 547 q 391 444 344 463 q 493 426 438 426 q 572 438 533 426 q 650 468 610 449 l 650 714 q 645 765 650 740 q 622 805 640 789 q 560 821 604 821 q 536 824 546 821 q 525 850 526 826 q 531 871 525 861 q 550 881 536 881 q 724 876 640 876 q 803 878 764 876 q 888 881 843 879 q 907 871 901 881 q 913 850 913 861 q 901 824 911 826 q 878 821 892 821 q 816 805 835 821 q 793 765 797 789 q 788 714 789 740 l 788 163 q 793 112 789 136 q 816 72 797 88 q 878 56 835 56 z "}}}
